<?xml version="1.0" encoding="UTF-8" standalone="no"?>
<!DOCTYPE svg PUBLIC "-//W3C//DTD SVG 1.1//EN"
 "http://www.w3.org/Graphics/SVG/1.1/DTD/svg11.dtd">
<!-- Generated by graphviz version 2.38.0 (20140413.2041)
 -->
<!-- Title: G Pages: 1 -->
<svg width="1475pt" height="1271pt"
 viewBox="0.00 0.00 1475.00 1271.00" xmlns="http://www.w3.org/2000/svg" xmlns:xlink="http://www.w3.org/1999/xlink">
<g id="graph0" class="graph" transform="scale(1 1) rotate(0) translate(4 1267)">
<title>G</title>
<polygon fill="#fafafa" stroke="none" points="-4,4 -4,-1267 1471,-1267 1471,4 -4,4"/>
<text text-anchor="middle" x="194" y="-1243" font-family="Roboto" font-size="20.00" fill="#1976d2">Google Cloud Platform Services Overview</text>
<!-- GCP -->
<g id="node1" class="node"><title>GCP</title>
<polygon fill="white" stroke="#e0e0e0" points="785.929,-582.913 568.929,-582.913 568.929,-546.913 785.929,-546.913 785.929,-582.913"/>
<image xlink:href="images/gcp-logo.svg" width="217px" height="36px" preserveAspectRatio="xMinYMin meet" x="568.929" y="-582.913"/>
</g>
<!-- Compute -->
<g id="node2" class="node"><title>Compute</title>
<polygon fill="white" stroke="#e0e0e0" points="506.22,-386.46 449.22,-386.46 449.22,-350.46 506.22,-350.46 506.22,-386.46"/>
<text text-anchor="middle" x="477.72" y="-365.96" font-family="Roboto" font-size="10.00" fill="#212121">Compute</text>
</g>
<!-- GCP&#45;&#45;Compute -->
<g id="edge1" class="edge"><title>GCP&#45;&#45;Compute</title>
<path fill="none" stroke="#e0e0e0" d="M658.999,-546.784C620.954,-509.358 534.113,-423.933 496.106,-386.546"/>
</g>
<!-- Store -->
<g id="node8" class="node"><title>Store</title>
<polygon fill="white" stroke="#e0e0e0" points="711.402,-243.763 589.402,-243.763 589.402,-207.763 711.402,-207.763 711.402,-243.763"/>
<text text-anchor="middle" x="650.402" y="-223.263" font-family="Roboto" font-size="10.00" fill="#212121">Storage and Databases</text>
</g>
<!-- GCP&#45;&#45;Store -->
<g id="edge7" class="edge"><title>GCP&#45;&#45;Store</title>
<path fill="none" stroke="#e0e0e0" d="M675.976,-546.679C671.283,-487.791 656.565,-303.103 651.862,-244.087"/>
</g>
<!-- Networking -->
<g id="node14" class="node"><title>Networking</title>
<polygon fill="white" stroke="#e0e0e0" points="391.217,-583.793 323.217,-583.793 323.217,-547.793 391.217,-547.793 391.217,-583.793"/>
<text text-anchor="middle" x="357.217" y="-563.293" font-family="Roboto" font-size="10.00" fill="#212121">Networking</text>
</g>
<!-- GCP&#45;&#45;Networking -->
<g id="edge13" class="edge"><title>GCP&#45;&#45;Networking</title>
<path fill="none" stroke="#e0e0e0" d="M568.573,-565.213C506.747,-565.382 433.523,-565.584 391.507,-565.699"/>
</g>
<!-- BigData -->
<g id="node20" class="node"><title>BigData</title>
<polygon fill="white" stroke="#e0e0e0" points="815.041,-315.107 761.041,-315.107 761.041,-279.107 815.041,-279.107 815.041,-315.107"/>
<text text-anchor="middle" x="788.041" y="-294.607" font-family="Roboto" font-size="10.00" fill="#212121">Big Data</text>
</g>
<!-- GCP&#45;&#45;BigData -->
<g id="edge19" class="edge"><title>GCP&#45;&#45;BigData</title>
<path fill="none" stroke="#e0e0e0" d="M685.032,-546.506C705.288,-497.464 760.383,-364.072 780.532,-315.289"/>
</g>
<!-- ML -->
<g id="node27" class="node"><title>ML</title>
<polygon fill="white" stroke="#e0e0e0" points="1070.47,-503.976 975.472,-503.976 975.472,-467.976 1070.47,-467.976 1070.47,-503.976"/>
<text text-anchor="middle" x="1022.97" y="-483.476" font-family="Roboto" font-size="10.00" fill="#212121">Machine Learning</text>
</g>
<!-- GCP&#45;&#45;ML -->
<g id="edge26" class="edge"><title>GCP&#45;&#45;ML</title>
<path fill="none" stroke="#e0e0e0" d="M756.271,-546.903C823.795,-531.477 918.821,-509.769 975.329,-496.86"/>
</g>
<!-- MGMT -->
<g id="node34" class="node"><title>MGMT</title>
<polygon fill="white" stroke="#e0e0e0" points="674.954,-972.981 571.954,-972.981 571.954,-936.981 674.954,-936.981 674.954,-972.981"/>
<text text-anchor="middle" x="623.454" y="-952.481" font-family="Roboto" font-size="10.00" fill="#212121">Management Tools</text>
</g>
<!-- GCP&#45;&#45;MGMT -->
<g id="edge33" class="edge"><title>GCP&#45;&#45;MGMT</title>
<path fill="none" stroke="#e0e0e0" d="M674.934,-582.945C665.915,-648.122 635.061,-871.098 625.985,-936.691"/>
</g>
<!-- DevTools -->
<g id="node48" class="node"><title>DevTools</title>
<polygon fill="white" stroke="#e0e0e0" points="951.335,-806.387 860.335,-806.387 860.335,-770.387 951.335,-770.387 951.335,-806.387"/>
<text text-anchor="middle" x="905.835" y="-785.887" font-family="Roboto" font-size="10.00" fill="#212121">Developer Tools</text>
</g>
<!-- GCP&#45;&#45;DevTools -->
<g id="edge47" class="edge"><title>GCP&#45;&#45;DevTools</title>
<path fill="none" stroke="#e0e0e0" d="M696.121,-583.201C739.058,-625.211 844.329,-728.209 887.206,-770.16"/>
</g>
<!-- ID -->
<g id="node57" class="node"><title>ID</title>
<polygon fill="white" stroke="#e0e0e0" points="525.185,-714.682 428.185,-714.682 428.185,-678.682 525.185,-678.682 525.185,-714.682"/>
<text text-anchor="middle" x="476.685" y="-694.182" font-family="Roboto" font-size="10.00" fill="#212121">Identity &amp; Security</text>
</g>
<!-- GCP&#45;&#45;ID -->
<g id="edge57" class="edge"><title>GCP&#45;&#45;ID</title>
<path fill="none" stroke="#e0e0e0" d="M649.938,-582.959C611.603,-608.122 542.495,-653.484 504.166,-678.643"/>
</g>
<!-- GCE -->
<g id="node3" class="node"><title>GCE</title>
<polygon fill="white" stroke="#e0e0e0" points="352.769,-410.413 210.769,-410.413 210.769,-358.413 352.769,-358.413 352.769,-410.413"/>
<image xlink:href="images/compute-engine.svg" width="45px" height="40px" preserveAspectRatio="xMinYMin meet" x="220.769" y="-404.413"/>
<text text-anchor="start" x="269.769" y="-380.413" font-family="Roboto" font-size="10.00" fill="#757575">Compute Engine</text>
</g>
<!-- Compute&#45;&#45;GCE -->
<g id="edge2" class="edge"><title>Compute&#45;&#45;GCE</title>
<path fill="none" stroke="#e0e0e0" d="M448.807,-370.814C423.682,-372.859 386.23,-375.909 353.153,-378.602"/>
</g>
<!-- GAE -->
<g id="node4" class="node"><title>GAE</title>
<polygon fill="white" stroke="#e0e0e0" points="432.094,-230.033 312.094,-230.033 312.094,-178.033 432.094,-178.033 432.094,-230.033"/>
<image xlink:href="images/appengine.svg" width="45px" height="40px" preserveAspectRatio="xMinYMin meet" x="322.094" y="-224.033"/>
<text text-anchor="start" x="371.094" y="-200.033" font-family="Roboto" font-size="10.00" fill="#757575">App Engine</text>
</g>
<!-- Compute&#45;&#45;GAE -->
<g id="edge3" class="edge"><title>Compute&#45;&#45;GAE</title>
<path fill="none" stroke="#e0e0e0" d="M469.341,-350.302C456.691,-323.767 431.122,-273.392 402.404,-235.105 401.138,-233.417 399.786,-231.727 398.383,-230.055"/>
</g>
<!-- GKE -->
<g id="node5" class="node"><title>GKE</title>
<polygon fill="white" stroke="#e0e0e0" points="399.204,-290.305 255.204,-290.305 255.204,-238.305 399.204,-238.305 399.204,-290.305"/>
<image xlink:href="images/container-engine.svg" width="45px" height="40px" preserveAspectRatio="xMinYMin meet" x="265.204" y="-284.305"/>
<text text-anchor="start" x="314.204" y="-260.305" font-family="Roboto" font-size="10.00" fill="#757575">Container Engine</text>
</g>
<!-- Compute&#45;&#45;GKE -->
<g id="edge4" class="edge"><title>Compute&#45;&#45;GKE</title>
<path fill="none" stroke="#e0e0e0" d="M451.502,-350.318C427.582,-333.765 391.954,-309.111 364.967,-290.437"/>
</g>
<!-- GCR -->
<g id="node6" class="node"><title>GCR</title>
<polygon fill="white" stroke="#e0e0e0" points="341.516,-350.363 191.516,-350.363 191.516,-298.363 341.516,-298.363 341.516,-350.363"/>
<image xlink:href="images/container-registry.svg" width="45px" height="40px" preserveAspectRatio="xMinYMin meet" x="201.516" y="-344.363"/>
<text text-anchor="start" x="250.516" y="-320.363" font-family="Roboto" font-size="10.00" fill="#757575">Container Registry</text>
</g>
<!-- Compute&#45;&#45;GCR -->
<g id="edge5" class="edge"><title>Compute&#45;&#45;GCR</title>
<path fill="none" stroke="#e0e0e0" d="M448.796,-362.421C421.343,-356.689 378.89,-347.825 341.858,-340.093"/>
</g>
<!-- CFN -->
<g id="node7" class="node"><title>CFN</title>
<polygon fill="white" stroke="#e0e0e0" points="581.219,-233.001 440.219,-233.001 440.219,-181.001 581.219,-181.001 581.219,-233.001"/>
<image xlink:href="images/functions.svg" width="45px" height="40px" preserveAspectRatio="xMinYMin meet" x="450.719" y="-227.001"/>
<text text-anchor="start" x="499.719" y="-203.001" font-family="Roboto" font-size="10.00" fill="#757575">Cloud Functions</text>
</g>
<!-- Compute&#45;&#45;CFN -->
<g id="edge6" class="edge"><title>Compute&#45;&#45;CFN</title>
<path fill="none" stroke="#e0e0e0" d="M481.441,-350.252C487.29,-321.635 498.659,-266.008 505.379,-233.128"/>
</g>
<!-- Storage -->
<g id="node9" class="node"><title>Storage</title>
<polygon fill="white" stroke="#e0e0e0" points="775.66,-75.9216 642.66,-75.9216 642.66,-23.9216 775.66,-23.9216 775.66,-75.9216"/>
<image xlink:href="images/storage.svg" width="45px" height="40px" preserveAspectRatio="xMinYMin meet" x="653.16" y="-69.9216"/>
<text text-anchor="start" x="702.16" y="-45.9216" font-family="Roboto" font-size="10.00" fill="#757575">Cloud Storage</text>
</g>
<!-- Store&#45;&#45;Storage -->
<g id="edge8" class="edge"><title>Store&#45;&#45;Storage</title>
<path fill="none" stroke="#e0e0e0" d="M630.683,-207.433C624.94,-200.85 619.405,-192.966 616.393,-184.591 607.61,-160.166 598.775,-145.251 616.393,-126.191 619.519,-122.81 632.885,-126.528 637.05,-124.564 659.54,-113.959 678.738,-93.0974 691.657,-76.1187"/>
</g>
<!-- SQL -->
<g id="node10" class="node"><title>SQL</title>
<polygon fill="white" stroke="#e0e0e0" points="625.246,-52.0685 509.246,-52.0685 509.246,-0.068542 625.246,-0.068542 625.246,-52.0685"/>
<image xlink:href="images/sql.svg" width="45px" height="40px" preserveAspectRatio="xMinYMin meet" x="519.246" y="-46.0685"/>
<text text-anchor="start" x="568.246" y="-22.0685" font-family="Roboto" font-size="10.00" fill="#757575">Cloud SQL</text>
</g>
<!-- Store&#45;&#45;SQL -->
<g id="edge9" class="edge"><title>Store&#45;&#45;SQL</title>
<path fill="none" stroke="#e0e0e0" d="M630.683,-207.433C624.94,-200.85 619.405,-192.966 616.393,-184.591 607.61,-160.166 598.775,-145.251 616.393,-126.191 619.519,-122.81 633.924,-127.945 637.05,-124.564 641.454,-119.799 640.3,-71.7801 637.05,-66.1642 634.039,-60.9631 630.071,-56.378 625.551,-52.3487"/>
</g>
<!-- BigTable -->
<g id="node11" class="node"><title>BigTable</title>
<polygon fill="white" stroke="#e0e0e0" points="633.85,-121.364 499.85,-121.364 499.85,-69.3642 633.85,-69.3642 633.85,-121.364"/>
<image xlink:href="images/bigtable.svg" width="45px" height="40px" preserveAspectRatio="xMinYMin meet" x="509.85" y="-115.364"/>
<text text-anchor="start" x="558.85" y="-91.3642" font-family="Roboto" font-size="10.00" fill="#757575">Cloud Bigtable</text>
</g>
<!-- Store&#45;&#45;BigTable -->
<g id="edge10" class="edge"><title>Store&#45;&#45;BigTable</title>
<path fill="none" stroke="#e0e0e0" d="M634.073,-207.472C628.204,-200.526 621.722,-192.403 616.393,-184.591 602.514,-164.245 589.101,-139.688 579.739,-121.491"/>
</g>
<!-- Datastore -->
<g id="node12" class="node"><title>Datastore</title>
<polygon fill="white" stroke="#e0e0e0" points="491.801,-142.675 350.801,-142.675 350.801,-89.6746 491.801,-89.6746 491.801,-142.675"/>
<image xlink:href="images/datastore.svg" width="45px" height="41px" preserveAspectRatio="xMinYMin meet" x="361.301" y="-136.175"/>
<text text-anchor="start" x="410.301" y="-111.175" font-family="Roboto" font-size="10.00" fill="#757575">Cloud Datastore</text>
</g>
<!-- Store&#45;&#45;Datastore -->
<g id="edge11" class="edge"><title>Store&#45;&#45;Datastore</title>
<path fill="none" stroke="#e0e0e0" d="M628.489,-207.543C616.094,-197.84 599.997,-186.208 584.419,-177.801 555.38,-162.13 521.498,-148.631 492.162,-138.296"/>
</g>
<!-- Pers -->
<g id="node13" class="node"><title>Pers</title>
<polygon fill="white" stroke="#e0e0e0" points="491.766,-68.531 354.766,-68.531 354.766,-16.531 491.766,-16.531 491.766,-68.531"/>
<image xlink:href="images/persistent.svg" width="45px" height="40px" preserveAspectRatio="xMinYMin meet" x="365.266" y="-62.531"/>
<text text-anchor="start" x="414.266" y="-38.531" font-family="Roboto" font-size="10.00" fill="#757575">Persistent Disk</text>
</g>
<!-- Store&#45;&#45;Pers -->
<g id="edge12" class="edge"><title>Store&#45;&#45;Pers</title>
<path fill="none" stroke="#e0e0e0" d="M626.611,-207.733C614.209,-198.524 598.687,-187.29 584.419,-177.801 546.429,-152.536 519.888,-163.826 496.65,-124.564 492.334,-117.273 499.3,-93.775 495.001,-86.4746 490.999,-79.6788 485.493,-73.7947 479.296,-68.7401"/>
</g>
<!-- Virtual -->
<g id="node15" class="node"><title>Virtual</title>
<polygon fill="white" stroke="#e0e0e0" points="164.478,-652.344 0.477679,-652.344 0.477679,-600.344 164.478,-600.344 164.478,-652.344"/>
<image xlink:href="images/virtual-network.svg" width="45px" height="40px" preserveAspectRatio="xMinYMin meet" x="10.4777" y="-646.344"/>
<text text-anchor="start" x="59.4777" y="-622.344" font-family="Roboto" font-size="10.00" fill="#757575">Cloud Virtual Network</text>
</g>
<!-- Networking&#45;&#45;Virtual -->
<g id="edge14" class="edge"><title>Networking&#45;&#45;Virtual</title>
<path fill="none" stroke="#e0e0e0" d="M323.103,-576.938C303.805,-582.979 279.146,-590.261 256.862,-595.513 226.937,-602.565 193.782,-608.813 164.487,-613.808"/>
</g>
<!-- LB -->
<g id="node16" class="node"><title>LB</title>
<polygon fill="white" stroke="#e0e0e0" points="253.662,-592.313 87.6617,-592.313 87.6617,-540.313 253.662,-540.313 253.662,-592.313"/>
<image xlink:href="images/load-balancing.svg" width="45px" height="40px" preserveAspectRatio="xMinYMin meet" x="97.6617" y="-586.313"/>
<text text-anchor="start" x="146.662" y="-562.313" font-family="Roboto" font-size="10.00" fill="#757575">Cloud Load Balancing</text>
</g>
<!-- Networking&#45;&#45;LB -->
<g id="edge15" class="edge"><title>Networking&#45;&#45;LB</title>
<path fill="none" stroke="#e0e0e0" d="M323,-565.889C303.54,-565.943 278.254,-566.013 253.893,-566.081"/>
</g>
<!-- CDN -->
<g id="node17" class="node"><title>CDN</title>
<polygon fill="white" stroke="#e0e0e0" points="290.64,-691.717 173.64,-691.717 173.64,-639.717 290.64,-639.717 290.64,-691.717"/>
<image xlink:href="images/cdn.svg" width="45px" height="40px" preserveAspectRatio="xMinYMin meet" x="184.14" y="-685.717"/>
<text text-anchor="start" x="233.14" y="-661.717" font-family="Roboto" font-size="10.00" fill="#757575">Cloud CDN</text>
</g>
<!-- Networking&#45;&#45;CDN -->
<g id="edge16" class="edge"><title>Networking&#45;&#45;CDN</title>
<path fill="none" stroke="#e0e0e0" d="M334.567,-583.889C315.137,-599.411 286.891,-621.977 264.98,-639.481"/>
</g>
<!-- Interconn -->
<g id="node18" class="node"><title>Interconn</title>
<polygon fill="white" stroke="#e0e0e0" points="238.471,-532.261 84.471,-532.261 84.471,-480.261 238.471,-480.261 238.471,-532.261"/>
<image xlink:href="images/interconnect.svg" width="45px" height="40px" preserveAspectRatio="xMinYMin meet" x="94.471" y="-526.261"/>
<text text-anchor="start" x="143.471" y="-502.261" font-family="Roboto" font-size="10.00" fill="#757575">Cloud Interconnect</text>
</g>
<!-- Networking&#45;&#45;Interconn -->
<g id="edge17" class="edge"><title>Networking&#45;&#45;Interconn</title>
<path fill="none" stroke="#e0e0e0" d="M323.121,-555.424C299.789,-548.328 267.894,-538.628 238.598,-529.718"/>
</g>
<!-- DNS -->
<g id="node19" class="node"><title>DNS</title>
<polygon fill="white" stroke="#e0e0e0" points="321.877,-472.244 203.877,-472.244 203.877,-420.244 321.877,-420.244 321.877,-472.244"/>
<image xlink:href="images/dns.svg" width="45px" height="40px" preserveAspectRatio="xMinYMin meet" x="213.877" y="-466.244"/>
<text text-anchor="start" x="262.877" y="-442.244" font-family="Roboto" font-size="10.00" fill="#757575">Cloud DNS</text>
</g>
<!-- Networking&#45;&#45;DNS -->
<g id="edge18" class="edge"><title>Networking&#45;&#45;DNS</title>
<path fill="none" stroke="#e0e0e0" d="M342.889,-547.636C327.116,-527.649 301.617,-495.336 283.652,-472.57"/>
</g>
<!-- BQ -->
<g id="node21" class="node"><title>BQ</title>
<polygon fill="white" stroke="#e0e0e0" points="984.124,-276.536 875.124,-276.536 875.124,-224.536 984.124,-224.536 984.124,-276.536"/>
<image xlink:href="images/bigquery.svg" width="45px" height="40px" preserveAspectRatio="xMinYMin meet" x="885.624" y="-270.536"/>
<text text-anchor="start" x="934.624" y="-246.536" font-family="Roboto" font-size="10.00" fill="#757575">BigQuery</text>
</g>
<!-- BigData&#45;&#45;BQ -->
<g id="edge20" class="edge"><title>BigData&#45;&#45;BQ</title>
<path fill="none" stroke="#e0e0e0" d="M815.34,-288.127C832.215,-282.577 854.472,-275.256 874.859,-268.55"/>
</g>
<!-- Datalow -->
<g id="node22" class="node"><title>Datalow</title>
<polygon fill="white" stroke="#e0e0e0" points="1082.87,-216.512 946.868,-216.512 946.868,-165.512 1082.87,-165.512 1082.87,-216.512"/>
<image xlink:href="images/dataflow.svg" width="45px" height="39px" preserveAspectRatio="xMinYMin meet" x="956.868" y="-210.012"/>
<text text-anchor="start" x="1005.87" y="-186.012" font-family="Roboto" font-size="10.00" fill="#757575">Cloud Dataflow</text>
</g>
<!-- BigData&#45;&#45;Datalow -->
<g id="edge21" class="edge"><title>BigData&#45;&#45;Datalow</title>
<path fill="none" stroke="#e0e0e0" d="M802.253,-278.979C817.423,-261.063 843.194,-234.484 871.924,-221.336 877.193,-218.925 879.152,-220.711 884.863,-219.727 905.023,-216.255 926.781,-211.752 946.623,-207.345"/>
</g>
<!-- Dataproc -->
<g id="node23" class="node"><title>Dataproc</title>
<polygon fill="white" stroke="#e0e0e0" points="881.663,-216.527 742.663,-216.527 742.663,-163.527 881.663,-163.527 881.663,-216.527"/>
<image xlink:href="images/dataproc.svg" width="45px" height="41px" preserveAspectRatio="xMinYMin meet" x="753.163" y="-210.027"/>
<text text-anchor="start" x="802.163" y="-185.027" font-family="Roboto" font-size="10.00" fill="#757575">Cloud Dataproc</text>
</g>
<!-- BigData&#45;&#45;Dataproc -->
<g id="edge22" class="edge"><title>BigData&#45;&#45;Dataproc</title>
<path fill="none" stroke="#e0e0e0" d="M792.133,-278.942C795.978,-261.877 801.777,-236.133 806.148,-216.73"/>
</g>
<!-- Datalab -->
<g id="node24" class="node"><title>Datalab</title>
<polygon fill="white" stroke="#e0e0e0" points="880.574,-137.945 749.574,-137.945 749.574,-85.9453 880.574,-85.9453 880.574,-137.945"/>
<image xlink:href="images/datalab.svg" width="45px" height="40px" preserveAspectRatio="xMinYMin meet" x="760.074" y="-131.945"/>
<text text-anchor="start" x="809.074" y="-107.945" font-family="Roboto" font-size="10.00" fill="#757575">Cloud Datalab</text>
</g>
<!-- BigData&#45;&#45;Datalab -->
<g id="edge23" class="edge"><title>BigData&#45;&#45;Datalab</title>
<path fill="none" stroke="#e0e0e0" d="M772.391,-278.851C760.769,-264.02 745.87,-241.981 739.463,-219.727 738.55,-216.556 737.879,-163.222 739.463,-160.327 744.252,-151.578 751.372,-144.179 759.358,-138.003"/>
</g>
<!-- PubSub -->
<g id="node25" class="node"><title>PubSub</title>
<polygon fill="white" stroke="#e0e0e0" points="1036.67,-157.505 899.674,-157.505 899.674,-105.505 1036.67,-105.505 1036.67,-157.505"/>
<image xlink:href="images/pubsub.svg" width="45px" height="40px" preserveAspectRatio="xMinYMin meet" x="910.174" y="-151.505"/>
<text text-anchor="start" x="959.174" y="-127.505" font-family="Roboto" font-size="10.00" fill="#757575">Cloud Pub/Sub</text>
</g>
<!-- BigData&#45;&#45;PubSub -->
<g id="edge24" class="edge"><title>BigData&#45;&#45;PubSub</title>
<path fill="none" stroke="#e0e0e0" d="M802.253,-278.979C817.423,-261.063 843.194,-234.484 871.924,-221.336 877.193,-218.925 879.693,-222.346 884.863,-219.727 899.616,-212.254 927.608,-180.766 947.052,-157.529"/>
</g>
<!-- Genomics -->
<g id="node26" class="node"><title>Genomics</title>
<polygon fill="white" stroke="#e0e0e0" points="734.593,-181.391 619.593,-181.391 619.593,-129.391 734.593,-129.391 734.593,-181.391"/>
<image xlink:href="images/genomics.svg" width="45px" height="40px" preserveAspectRatio="xMinYMin meet" x="630.093" y="-175.391"/>
<text text-anchor="start" x="679.093" y="-151.391" font-family="Roboto" font-size="10.00" fill="#757575">Genomics</text>
</g>
<!-- BigData&#45;&#45;Genomics -->
<g id="edge25" class="edge"><title>BigData&#45;&#45;Genomics</title>
<path fill="none" stroke="#e0e0e0" d="M773.764,-278.87C754.392,-254.126 719.664,-209.768 697.532,-181.498"/>
</g>
<!-- CML -->
<g id="node28" class="node"><title>CML</title>
<polygon fill="white" stroke="#e0e0e0" points="1467.29,-560.835 1291.29,-560.835 1291.29,-508.835 1467.29,-508.835 1467.29,-560.835"/>
<image xlink:href="images/machine-learning.svg" width="45px" height="40px" preserveAspectRatio="xMinYMin meet" x="1301.29" y="-554.835"/>
<text text-anchor="start" x="1350.29" y="-530.835" font-family="Roboto" font-size="10.00" fill="#757575">Cloud Machine Learning</text>
</g>
<!-- ML&#45;&#45;CML -->
<g id="edge27" class="edge"><title>ML&#45;&#45;CML</title>
<path fill="none" stroke="#e0e0e0" d="M1070.47,-500.731C1092.58,-507.027 1119.35,-513.851 1143.87,-517.935 1192.17,-525.981 1246.68,-530.198 1291.07,-532.407"/>
</g>
<!-- Jobs -->
<g id="node29" class="node"><title>Jobs</title>
<polygon fill="white" stroke="#e0e0e0" points="1201.57,-394.649 1091.57,-394.649 1091.57,-342.649 1201.57,-342.649 1201.57,-394.649"/>
<image xlink:href="images/jobs-api-logo.svg" width="45px" height="40px" preserveAspectRatio="xMinYMin meet" x="1101.57" y="-388.649"/>
<text text-anchor="start" x="1150.57" y="-364.649" font-family="Roboto" font-size="10.00" fill="#757575">Jobs API</text>
</g>
<!-- ML&#45;&#45;Jobs -->
<g id="edge28" class="edge"><title>ML&#45;&#45;Jobs</title>
<path fill="none" stroke="#e0e0e0" d="M1042.01,-467.901C1062.6,-448.36 1095.6,-417.034 1119.02,-394.806"/>
</g>
<!-- NLP -->
<g id="node30" class="node"><title>NLP</title>
<polygon fill="white" stroke="#e0e0e0" points="1295.76,-620.855 1131.76,-620.855 1131.76,-568.855 1295.76,-568.855 1295.76,-620.855"/>
<image xlink:href="images/natural-language.svg" width="45px" height="40px" preserveAspectRatio="xMinYMin meet" x="1141.76" y="-614.855"/>
<text text-anchor="start" x="1190.76" y="-590.855" font-family="Roboto" font-size="10.00" fill="#757575">Natural Language API</text>
</g>
<!-- ML&#45;&#45;NLP -->
<g id="edge29" class="edge"><title>ML&#45;&#45;NLP</title>
<path fill="none" stroke="#e0e0e0" d="M1054.91,-504.2C1085.88,-521.877 1133.2,-548.877 1168.14,-568.817"/>
</g>
<!-- Speech -->
<g id="node31" class="node"><title>Speech</title>
<polygon fill="white" stroke="#e0e0e0" points="1274.22,-454.683 1151.22,-454.683 1151.22,-402.683 1274.22,-402.683 1274.22,-454.683"/>
<image xlink:href="images/speech-api.svg" width="45px" height="40px" preserveAspectRatio="xMinYMin meet" x="1161.72" y="-448.683"/>
<text text-anchor="start" x="1210.72" y="-424.683" font-family="Roboto" font-size="10.00" fill="#757575">Speech API</text>
</g>
<!-- ML&#45;&#45;Speech -->
<g id="edge30" class="edge"><title>ML&#45;&#45;Speech</title>
<path fill="none" stroke="#e0e0e0" d="M1070.85,-471.519C1095.23,-464.16 1125.13,-455.129 1151.2,-447.26"/>
</g>
<!-- Trans -->
<g id="node32" class="node"><title>Trans</title>
<polygon fill="white" stroke="#e0e0e0" points="1283.07,-514.735 1147.07,-514.735 1147.07,-462.735 1283.07,-462.735 1283.07,-514.735"/>
<image xlink:href="images/translate-api.svg" width="45px" height="40px" preserveAspectRatio="xMinYMin meet" x="1157.07" y="-508.735"/>
<text text-anchor="start" x="1206.07" y="-484.735" font-family="Roboto" font-size="10.00" fill="#757575">Translation API</text>
</g>
<!-- ML&#45;&#45;Trans -->
<g id="edge31" class="edge"><title>ML&#45;&#45;Trans</title>
<path fill="none" stroke="#e0e0e0" d="M1070.95,-486.666C1093.95,-486.996 1121.91,-487.397 1147.06,-487.759"/>
</g>
<!-- Vision -->
<g id="node33" class="node"><title>Vision</title>
<polygon fill="white" stroke="#e0e0e0" points="1083.57,-336.589 969.571,-336.589 969.571,-284.589 1083.57,-284.589 1083.57,-336.589"/>
<image xlink:href="images/vision-api.svg" width="45px" height="40px" preserveAspectRatio="xMinYMin meet" x="979.571" y="-330.589"/>
<text text-anchor="start" x="1028.57" y="-306.589" font-family="Roboto" font-size="10.00" fill="#757575">Vision API</text>
</g>
<!-- ML&#45;&#45;Vision -->
<g id="edge32" class="edge"><title>ML&#45;&#45;Vision</title>
<path fill="none" stroke="#e0e0e0" d="M1023.34,-467.867C1023.98,-436.71 1025.29,-372.843 1026.03,-336.816"/>
</g>
<!-- Stackdriver -->
<g id="node35" class="node"><title>Stackdriver</title>
<polygon fill="white" stroke="#e0e0e0" points="877.226,-1052.41 756.226,-1052.41 756.226,-1002.41 877.226,-1002.41 877.226,-1052.41"/>
<image xlink:href="images/stackdriver-green.svg" width="45px" height="38px" preserveAspectRatio="xMinYMin meet" x="766.726" y="-1046.41"/>
<text text-anchor="start" x="815.726" y="-1023.41" font-family="Roboto" font-size="10.00" fill="#757575">Stackdriver</text>
</g>
<!-- MGMT&#45;&#45;Stackdriver -->
<g id="edge34" class="edge"><title>MGMT&#45;&#45;Stackdriver</title>
<path fill="none" stroke="#e0e0e0" d="M671.726,-973.07C697.218,-982.623 728.761,-994.443 755.909,-1004.62"/>
</g>
<!-- Monitoring -->
<g id="node36" class="node"><title>Monitoring</title>
<polygon fill="white" stroke="#e0e0e0" points="505.048,-1171.55 388.048,-1171.55 388.048,-1119.55 505.048,-1119.55 505.048,-1171.55"/>
<image xlink:href="images/stackdriver.svg" width="45px" height="40px" preserveAspectRatio="xMinYMin meet" x="398.548" y="-1165.55"/>
<text text-anchor="start" x="447.548" y="-1141.55" font-family="Roboto" font-size="10.00" fill="#757575">Monitoring</text>
</g>
<!-- MGMT&#45;&#45;Monitoring -->
<g id="edge35" class="edge"><title>MGMT&#45;&#45;Monitoring</title>
<path fill="none" stroke="#e0e0e0" d="M614.983,-973.32C603.403,-996.125 580.35,-1034.33 548.307,-1053.03 533.44,-1061.71 524.094,-1048.62 509.95,-1058.44 486.84,-1074.48 496.88,-1091.75 479.752,-1114.06 478.398,-1115.83 476.943,-1117.58 475.425,-1119.31"/>
</g>
<!-- Log -->
<g id="node37" class="node"><title>Log</title>
<polygon fill="white" stroke="#e0e0e0" points="545.107,-1049.83 439.107,-1049.83 439.107,-997.834 545.107,-997.834 545.107,-1049.83"/>
<image xlink:href="images/logging.svg" width="45px" height="40px" preserveAspectRatio="xMinYMin meet" x="449.107" y="-1043.83"/>
<text text-anchor="start" x="498.107" y="-1019.83" font-family="Roboto" font-size="10.00" fill="#757575">Logging</text>
</g>
<!-- MGMT&#45;&#45;Log -->
<g id="edge36" class="edge"><title>MGMT&#45;&#45;Log</title>
<path fill="none" stroke="#e0e0e0" d="M588.944,-973.071C574.655,-980.562 557.803,-989.396 542.197,-997.576"/>
</g>
<!-- Err -->
<g id="node38" class="node"><title>Err</title>
<polygon fill="white" stroke="#e0e0e0" points="482.054,-985.339 346.054,-985.339 346.054,-933.339 482.054,-933.339 482.054,-985.339"/>
<image xlink:href="images/error-reporting.svg" width="45px" height="40px" preserveAspectRatio="xMinYMin meet" x="356.054" y="-979.339"/>
<text text-anchor="start" x="405.054" y="-955.339" font-family="Roboto" font-size="10.00" fill="#757575">Error Reporting</text>
</g>
<!-- MGMT&#45;&#45;Err -->
<g id="edge37" class="edge"><title>MGMT&#45;&#45;Err</title>
<path fill="none" stroke="#e0e0e0" d="M571.692,-956.059C544.684,-956.621 511.298,-957.316 482.214,-957.921"/>
</g>
<!-- Trace -->
<g id="node39" class="node"><title>Trace</title>
<polygon fill="white" stroke="#e0e0e0" points="700.366,-1173.74 603.366,-1173.74 603.366,-1121.74 700.366,-1121.74 700.366,-1173.74"/>
<image xlink:href="images/trace.svg" width="45px" height="40px" preserveAspectRatio="xMinYMin meet" x="613.866" y="-1167.74"/>
<text text-anchor="start" x="662.866" y="-1143.74" font-family="Roboto" font-size="10.00" fill="#757575">Trace</text>
</g>
<!-- MGMT&#45;&#45;Trace -->
<g id="edge38" class="edge"><title>MGMT&#45;&#45;Trace</title>
<path fill="none" stroke="#e0e0e0" d="M626.127,-973.116C631.183,-1007.42 642.163,-1081.91 648.014,-1121.61"/>
</g>
<!-- Debug -->
<g id="node40" class="node"><title>Debug</title>
<polygon fill="white" stroke="#e0e0e0" points="628.15,-1113.64 513.15,-1113.64 513.15,-1061.64 628.15,-1061.64 628.15,-1113.64"/>
<image xlink:href="images/debugger.svg" width="45px" height="40px" preserveAspectRatio="xMinYMin meet" x="523.65" y="-1107.64"/>
<text text-anchor="start" x="572.65" y="-1083.64" font-family="Roboto" font-size="10.00" fill="#757575">Debugger</text>
</g>
<!-- MGMT&#45;&#45;Debug -->
<g id="edge39" class="edge"><title>MGMT&#45;&#45;Debug</title>
<path fill="none" stroke="#e0e0e0" d="M616.223,-973.148C607.128,-995.997 591.448,-1035.39 581.062,-1061.48"/>
</g>
<!-- Deploy -->
<g id="node41" class="node"><title>Deploy</title>
<polygon fill="white" stroke="#e0e0e0" points="849.471,-925.011 684.471,-925.011 684.471,-873.011 849.471,-873.011 849.471,-925.011"/>
<image xlink:href="images/deployment-manager.svg" width="45px" height="40px" preserveAspectRatio="xMinYMin meet" x="694.971" y="-919.011"/>
<text text-anchor="start" x="743.971" y="-895.011" font-family="Roboto" font-size="10.00" fill="#757575">Deployment Manager</text>
</g>
<!-- MGMT&#45;&#45;Deploy -->
<g id="edge40" class="edge"><title>MGMT&#45;&#45;Deploy</title>
<path fill="none" stroke="#e0e0e0" d="M669.654,-936.964C679.405,-933.161 689.88,-929.076 700.217,-925.045"/>
</g>
<!-- Endpoints -->
<g id="node42" class="node"><title>Endpoints</title>
<polygon fill="white" stroke="#e0e0e0" points="940.014,-1114.2 798.014,-1114.2 798.014,-1062.2 940.014,-1062.2 940.014,-1114.2"/>
<image xlink:href="images/endpoints.svg" width="45px" height="40px" preserveAspectRatio="xMinYMin meet" x="808.014" y="-1108.2"/>
<text text-anchor="start" x="857.014" y="-1084.2" font-family="Roboto" font-size="10.00" fill="#757575">Cloud Endpoints</text>
</g>
<!-- MGMT&#45;&#45;Endpoints -->
<g id="edge41" class="edge"><title>MGMT&#45;&#45;Endpoints</title>
<path fill="none" stroke="#e0e0e0" d="M639.712,-973.279C662.356,-997.293 705.942,-1038.4 753.026,-1055.61 761.391,-1058.66 784.368,-1055.33 793.072,-1057.22 798.916,-1058.49 804.887,-1060.18 810.785,-1062.11"/>
</g>
<!-- Console -->
<g id="node43" class="node"><title>Console</title>
<polygon fill="white" stroke="#e0e0e0" points="594.881,-1232.57 460.881,-1232.57 460.881,-1179.57 594.881,-1179.57 594.881,-1232.57"/>
<image xlink:href="images/gcp.svg" width="45px" height="41px" preserveAspectRatio="xMinYMin meet" x="470.881" y="-1226.07"/>
<text text-anchor="start" x="519.881" y="-1201.07" font-family="Roboto" font-size="10.00" fill="#757575">Cloud Console</text>
</g>
<!-- MGMT&#45;&#45;Console -->
<g id="edge42" class="edge"><title>MGMT&#45;&#45;Console</title>
<path fill="none" stroke="#e0e0e0" d="M631.76,-973.178C645.597,-1006.55 668.392,-1077.72 631.35,-1116.84 628.965,-1119.36 603.264,-1116.98 600.166,-1118.54 574.129,-1131.69 554.038,-1158.89 541.72,-1179.5"/>
</g>
<!-- Shell -->
<g id="node44" class="node"><title>Shell</title>
<polygon fill="white" stroke="#e0e0e0" points="789.872,-1113.42 669.872,-1113.42 669.872,-1060.42 789.872,-1060.42 789.872,-1113.42"/>
<image xlink:href="images/gcp.svg" width="45px" height="41px" preserveAspectRatio="xMinYMin meet" x="679.872" y="-1106.92"/>
<text text-anchor="start" x="728.872" y="-1081.92" font-family="Roboto" font-size="10.00" fill="#757575">Cloud Shell</text>
</g>
<!-- MGMT&#45;&#45;Shell -->
<g id="edge43" class="edge"><title>MGMT&#45;&#45;Shell</title>
<path fill="none" stroke="#e0e0e0" d="M638.028,-973.05C656.244,-995.635 687.566,-1034.47 708.497,-1060.42"/>
</g>
<!-- MobileApp -->
<g id="node45" class="node"><title>MobileApp</title>
<polygon fill="white" stroke="#e0e0e0" points="430.982,-1048.12 282.982,-1048.12 282.982,-995.125 430.982,-995.125 430.982,-1048.12"/>
<image xlink:href="images/gcp.svg" width="45px" height="41px" preserveAspectRatio="xMinYMin meet" x="292.982" y="-1041.62"/>
<text text-anchor="start" x="341.982" y="-1016.62" font-family="Roboto" font-size="10.00" fill="#757575">Cloud Mobile App</text>
</g>
<!-- MGMT&#45;&#45;MobileApp -->
<g id="edge44" class="edge"><title>MGMT&#45;&#45;MobileApp</title>
<path fill="none" stroke="#e0e0e0" d="M571.912,-968.994C546.052,-975.641 514.158,-983.263 485.254,-988.539 463.514,-992.507 457.443,-989.678 435.907,-994.634 434.355,-994.991 432.79,-995.367 431.217,-995.761"/>
</g>
<!-- Billing -->
<g id="node46" class="node"><title>Billing</title>
<polygon fill="white" stroke="#e0e0e0" points="822.632,-1185.24 709.632,-1185.24 709.632,-1132.24 822.632,-1132.24 822.632,-1185.24"/>
<image xlink:href="images/gcp.svg" width="45px" height="41px" preserveAspectRatio="xMinYMin meet" x="720.132" y="-1178.74"/>
<text text-anchor="start" x="769.132" y="-1153.74" font-family="Roboto" font-size="10.00" fill="#757575">Billing API</text>
</g>
<!-- MGMT&#45;&#45;Billing -->
<g id="edge45" class="edge"><title>MGMT&#45;&#45;Billing</title>
<path fill="none" stroke="#e0e0e0" d="M625.625,-973.036C630.624,-1011.29 644.268,-1098.48 666.672,-1116.62 669.862,-1119.21 699.659,-1117.28 703.566,-1118.54 713.275,-1121.67 722.95,-1126.69 731.687,-1132.15"/>
</g>
<!-- APIs -->
<g id="node47" class="node"><title>APIs</title>
<polygon fill="white" stroke="#e0e0e0" points="476.552,-1110.86 358.552,-1110.86 358.552,-1057.86 476.552,-1057.86 476.552,-1110.86"/>
<image xlink:href="images/gcp.svg" width="45px" height="41px" preserveAspectRatio="xMinYMin meet" x="368.552" y="-1104.36"/>
<text text-anchor="start" x="417.552" y="-1079.36" font-family="Roboto" font-size="10.00" fill="#757575">Cloud APIs</text>
</g>
<!-- MGMT&#45;&#45;APIs -->
<g id="edge46" class="edge"><title>MGMT&#45;&#45;APIs</title>
<path fill="none" stroke="#e0e0e0" d="M614.983,-973.32C603.403,-996.125 580.35,-1034.33 548.307,-1053.03 533.44,-1061.71 526.8,-1054.9 509.95,-1058.44 499.188,-1060.7 487.834,-1063.51 476.908,-1066.45"/>
</g>
<!-- DevTools&#45;&#45;Deploy -->
<g id="edge49" class="edge"><title>DevTools&#45;&#45;Deploy</title>
<path fill="none" stroke="#e0e0e0" d="M883.215,-806.407C860.543,-824.468 825.407,-852.459 799.697,-872.941"/>
</g>
<!-- SDK -->
<g id="node49" class="node"><title>SDK</title>
<polygon fill="white" stroke="#e0e0e0" points="915.556,-988.599 798.556,-988.599 798.556,-935.599 915.556,-935.599 915.556,-988.599"/>
<image xlink:href="images/gcp.svg" width="45px" height="41px" preserveAspectRatio="xMinYMin meet" x="809.056" y="-982.099"/>
<text text-anchor="start" x="858.056" y="-957.099" font-family="Roboto" font-size="10.00" fill="#757575">Cloud SDK</text>
</g>
<!-- DevTools&#45;&#45;SDK -->
<g id="edge48" class="edge"><title>DevTools&#45;&#45;SDK</title>
<path fill="none" stroke="#e0e0e0" d="M900.707,-806.649C892.072,-837.398 874.595,-899.64 864.573,-935.332"/>
</g>
<!-- Git -->
<g id="node50" class="node"><title>Git</title>
<polygon fill="white" stroke="#e0e0e0" points="1125.18,-1028.62 935.182,-1028.62 935.182,-975.62 1125.18,-975.62 1125.18,-1028.62"/>
<image xlink:href="images/gcp.svg" width="45px" height="41px" preserveAspectRatio="xMinYMin meet" x="945.182" y="-1022.12"/>
<text text-anchor="start" x="994.182" y="-997.12" font-family="Roboto" font-size="10.00" fill="#757575">Cloud Source Repositories</text>
</g>
<!-- DevTools&#45;&#45;Git -->
<g id="edge50" class="edge"><title>DevTools&#45;&#45;Git</title>
<path fill="none" stroke="#e0e0e0" d="M951.385,-804.513C980.812,-817.586 1016.77,-839.183 1034.29,-871.36 1037.45,-877.156 1034.48,-924.163 1034.29,-930.76 1033.87,-945.521 1032.95,-961.979 1032.09,-975.366"/>
</g>
<!-- Android -->
<g id="node51" class="node"><title>Android</title>
<polygon fill="white" stroke="#e0e0e0" points="1245.1,-899.21 1039.1,-899.21 1039.1,-847.21 1245.1,-847.21 1245.1,-899.21"/>
<image xlink:href="images/dev-tools.svg" width="45px" height="40px" preserveAspectRatio="xMinYMin meet" x="1049.1" y="-893.21"/>
<text text-anchor="start" x="1098.1" y="-878.21" font-family="Roboto" font-size="10.00" fill="#212121">Cloud Tools for Android Studio</text>
<text text-anchor="start" x="1098.1" y="-863.21" font-family="Roboto" font-size="10.00" fill="#757575">Cloud Tools</text>
</g>
<!-- DevTools&#45;&#45;Android -->
<g id="edge51" class="edge"><title>DevTools&#45;&#45;Android</title>
<path fill="none" stroke="#e0e0e0" d="M951.39,-804.742C984.78,-816.729 1030.8,-833.251 1069.27,-847.061"/>
</g>
<!-- IntelliJ -->
<g id="node52" class="node"><title>IntelliJ</title>
<polygon fill="white" stroke="#e0e0e0" points="1184.23,-719.079 1015.23,-719.079 1015.23,-667.079 1184.23,-667.079 1184.23,-719.079"/>
<image xlink:href="images/dev-tools.svg" width="45px" height="40px" preserveAspectRatio="xMinYMin meet" x="1025.73" y="-713.079"/>
<text text-anchor="start" x="1074.73" y="-698.079" font-family="Roboto" font-size="10.00" fill="#212121">Cloud Tools for IntelliJ</text>
<text text-anchor="start" x="1074.73" y="-683.079" font-family="Roboto" font-size="10.00" fill="#757575">Cloud Tools</text>
</g>
<!-- DevTools&#45;&#45;IntelliJ -->
<g id="edge52" class="edge"><title>DevTools&#45;&#45;IntelliJ</title>
<path fill="none" stroke="#e0e0e0" d="M942.762,-770.236C972.209,-755.762 1013.84,-735.3 1046.82,-719.085"/>
</g>
<!-- PowerShell -->
<g id="node53" class="node"><title>PowerShell</title>
<polygon fill="white" stroke="#e0e0e0" points="1251.06,-779.113 1059.06,-779.113 1059.06,-727.113 1251.06,-727.113 1251.06,-779.113"/>
<image xlink:href="images/dev-tools.svg" width="45px" height="40px" preserveAspectRatio="xMinYMin meet" x="1069.06" y="-773.113"/>
<text text-anchor="start" x="1118.06" y="-758.113" font-family="Roboto" font-size="10.00" fill="#212121">Cloud Tools for PowerShell</text>
<text text-anchor="start" x="1118.06" y="-743.113" font-family="Roboto" font-size="10.00" fill="#757575">Cloud Tools</text>
</g>
<!-- DevTools&#45;&#45;PowerShell -->
<g id="edge53" class="edge"><title>DevTools&#45;&#45;PowerShell</title>
<path fill="none" stroke="#e0e0e0" d="M951.547,-781.917C981.619,-777.661 1022.11,-771.931 1059.05,-766.702"/>
</g>
<!-- VisualStudio -->
<g id="node54" class="node"><title>VisualStudio</title>
<polygon fill="white" stroke="#e0e0e0" points="1258.05,-839.152 1060.05,-839.152 1060.05,-787.152 1258.05,-787.152 1258.05,-839.152"/>
<image xlink:href="images/dev-tools.svg" width="45px" height="40px" preserveAspectRatio="xMinYMin meet" x="1070.05" y="-833.152"/>
<text text-anchor="start" x="1119.05" y="-818.152" font-family="Roboto" font-size="10.00" fill="#212121">Cloud Tools for Visual Studio</text>
<text text-anchor="start" x="1119.05" y="-803.152" font-family="Roboto" font-size="10.00" fill="#757575">Cloud Tools</text>
</g>
<!-- DevTools&#45;&#45;VisualStudio -->
<g id="edge54" class="edge"><title>DevTools&#45;&#45;VisualStudio</title>
<path fill="none" stroke="#e0e0e0" d="M951.396,-792.843C981.582,-795.795 1022.37,-799.785 1059.81,-803.446"/>
</g>
<!-- Eclipse -->
<g id="node55" class="node"><title>Eclipse</title>
<polygon fill="white" stroke="#e0e0e0" points="1222.7,-966.736 1039.7,-966.736 1039.7,-914.736 1222.7,-914.736 1222.7,-966.736"/>
<image xlink:href="images/dev-tools.svg" width="45px" height="40px" preserveAspectRatio="xMinYMin meet" x="1050.2" y="-960.736"/>
<text text-anchor="start" x="1099.2" y="-945.736" font-family="Roboto" font-size="10.00" fill="#212121">Google Plugin for Eclipse</text>
<text text-anchor="start" x="1099.2" y="-930.736" font-family="Roboto" font-size="10.00" fill="#757575">Cloud Tools</text>
</g>
<!-- DevTools&#45;&#45;Eclipse -->
<g id="edge55" class="edge"><title>DevTools&#45;&#45;Eclipse</title>
<path fill="none" stroke="#e0e0e0" d="M951.493,-805.097C980.569,-818.328 1016.08,-839.877 1034.29,-871.36 1037.75,-877.34 1031.89,-896.787 1035.9,-902.41 1039.22,-907.054 1043.2,-911.136 1047.62,-914.724"/>
</g>
<!-- TestLab -->
<g id="node56" class="node"><title>TestLab</title>
<polygon fill="white" stroke="#e0e0e0" points="1031.09,-927.56 894.094,-927.56 894.094,-874.56 1031.09,-874.56 1031.09,-927.56"/>
<image xlink:href="images/gcp.svg" width="45px" height="41px" preserveAspectRatio="xMinYMin meet" x="904.594" y="-921.06"/>
<text text-anchor="start" x="953.594" y="-896.06" font-family="Roboto" font-size="10.00" fill="#757575">Cloud Test Lab</text>
</g>
<!-- DevTools&#45;&#45;TestLab -->
<g id="edge56" class="edge"><title>DevTools&#45;&#45;TestLab</title>
<path fill="none" stroke="#e0e0e0" d="M914.954,-806.49C924.167,-824.779 938.508,-853.246 949.05,-874.173"/>
</g>
<!-- IAM -->
<g id="node58" class="node"><title>IAM</title>
<polygon fill="white" stroke="#e0e0e0" points="479.297,-841.522 365.297,-841.522 365.297,-789.522 479.297,-789.522 479.297,-841.522"/>
<image xlink:href="images/iam.svg" width="45px" height="40px" preserveAspectRatio="xMinYMin meet" x="375.297" y="-835.522"/>
<text text-anchor="start" x="424.297" y="-811.522" font-family="Roboto" font-size="10.00" fill="#757575">Cloud IAM</text>
</g>
<!-- ID&#45;&#45;IAM -->
<g id="edge58" class="edge"><title>ID&#45;&#45;IAM</title>
<path fill="none" stroke="#e0e0e0" d="M468.425,-714.731C459.332,-734.6 444.631,-766.722 434.274,-789.353"/>
</g>
<!-- ResMan -->
<g id="node59" class="node"><title>ResMan</title>
<polygon fill="white" stroke="#e0e0e0" points="357.249,-819.491 175.249,-819.491 175.249,-766.491 357.249,-766.491 357.249,-819.491"/>
<image xlink:href="images/gcp.svg" width="45px" height="41px" preserveAspectRatio="xMinYMin meet" x="185.249" y="-812.991"/>
<text text-anchor="start" x="234.249" y="-787.991" font-family="Roboto" font-size="10.00" fill="#757575">Cloud Resource Manager</text>
</g>
<!-- ID&#45;&#45;ResMan -->
<g id="edge59" class="edge"><title>ID&#45;&#45;ResMan</title>
<path fill="none" stroke="#e0e0e0" d="M452.055,-714.709C431.58,-729.024 401.241,-748.717 372.453,-761.647 367.631,-763.814 362.619,-765.876 357.514,-767.832"/>
</g>
<!-- Security -->
<g id="node60" class="node"><title>Security</title>
<polygon fill="white" stroke="#e0e0e0" points="369.253,-758.447 195.253,-758.447 195.253,-705.447 369.253,-705.447 369.253,-758.447"/>
<image xlink:href="images/gcp.svg" width="45px" height="41px" preserveAspectRatio="xMinYMin meet" x="205.253" y="-751.947"/>
<text text-anchor="start" x="254.253" y="-726.947" font-family="Roboto" font-size="10.00" fill="#757575">Cloud Security Scanner</text>
</g>
<!-- ID&#45;&#45;Security -->
<g id="edge60" class="edge"><title>ID&#45;&#45;Security</title>
<path fill="none" stroke="#e0e0e0" d="M428.123,-705.49C410.352,-708.713 389.657,-712.467 369.536,-716.116"/>
</g>
</g>
</svg>
