<?xml version="1.0" encoding="UTF-8" standalone="no"?>
<svg width="80px" height="72px" viewBox="0 0 80 72" version="1.1" xmlns="http://www.w3.org/2000/svg" xmlns:xlink="http://www.w3.org/1999/xlink">
    <!-- Generator: Sketch 39.1 (31720) - http://www.bohemiancoding.com/sketch -->
    <title>appengine-logo</title>
    <desc>Created with Sketch.</desc>
    <defs></defs>
    <g id="Page-1" stroke="none" stroke-width="1" fill="none" fill-rule="evenodd">
        <g id="appengine-logo">
            <path d="M17.6236517,68.2537944 L1.40143258,39.5769738 C0.132106742,37.3330518 0.132106742,34.568318 1.40143258,32.3243961 L17.6236517,3.64757541 C18.893132,1.4036535 21.2389747,0.0212865898 23.7777809,0.0212865898 L56.2222191,0.0212865898 C58.7610253,0.0212865898 61.106868,1.4036535 62.3763483,3.64757541 L78.5985674,32.3243961 C79.8678933,34.568318 79.8678933,37.3330518 78.5985674,39.5769738 L62.3763483,68.2537944 C61.106868,70.4977164 58.7610253,71.8800833 56.2222191,71.8800833 L23.7777809,71.8800833 C21.2389747,71.8800833 18.893132,70.4977164 17.6236517,68.2537944 L17.6236517,68.2537944 Z" id="Clip-2" fill="#0E62C2"></path>
            <path d="M41.0395927,12.5387474 L36.6136376,19.1443704 L40.3218118,22.9291261 L30.8848315,26.4374714 L27.197514,36.0110758 L23.5784831,32.3174583 L17.0591292,38.1614944 L50.0968258,71.8800833 L56.2222191,71.8800833 C58.7610253,71.8800833 61.106868,70.4977164 62.3763483,68.2537944 L74.6561798,46.5458879 L63.0293961,34.6793236 L62.6012921,34.5446663 L41.0395927,12.5387474" id="Fill-1-Copy" fill="#0751B0"></path>
            <g id="Group-2" transform="translate(16.000000, 11.000000)" fill="#FFFFFF">
                <g id="symbol" transform="translate(0.671348, 0.825883)">
                    <path d="M23.3278792,9.27638046 C15.4624157,9.27638046 9.08643258,15.7832968 9.08643258,23.8121254 C9.08643258,31.8385888 15.4624157,38.3477126 23.3278792,38.3477126 C31.1931882,38.3477126 37.5688624,31.8385888 37.5688624,23.8121254 C37.5688624,15.7832968 31.1931882,9.27638046 23.3278792,9.27638046 M23.3278792,34.8398403 C17.3591433,34.8398403 12.5209972,29.9022975 12.5209972,23.8121254 C12.5209972,17.7203764 17.3591433,12.7823606 23.3278792,12.7823606 C29.2961517,12.7823606 34.1336798,17.7203764 34.1336798,23.8121254 C34.1336798,29.9022975 29.2961517,34.8398403 23.3278792,34.8398403" id="Fill-1"></path>
                    <path d="M45.664368,22.0901191 L39.7268399,20.1856789 C39.9738764,21.3550222 40.1068961,22.5672541 40.1068961,23.8110216 C40.1068961,24.6807759 40.0421629,25.5350777 39.9202669,26.3696697 L45.664368,26.3696697 C46.1949017,26.2110452 46.5496208,25.8748748 46.5496208,25.3753495 L46.5496208,23.0830203 C46.5496208,22.584441 46.1949017,22.2386522 45.664368,22.0901191" id="Fill-2"></path>
                    <path d="M23.3238624,6.68540829 C24.5167135,6.68540829 25.6795927,6.81438926 26.8021489,7.05658335 L24.6736798,1.01876042 C24.5182584,0.476031218 24.1884129,0.114316871 23.6994382,0.114316871 L22.810014,0.114316871 C22.3208848,0.114316871 21.9814607,0.476031218 21.835927,1.01876042 L19.9867837,7.02552069 C21.0651545,6.80350944 22.1807584,6.68540829 23.3238624,6.68540829" id="Fill-3"></path>
                    <path d="M6.54855337,23.8110216 C6.54855337,22.5672541 6.68172753,21.3554952 6.92830056,20.1856789 L0.991235955,22.0901191 C0.460547753,22.2386522 0.10613764,22.584441 0.10613764,23.0838087 L0.10613764,25.3761379 C0.10613764,25.8748748 0.460547753,26.2110452 0.991235955,26.3696697 L6.73564607,26.3696697 C6.61328652,25.5355508 6.54855337,24.6807759 6.54855337,23.8110216" id="Fill-4"></path>
                    <path d="M28.4130618,19.0677387 L27.0658708,20.4423794 L27.0658708,20.4392258 C26.0985815,19.4529472 24.8071629,18.9083258 23.4391152,18.9083258 C22.0676685,18.9083258 20.7799579,19.4543663 19.8112781,20.4423794 C17.8113483,22.4830538 17.8113483,25.8056539 19.8112781,27.8468014 L18.4639326,29.2206536 C19.7386657,30.5205547 21.4980478,31.3261339 23.4375702,31.3261339 C27.3187781,31.3261339 30.4761798,28.1044479 30.4761798,24.1426194 C30.4761798,22.1623358 29.6870225,20.3671668 28.4130618,19.0677387 M25.6326264,26.1646877 C24.9975,26.8144806 24.1619944,27.1397712 23.3286517,27.1397712 C22.4926826,27.1397712 21.6593399,26.8144806 21.022823,26.1646877 C19.7487079,24.8644713 19.7487079,22.7577296 21.022823,21.4571978 C21.6593399,20.8066166 22.4926826,20.4833758 23.3286517,20.4833758 C24.1619944,20.4833758 24.9975,20.8066166 25.6326264,21.4571978 C26.9067416,22.7569412 26.9067416,24.8644713 25.6326264,26.1646877" id="Fill-5"></path>
                </g>
            </g>
        </g>
    </g>
</svg>