<?xml version="1.0" encoding="UTF-8" standalone="no"?>
<svg width="80px" height="72px" viewBox="0 0 80 72" version="1.1" xmlns="http://www.w3.org/2000/svg" xmlns:xlink="http://www.w3.org/1999/xlink">
    <!-- Generator: Sketch 39.1 (31720) - http://www.bohemiancoding.com/sketch -->
    <title>bigquery-logo</title>
    <desc>Created with Sketch.</desc>
    <defs>
        <path d="M17.3355166,67.5036257 L0.960935673,39.1419883 C-0.320311891,36.922729 -0.320311891,34.1883821 0.960935673,31.9691228 L17.3355166,3.60748538 C18.6169201,1.38822612 20.9847953,0.0210526316 23.5474464,0.0210526316 L56.2966082,0.0210526316 C58.8592593,0.0210526316 61.2271345,1.38822612 62.508538,3.60748538 L78.8831189,31.9691228 C80.1643665,34.1883821 80.1643665,36.922729 78.8831189,39.1419883 L62.508538,67.5036257 C61.2271345,69.722885 58.8592593,71.0900585 56.2966082,71.0900585 L23.5474464,71.0900585 C20.9847953,71.0900585 18.6169201,69.722885 17.3355166,67.5036257" id="path-1"></path>
    </defs>
    <g id="Page-1" stroke="none" stroke-width="1" fill="none" fill-rule="evenodd">
        <g id="bigquery-logo">
            <g id="Group-3">
                <mask id="mask-2" fill="white">
                    <use xlink:href="#path-1"></use>
                </mask>
                <use id="Clip-2" fill="#0E62C2" xlink:href="#path-1"></use>
                <path d="M39.9220273,22.7217154 L30.6070955,26.182924 L27.0102144,35.5555556 L29.9025341,45.9909552 L55.0016374,71.0900585 L56.2966082,71.0900585 C58.8592593,71.0900585 61.2271345,69.722885 62.508538,67.5036257 L73.4125536,48.617232 L50.2923977,25.497076 L39.9220273,22.7217154" id="Fill-1" fill="#0751B0" mask="url(#mask-2)"></path>
            </g>
            <path d="M39.9220273,21.0864717 C31.93154,21.0864717 25.4535673,27.5642885 25.4535673,35.5555556 C25.4535673,43.5460429 31.93154,50.0240156 39.9220273,50.0240156 C47.9125146,50.0240156 54.3904873,43.5460429 54.3904873,35.5555556 C54.3904873,27.5642885 47.9125146,21.0864717 39.9220273,21.0864717 M39.9220273,46.5334893 C33.8588694,46.5334893 28.9440936,41.6187135 28.9440936,35.5555556 C28.9440936,29.4923977 33.8588694,24.5765302 39.9220273,24.5765302 C45.9851852,24.5765302 50.9005848,29.4923977 50.9005848,35.5555556 C50.9005848,41.6187135 45.9851852,46.5334893 39.9220273,46.5334893" id="Fill-4" fill="#FFFFFF"></path>
            <path d="M33.054191,34.9968031 L33.054191,39.4938012 C33.7191423,40.6368811 34.6604288,41.5959454 35.7869786,42.2853801 L35.7869786,34.9968031 L33.054191,34.9968031" id="Fill-5" fill="#FFFFFF"></path>
            <path d="M38.4722027,31.205614 L38.4722027,43.3136842 C38.9367641,43.3986745 39.4120858,43.4509162 39.9001949,43.4509162 C40.3458869,43.4509162 40.7795712,43.4039766 41.20577,43.3330214 L41.20577,31.205614 L38.4722027,31.205614" id="Fill-6" fill="#FFFFFF"></path>
            <path d="M44.1423782,36.8661209 L44.1423782,42.2064717 C45.2854581,41.4769591 46.2306433,40.4709552 46.8759454,39.2746979 L46.8759454,36.8661209 L44.1423782,36.8661209" id="Fill-7" fill="#FFFFFF"></path>
            <path d="M50.3340351,44.4673684 L48.8350877,45.9675634 C48.5706043,46.2312671 48.5706043,46.6618324 48.8350877,46.9263158 L54.5203899,52.6102144 C54.7840936,52.8745419 55.2154386,52.8745419 55.4791423,52.6102144 L56.9780897,51.1123587 C57.2410136,50.848655 57.2410136,50.4173099 56.9780897,50.1539181 L51.2920078,44.4673684 C51.0290838,44.2041326 50.5969591,44.2041326 50.3340351,44.4673684" id="Fill-8" fill="#FFFFFF"></path>
        </g>
    </g>
</svg>