<?xml version="1.0" encoding="UTF-8" standalone="no"?>
<svg width="80px" height="72px" viewBox="0 0 80 72" version="1.1" xmlns="http://www.w3.org/2000/svg" xmlns:xlink="http://www.w3.org/1999/xlink">
    <!-- Generator: Sketch 39.1 (31720) - http://www.bohemiancoding.com/sketch -->
    <title>bigtable-logo</title>
    <desc>Created with Sketch.</desc>
    <defs>
        <path d="M37.844295,54.6756633 C38.9450477,54.6005303 39.9981946,54.2685647 40.929845,53.7231313 C41.996124,53.0988798 42.9032558,52.1950082 43.5404651,51.076528 L58.3341305,25.091303 L37.7792248,4.24626269 L37.0046512,10.4527743 L32.8390698,6.22852276 L18.3268217,0.202502457 L26.4372093,8.42712086 L16.6145736,3.72113986 L0.231937984,11.5294333 L4.67658915,16.0366852 L4.37457364,33.5223321 L25.2341085,54.6756633 L37.844295,54.6756633 L37.844295,54.6756633 Z" id="path-1"></path>
    </defs>
    <g id="Page-1" stroke="none" stroke-width="1" fill="none" fill-rule="evenodd">
        <g id="bigtable-logo">
            <g id="Group-3" fill="#0E62C2">
                <path d="M62.5867505,68.3533946 C62.648393,68.256217 62.7079268,68.1572522 62.7652713,68.0565477 L79.0443411,39.4621946 C80.3181395,37.2252342 80.3181395,34.4681821 79.0443411,32.2305929 L62.7652713,3.63686865 C61.4914729,1.3992794 59.1373643,0.0207533574 56.5891473,0.0207533574 L24.0303876,0.0207533574 C21.4827907,0.0207533574 19.1286822,1.3992794 17.8548837,3.63686865 L1.5751938,32.2305929 C0.301395349,34.4681821 0.301395349,37.2252342 1.5751938,39.4621946 L17.8548837,68.0565477 C19.0482671,70.1522884 21.1898659,71.4945598 23.5504338,71.6556829 L44.4589147,71.6556829 L23.5993798,50.5023518 L23.9013953,33.0167049 L19.4567442,28.509453 L35.8393798,20.7011595 L45.6620155,25.4071405 L37.5516279,17.1825221 L52.063876,23.2085424 L56.2294574,27.432794 L57.004031,21.2262823 L77.5590698,42.0714576 L62.7652713,68.0565477 C61.5713069,70.1522884 59.4296715,71.4945598 57.0691012,71.6556829 L57.0691012,71.6556829 L57.0692113,71.6556829 C57.3323827,71.6377238 57.5928273,71.6050902 57.8495361,71.5583744 C57.5927663,71.6050707 57.3322946,71.6377184 57.0691012,71.6556829 L44.4589147,71.6556829 L23.5993798,50.5023518 L23.9013953,33.0167049 L19.4567442,28.509453 L35.8393798,20.7011595 L45.6620155,25.4071405 L37.5516279,17.1825221 L52.063876,23.2085424 L56.2294574,27.432794 L57.004031,21.2262823 L77.5589367,42.0713226 L62.7652713,68.0565477 C62.7079073,68.1572376 62.6483557,68.2561883 62.5866974,68.3533522 L62.5867505,68.3533946 Z" id="Clip-2"></path>
            </g>
            <g id="Group-6" transform="translate(19.224806, 16.980020)">
                <mask id="mask-2" fill="white">
                    <use xlink:href="#path-1"></use>
                </mask>
                <use id="Clip-5" fill="#0751B0" xlink:href="#path-1"></use>
            </g>
            <path d="M52.5196899,24.3109859 L52.532093,37.3139076 C52.5327132,37.5943924 52.3851163,37.8534949 52.1457364,37.9937373 L50.0651163,39.2125254 L50.0564341,25.7536587 C50.0564341,25.1939469 49.7618605,24.6763708 49.2837209,24.3965149 L38.932093,18.3359057 C37.324031,17.3950868 36.284031,15.6958271 36.1500775,13.8336849 L51.7457364,22.9538421 C52.2244961,23.233698 52.5190698,23.7512742 52.5196899,24.3109859" id="Fill-7" fill="#FFFFFF"></path>
            <path d="M56.2660465,40.8017294 L45.1677519,47.3145103 C44.9283721,47.4547527 44.6337984,47.4547527 44.3937984,47.3145103 L42.3131783,46.0963511 L53.8027907,39.3596856 C54.2809302,39.0798297 54.5748837,38.5622535 54.5748837,38.0025418 L54.5748837,25.8813233 C54.5748837,23.9990567 55.5057364,22.2356502 57.0288372,21.1866623 L57.0381395,39.4439568 C57.0387597,40.0036685 56.744186,40.5212447 56.2660465,40.8017294" id="Fill-8" fill="#FFFFFF"></path>
            <path d="M44.0564341,52.3374517 L32.9457364,45.846682 C32.7063566,45.7070685 32.5581395,45.4479659 32.5581395,45.1674812 L32.5581395,42.7305339 L44.055814,49.452735 C44.5345736,49.7325909 45.1237209,49.7325909 45.6018605,49.4521061 L55.9534884,43.3921258 C57.5603101,42.4500491 59.5317829,42.3865313 61.1888372,43.1996856 L45.6024806,52.3361939 C45.1243411,52.6166787 44.5351938,52.6166787 44.0564341,52.3374517" id="Fill-9" fill="#FFFFFF"></path>
            <path d="M28.1004651,47.3824304 L28.088062,34.3795087 C28.0874419,34.0990239 28.2350388,33.8392925 28.4744186,33.699679 L30.5550388,32.4808909 L30.5631008,45.9397576 C30.5637209,46.4994694 30.8582946,47.0170455 31.3364341,47.2969014 L41.688062,53.3575106 C43.296124,54.2983295 44.336124,55.9975893 44.4700775,57.8597314 L28.8744186,48.7389453 C28.3956589,48.4597183 28.1010853,47.9421422 28.1004651,47.3824304" id="Fill-10" fill="#FFFFFF"></path>
            <path d="M24.3541085,30.8916869 L35.4524031,24.378906 C35.6917829,24.2386636 35.9863566,24.2386636 36.2263566,24.378906 L38.3069767,25.5970652 L26.8173643,32.3331019 C26.3392248,32.6135866 26.0452713,33.1311628 26.0452713,33.6908745 L26.0446512,45.812093 C26.0452713,47.6943596 25.1137984,49.4577661 23.5913178,50.5061251 L23.5820155,32.2494595 C23.5813953,31.6897478 23.875969,31.1721716 24.3541085,30.8916869" id="Fill-11" fill="#FFFFFF"></path>
            <path d="M36.5637209,19.3559646 L47.6744186,25.8467344 C47.9137984,25.9863479 48.0613953,26.2454504 48.0613953,26.5259351 L48.0613953,28.9622535 L36.5643411,22.2406813 C36.0855814,21.9608254 35.4964341,21.9608254 35.0182946,22.2406813 L24.6666667,28.3019194 C23.059845,29.2433672 21.0877519,29.306885 19.4313178,28.4937308 L35.0176744,19.3572224 C35.495814,19.0767376 36.0849612,19.0767376 36.5637209,19.3559646" id="Fill-12" fill="#FFFFFF"></path>
            <path d="M40.3051163,39.1835965 C40.1587597,39.1835965 40.0117829,39.1446053 39.8803101,39.0678808 L32.551938,34.7775958 L32.551938,36.6491713 L40.3051163,41.1884966 L48.0589147,36.6491713 L48.0589147,34.7775958 L40.7305426,39.0678808 C40.5990698,39.1446053 40.452093,39.1835965 40.3051163,39.1835965" id="Fill-13" fill="#FFFFFF"></path>
            <path d="M40.7305426,42.9317786 C40.5990698,43.0085031 40.452093,43.0468654 40.3051163,43.0468654 C40.1587597,43.0468654 40.0117829,43.0085031 39.8803101,42.9317786 L32.551938,38.6408647 L32.551938,40.0256797 C32.551938,40.3225156 32.7082171,40.5967114 32.9624806,40.7451294 L39.895814,44.8046119 C40.1494574,44.9536587 40.4620155,44.9536587 40.7156589,44.8046119 L47.6489922,40.7451294 C47.9026357,40.5967114 48.0589147,40.3225156 48.0589147,40.0256797 L48.0589147,38.6408647 L40.7305426,42.9317786" id="Fill-14" fill="#FFFFFF"></path>
            <path d="M40.3051163,37.3252276 L48.0589147,32.7859024 L48.0589147,31.9067147 C48.0589147,31.6092499 47.9026357,31.335054 47.6489922,31.1866361 L40.7156589,27.1271536 C40.4620155,26.9787357 40.1494574,26.9787357 39.895814,27.1271536 L32.9624806,31.1866361 C32.7082171,31.335054 32.551938,31.6092499 32.551938,31.9067147 L32.551938,32.7859024 L40.3051163,37.3252276" id="Fill-15" fill="#FFFFFF"></path>
        </g>
    </g>
</svg>
