<?xml version="1.0" encoding="UTF-8" standalone="no"?>
<svg width="80px" height="72px" viewBox="0 0 80 72" version="1.1" xmlns="http://www.w3.org/2000/svg" xmlns:xlink="http://www.w3.org/1999/xlink">
    <!-- Generator: Sketch 39.1 (31720) - http://www.bohemiancoding.com/sketch -->
    <title>CDN</title>
    <desc>Created with Sketch.</desc>
    <defs>
        <path d="M16.2346146,68.3473895 L-0.0447652661,39.6315789 C-1.31862481,37.3845455 -1.31862481,34.6160861 -0.0447652661,32.3690526 L16.2343045,3.65292632 C17.5080934,1.40575687 19.862319,0.0213958327 22.4101185,0.0213473684 L54.9688161,0.0213473684 C57.5166155,0.0213958327 59.8708412,1.40575687 61.1446301,3.65292632 L77.4236999,32.3690526 C78.6975594,34.6160861 78.6975594,37.3845455 77.4236999,39.6315789 L61.1446301,68.3477053 C59.8708412,70.5948747 57.5166155,71.9792357 54.9688161,71.9792842 L22.4106766,71.9792842 C19.8627246,71.9792609 17.508369,70.5947586 16.2346146,68.3473895 L16.2346146,68.3473895 Z" id="path-1"></path>
    </defs>
    <g id="Page-1" stroke="none" stroke-width="1" fill="none" fill-rule="evenodd">
        <g id="CDN" transform="translate(1.000000, 0.000000)">
            <g id="Clipped">
                <mask id="mask-2" fill="white">
                    <use xlink:href="#path-1"></use>
                </mask>
                <use id="Shape" fill="#0E62C2" xlink:href="#path-1"></use>
                <polygon id="Shape" fill="#0751B0" mask="url(#mask-2)" points="75.9689922 51.5002105 46.4210853 21.408 39.2248062 18.7894737 32.8675969 26.7094737 37.1962791 31.1185263 34.8396899 33.4812632 30.4986047 29.0602105 22.6356589 35.5263158 25.3649612 42.8848421 54.5866667 72.6448421 60.7751938 72.6315789"></polygon>
            </g>
            <polygon id="Shape" fill="#FFFFFF" points="38.3100775 14.5263158 31.4883721 21.4736842 31.4883721 26.7227368 38.3100775 19.7753684 45.1317829 26.7227368 45.1317829 21.4736842"></polygon>
            <polygon id="Shape" fill="#FFFFFF" points="38.3100775 57.4736842 31.4883721 50.5263158 31.4883721 45.2772632 38.3100775 52.2246316 45.1317829 45.2772632 45.1317829 50.5263158"></polygon>
            <polygon id="Shape" fill="#FFFFFF" points="17.2248062 36 24.0465116 42.9473684 29.2006202 42.9473684 22.3789147 36 29.2006202 29.0526316 24.0465116 29.0526316"></polygon>
            <polygon id="Shape" fill="#FFFFFF" points="59.3953488 36 52.5736434 42.9473684 47.4195349 42.9473684 54.2412403 36 47.4195349 29.0526316 52.5736434 29.0526316"></polygon>
            <rect id="Rectangle-path" fill="#FFFFFF" transform="translate(38.310078, 36.000000) rotate(-90.000000) translate(-38.310078, -36.000000) " x="31.4883721" y="29.0526316" width="13.6434109" height="13.8947368" rx="1"></rect>
        </g>
    </g>
</svg>