<?xml version="1.0" encoding="UTF-8" standalone="no"?>
<svg width="80px" height="72px" viewBox="0 0 80 72" version="1.1" xmlns="http://www.w3.org/2000/svg" xmlns:xlink="http://www.w3.org/1999/xlink">
    <!-- Generator: Sketch 39.1 (31720) - http://www.bohemiancoding.com/sketch -->
    <title>compute-engine-logo</title>
    <desc>Created with Sketch.</desc>
    <defs>
        <path d="M0.037209302,36.073703 C0.137779271,37.0589672 0.443929142,38.0279241 0.955658915,38.9141085 L17.2347287,67.1113178 C18.4281121,69.1779511 20.5697108,70.5015798 22.9307887,70.6604651 L56.4490562,70.6604651 C58.8101341,70.5015798 60.9517329,69.1779511 62.1451163,67.1113178 L78.424186,38.9141085 C79.6986047,36.7082171 79.6986047,33.9894574 78.424186,31.7829457 L62.1451163,3.58635659 C60.8713178,1.37984496 58.5172093,0.0204651163 55.9689922,0.0204651163 L23.4108527,0.0204651163 C20.8626357,0.0204651163 18.5085271,1.37984496 17.2347287,3.58635659 L0.955658915,31.7829457 C0.443929142,32.6693793 0.137779271,33.6384852 0.037209302,34.6237985 L0.0372093023,36.0737037" id="path-1"></path>
        <path d="M0.037209302,36.5817833 C0.137779271,37.5809245 0.443929142,38.5635287 0.955658915,39.4621946 L17.2347287,68.0565477 C18.4281121,70.1522884 20.5697108,71.4945598 22.9307887,71.6556829 L56.4490562,71.6556829 C58.8101341,71.4945598 60.9517329,70.1522884 62.1451163,68.0565477 L78.424186,39.4621946 C79.6986047,37.2252342 79.6986047,34.4681821 78.424186,32.2305929 L62.1451163,3.63686865 C60.8713178,1.3992794 58.5172093,0.0207533574 55.9689922,0.0207533574 L23.4108527,0.0207533574 C20.8626357,0.0207533574 18.5085271,1.3992794 17.2347287,3.63686865 L0.955658915,32.2305929 C0.443929142,33.1295114 0.137779271,34.1122667 0.037209302,35.1114576 L0.0372093023,36.581784" id="path-3"></path>
    </defs>
    <g id="Page-1" stroke="none" stroke-width="1" fill="none" fill-rule="evenodd">
        <g id="compute-engine-logo">
            <g id="Group-3">
                <mask id="mask-2" fill="white">
                    <use xlink:href="#path-1"></use>
                </mask>
                <use id="hexigon" fill="#0E62C2" xlink:href="#path-1"></use>
                <path d="M40.7944186,20.1550388 L38.8564341,24.3020155 L34.7193798,20.1649612 L33.7017054,25.1807752 L30.0192248,25.8139535 L29.2551938,29.0889922 L24.4905426,30.2269767 L28.7596899,34.496124 L24.5364341,36.3770543 L28.7596899,40.6009302 L24.5091473,42.416124 L52.7696124,70.6765891 L55.9689922,70.6765891 C58.5172093,70.6765891 60.8713178,69.3172093 62.1451163,67.1113178 L73.7469767,47.015814 L46.9060465,20.1742636 L44.9804651,24.3410853 L40.7944186,20.1550388" id="Fill-1" fill="#0751B0" mask="url(#mask-2)"></path>
            </g>
            <path d="M43.3054264,31.0666667 L36.2306977,31.0672868 C35.8164341,31.0672868 35.4772093,31.4065116 35.4772093,31.820155 L35.4778295,38.8942636 C35.4778295,39.3072868 35.8170543,39.6477519 36.2306977,39.6477519 L43.3048062,39.6477519 C43.7190698,39.6477519 44.0582946,39.3072868 44.0582946,38.8942636 L44.0582946,31.820155 C44.0582946,31.4065116 43.7196899,31.0666667 43.3054264,31.0666667" id="Fill-4" fill="#FFFFFF"></path>
            <path d="M54.5048062,30.4967442 C54.8768992,30.4967442 55.1807752,30.1916279 55.1807752,29.8207752 L55.1807752,28.7193798 C55.1807752,28.3485271 54.8768992,28.0434109 54.5048062,28.0434109 L51.0635659,28.0434109 L51.0635659,24.8266667 C51.0635659,24.4136434 50.7237209,24.0737984 50.3106977,24.0737984 L47.0809302,24.0737984 L47.0815504,20.6195349 C47.0815504,20.2499225 46.7776744,19.9448062 46.4062016,19.9448062 L45.3035659,19.9454264 C44.932093,19.9454264 44.6282171,20.2499225 44.6282171,20.6207752 L44.6288372,24.0737984 L40.9947287,24.0737984 L40.9947287,20.6195349 C40.9947287,20.2499225 40.6908527,19.9448062 40.3193798,19.9448062 L39.2167442,19.9454264 C38.8452713,19.9454264 38.5407752,20.2499225 38.5407752,20.6207752 L38.5420155,24.0737984 L34.907907,24.0744186 L34.907907,20.6195349 C34.907907,20.2499225 34.604031,19.9448062 34.2325581,19.9448062 L33.1299225,19.9454264 C32.7590698,19.9454264 32.4545736,20.2499225 32.4545736,20.6207752 L32.4551938,24.0744186 L29.2260465,24.0744186 C28.8117829,24.0744186 28.4725581,24.4136434 28.4725581,24.8266667 L28.4725581,28.0434109 L25.0313178,28.0434109 C24.6610853,28.0434109 24.3565891,28.3485271 24.3565891,28.7187597 L24.3572093,29.8220155 C24.3572093,30.1928682 24.6610853,30.4967442 25.031938,30.4967442 L28.4725581,30.4967442 L28.4731783,34.1308527 L25.0313178,34.1302326 C24.6610853,34.1302326 24.3565891,34.4347287 24.3565891,34.8055814 L24.3572093,35.9075969 C24.3572093,36.2796899 24.6610853,36.5829457 25.031938,36.5829457 L28.4731783,36.5829457 L28.4731783,40.2176744 L25.0313178,40.2170543 C24.6610853,40.2170543 24.3565891,40.5215504 24.3565891,40.8924031 L24.3572093,41.9944186 C24.3572093,42.3658915 24.6610853,42.6697674 25.031938,42.6697674 L28.4731783,42.6697674 L28.4731783,45.8877519 C28.4731783,46.3007752 28.8124031,46.6406202 29.2260465,46.6406202 L32.4551938,46.6406202 L32.4551938,50.0930233 C32.4551938,50.4651163 32.7596899,50.7689922 33.1311628,50.7689922 L34.231938,50.7689922 C34.6027907,50.7689922 34.9066667,50.4651163 34.9066667,50.0930233 L34.907907,46.6406202 L38.5407752,46.6406202 L38.5420155,50.0930233 C38.5420155,50.4651163 38.8458915,50.7689922 39.2173643,50.7689922 L40.3187597,50.7689922 C40.6896124,50.7689922 40.9934884,50.4651163 40.9934884,50.0930233 L40.9947287,46.6406202 L44.6282171,46.6406202 L44.6288372,50.0930233 C44.6288372,50.4651163 44.9327132,50.7689922 45.304186,50.7689922 L46.4049612,50.7689922 C46.7770543,50.7689922 47.0809302,50.4651163 47.0809302,50.0930233 L47.0815504,46.6406202 L50.3100775,46.6406202 C50.7237209,46.6406202 51.0629457,46.3007752 51.0629457,45.8877519 L51.0635659,42.6697674 L54.5048062,42.6691473 C54.8768992,42.6691473 55.1807752,42.3658915 55.1807752,41.9944186 L55.1807752,40.8930233 C55.1807752,40.5215504 54.8768992,40.2176744 54.5048062,40.2176744 L51.0635659,40.2176744 L51.0635659,36.5829457 L54.5048062,36.5823256 C54.8768992,36.5823256 55.1807752,36.2790698 55.1807752,35.9075969 L55.1807752,34.8068217 C55.1807752,34.4353488 54.8768992,34.1308527 54.5048062,34.1308527 L51.0635659,34.1308527 L51.0635659,30.4967442 L54.5048062,30.4967442 L54.5048062,30.4967442 Z M31.0127132,44.1122481 L31.0127132,26.6021705 L48.524031,26.6009302 L48.5221705,44.1122481 L31.0127132,44.1122481 Z" id="Fill-5" fill="#FFFFFF"></path>
        </g>
        <g id="compute-engine-logo">
            <g id="Group-3">
                <mask id="mask-4" fill="white">
                    <use xlink:href="#path-3"></use>
                </mask>
                <use id="hexigon" fill="#0E62C2" xlink:href="#path-3"></use>
                <path d="M40.7944186,20.4389125 L38.8564341,24.6442974 L34.7193798,20.4489748 L33.7017054,25.535434 L30.0192248,26.1775303 L29.2551938,29.4986964 L24.4905426,30.6527088 L28.7596899,34.9819849 L24.5364341,36.8894071 L28.7596899,41.1727743 L24.5091473,43.0135342 L52.7696124,71.6720341 L55.9689922,71.6720341 C58.5172093,71.6720341 60.8713178,70.293508 62.1451163,68.0565477 L73.7469767,47.6780085 L46.9060465,20.4584081 L44.9804651,24.6839175 L40.7944186,20.4389125" id="Fill-1" fill="#0751B0" mask="url(#mask-4)"></path>
            </g>
            <path d="M43.3054264,31.5042254 L36.2306977,31.5048542 C35.8164341,31.5048542 35.4772093,31.8488569 35.4772093,32.2683262 L35.4778295,39.4420701 C35.4778295,39.8609106 35.8170543,40.206171 36.2306977,40.206171 L43.3048062,40.206171 C43.7190698,40.206171 44.0582946,39.8609106 44.0582946,39.4420701 L44.0582946,32.2683262 C44.0582946,31.8488569 43.7196899,31.5042254 43.3054264,31.5042254" id="Fill-4" fill="#FFFFFF"></path>
            <path d="M54.5048062,30.9262758 C54.8768992,30.9262758 55.1807752,30.6168621 55.1807752,30.2407861 L55.1807752,29.1238782 C55.1807752,28.7478022 54.8768992,28.4383885 54.5048062,28.4383885 L51.0635659,28.4383885 L51.0635659,25.176338 C51.0635659,24.7574975 50.7237209,24.412866 50.3106977,24.412866 L47.0809302,24.412866 L47.0815504,20.9099509 C47.0815504,20.5351327 46.7776744,20.225719 46.4062016,20.225719 L45.3035659,20.2263479 C44.932093,20.2263479 44.6282171,20.5351327 44.6282171,20.9112086 L44.6288372,24.412866 L40.9947287,24.412866 L40.9947287,20.9099509 C40.9947287,20.5351327 40.6908527,20.225719 40.3193798,20.225719 L39.2167442,20.2263479 C38.8452713,20.2263479 38.5407752,20.5351327 38.5407752,20.9112086 L38.5420155,24.412866 L34.907907,24.4134949 L34.907907,20.9099509 C34.907907,20.5351327 34.604031,20.225719 34.2325581,20.225719 L33.1299225,20.2263479 C32.7590698,20.2263479 32.4545736,20.5351327 32.4545736,20.9112086 L32.4551938,24.4134949 L29.2260465,24.4134949 C28.8117829,24.4134949 28.4725581,24.7574975 28.4725581,25.176338 L28.4725581,28.4383885 L25.0313178,28.4383885 C24.6610853,28.4383885 24.3565891,28.7478022 24.3565891,29.1232493 L24.3572093,30.2420439 C24.3572093,30.6181199 24.6610853,30.9262758 25.031938,30.9262758 L28.4725581,30.9262758 L28.4731783,34.6115689 L25.0313178,34.6109401 C24.6610853,34.6109401 24.3565891,34.9197249 24.3565891,35.2958009 L24.3572093,36.4133377 C24.3572093,36.7906715 24.6610853,37.0981985 25.031938,37.0981985 L28.4731783,37.0981985 L28.4731783,40.7841205 L25.0313178,40.7834916 C24.6610853,40.7834916 24.3565891,41.0922764 24.3565891,41.4683524 L24.3572093,42.5858893 C24.3572093,42.9625942 24.6610853,43.2707501 25.031938,43.2707501 L28.4731783,43.2707501 L28.4731783,46.5340583 C28.4731783,46.9528988 28.8124031,47.2975303 29.2260465,47.2975303 L32.4551938,47.2975303 L32.4551938,50.7985588 C32.4551938,51.1758926 32.7596899,51.4840485 33.1311628,51.4840485 L34.231938,51.4840485 C34.6027907,51.4840485 34.9066667,51.1758926 34.9066667,50.7985588 L34.907907,47.2975303 L38.5407752,47.2975303 L38.5420155,50.7985588 C38.5420155,51.1758926 38.8458915,51.4840485 39.2173643,51.4840485 L40.3187597,51.4840485 C40.6896124,51.4840485 40.9934884,51.1758926 40.9934884,50.7985588 L40.9947287,47.2975303 L44.6282171,47.2975303 L44.6288372,50.7985588 C44.6288372,51.1758926 44.9327132,51.4840485 45.304186,51.4840485 L46.4049612,51.4840485 C46.7770543,51.4840485 47.0809302,51.1758926 47.0809302,50.7985588 L47.0815504,47.2975303 L50.3100775,47.2975303 C50.7237209,47.2975303 51.0629457,46.9528988 51.0629457,46.5340583 L51.0635659,43.2707501 L54.5048062,43.2701212 C54.8768992,43.2701212 55.1807752,42.9625942 55.1807752,42.5858893 L55.1807752,41.4689813 C55.1807752,41.0922764 54.8768992,40.7841205 54.5048062,40.7841205 L51.0635659,40.7841205 L51.0635659,37.0981985 L54.5048062,37.0975696 C54.8768992,37.0975696 55.1807752,36.7900426 55.1807752,36.4133377 L55.1807752,35.2970586 C55.1807752,34.9203538 54.8768992,34.6115689 54.5048062,34.6115689 L51.0635659,34.6115689 L51.0635659,30.9262758 L54.5048062,30.9262758 L54.5048062,30.9262758 Z M31.0127132,44.7335473 L31.0127132,26.976849 L48.524031,26.9755912 L48.5221705,44.7335473 L31.0127132,44.7335473 Z" id="Fill-5" fill="#FFFFFF"></path>
        </g>
    </g>
</svg>