<?xml version="1.0" encoding="UTF-8" standalone="no"?>
<svg width="80px" height="72px" viewBox="0 0 80 72" version="1.1" xmlns="http://www.w3.org/2000/svg" xmlns:xlink="http://www.w3.org/1999/xlink">
    <!-- Generator: Sketch 39.1 (31720) - http://www.bohemiancoding.com/sketch -->
    <title>container-engine-logo</title>
    <desc>Created with Sketch.</desc>
    <defs>
        <path d="M0.037209302,36.5817833 C0.137779271,37.5809245 0.443929142,38.5635287 0.955658915,39.4621946 L17.2347287,68.0565477 C18.4281121,70.1522884 20.5697108,71.4945598 22.9307887,71.6556829 L56.4490562,71.6556829 C58.8101341,71.4945598 60.9517329,70.1522884 62.1451163,68.0565477 L78.424186,39.4621946 C79.6986047,37.2252342 79.6986047,34.4681821 78.424186,32.2305929 L62.1451163,3.63686865 C60.8713178,1.3992794 58.5172093,0.0207533574 55.9689922,0.0207533574 L23.4108527,0.0207533574 C20.8626357,0.0207533574 18.5085271,1.3992794 17.2347287,3.63686865 L0.955658915,32.2305929 C0.443929142,33.1295114 0.137779271,34.1122667 0.037209302,35.1114576 L0.0372093023,36.581784" id="path-1"></path>
    </defs>
    <g id="Page-1" stroke="none" stroke-width="1" fill="none" fill-rule="evenodd">
        <g id="container-engine-logo">
            <g id="Group-3">
                <mask id="mask-2" fill="white">
                    <use xlink:href="#path-1"></use>
                </mask>
                <use id="Clip-2" fill="#0E62C2" xlink:href="#path-1"></use>
                <path d="M39.6899225,18.8666885 L24.496124,27.2384671 L23.8592248,45.6856862 L49.4846512,71.6720341 L55.9689922,71.6720341 C58.5172093,71.6720341 60.8713178,70.293508 62.1451163,68.0565477 L74.9010853,45.6510973 L55.583876,26.0618146 L39.6899225,18.8666885" id="Fill-1" fill="#0751B0" mask="url(#mask-2)"></path>
            </g>
            <path d="M55.2099225,25.7800721 L40.5265116,17.1837799 C40.0086822,16.8806551 39.3711628,16.8806551 38.8533333,17.1837799 L24.1699225,25.7800721 C23.652093,26.0831969 23.3333333,26.6435375 23.3333333,27.2497871 L23.3333333,44.4430003 C23.3333333,45.0498788 23.652093,45.6095906 24.1699225,45.9127154 L38.8533333,54.5096364 C39.3711628,54.8127612 40.0086822,54.8127612 40.5265116,54.5096364 L55.2099225,45.9127154 C55.7277519,45.6095906 56.0465116,45.0498788 56.0465116,44.4430003 L56.0465116,27.2497871 C56.0465116,26.6435375 55.7277519,26.0831969 55.2099225,25.7800721 L55.2099225,25.7800721 Z M53.1950388,42.7959384 L48.0725581,39.7967638 L48.0725581,31.8966525 L40.507907,36.3252932 L40.507907,45.1838323 L47.2545736,41.2331477 L52.3776744,44.2323223 L39.6899225,51.6607665 L27.0021705,44.2323223 L32.1252713,41.2331477 L38.871938,45.1838323 L38.871938,36.3252932 L31.3072868,31.8966525 L31.3072868,39.7967638 L26.1848062,42.7959384 L26.1848062,27.939679 L38.871938,20.5112349 L38.871938,26.509584 L32.1252713,30.4596397 L39.6899225,34.8889093 L47.2545736,30.4596397 L40.507907,26.509584 L40.507907,20.5112349 L53.1950388,27.939679 L53.1950388,42.7959384 L53.1950388,42.7959384 Z" id="Fill-4" fill="#FFFFFF"></path>
        </g>
    </g>
</svg>
