<?xml version="1.0" encoding="UTF-8" standalone="no"?>
<svg width="80px" height="72px" viewBox="0 0 80 72" version="1.1" xmlns="http://www.w3.org/2000/svg" xmlns:xlink="http://www.w3.org/1999/xlink">
    <!-- Generator: Sketch 39.1 (31720) - http://www.bohemiancoding.com/sketch -->
    <title>container-registry</title>
    <desc>Created with Sketch.</desc>
    <defs>
        <path d="M23.59375,0.47 C21.025625,0.47 18.653125,1.84 17.369375,4.06375 L17.369375,4.06375 L0.963125,32.480625 C0.326875,33.5825 0.00625,34.81 0,36.039375 L0,36.039375 L0,36.109375 C0.00625,37.338125 0.326875,38.56625 0.963125,39.6675 L0.963125,39.6675 L17.369375,68.084375 C18.653125,70.30875 21.025625,71.678125 23.59375,71.678125 L23.59375,71.678125 L56.40625,71.678125 C58.974375,71.678125 61.346875,70.30875 62.630625,68.084375 L62.630625,68.084375 L79.036875,39.6675 C79.673125,38.56625 79.99375,37.338125 80,36.10875 L80,36.10875 L80,36.04 C79.99375,34.810625 79.673125,33.5825 79.036875,32.480625 L79.036875,32.480625 L62.630625,4.06375 C61.346875,1.84 58.974375,0.47 56.40625,0.47 L56.40625,0.47 L23.59375,0.47 Z" id="path-1"></path>
    </defs>
    <g id="Page-1" stroke="none" stroke-width="1" fill="none" fill-rule="evenodd">
        <g id="container-registry-copy">
            <g id="Group-3">
                <mask id="mask-2" fill="white">
                    <use xlink:href="#path-1"></use>
                </mask>
                <use id="Clip-2" fill="#0E62C2" xlink:href="#path-1"></use>
                <polygon id="Fill-1" fill="#0851B0" mask="url(#mask-2)" points="78.378875 42.8515625 60.0295 24.5021875 52.343875 22.6365625 51.158875 23.8540625 57.080125 29.7753125 57.142 37.8903125 44.92825 25.6771875 35.000125 25.6578125 28.750125 19.4078125 22.187625 24.9803125 19.94075 47.6165625 44.8245 72.4996875 60.937625 72.4803125"></polygon>
            </g>
            <g id="Group" transform="translate(19.692308, 18.461538)" fill="#FFFFFF">
                <polygon id="Fill-4" points="15.3076923 13.003274 20.3076923 15.893899 25.3076923 13.003274 25.3076923 7.22202404 20.3076923 4.33139904 15.3076923 7.22202404"></polygon>
                <polygon id="Fill-5" points="22.1826923 24.8002115 27.1826923 27.6908365 32.1826923 24.8002115 32.1826923 19.0189615 27.1826923 16.1283365 22.1826923 19.0189615"></polygon>
                <polygon id="Fill-6" points="8.43269231 24.956524 13.4326923 27.847149 18.4326923 24.956524 18.4326923 19.175274 13.4326923 16.284649 8.43269231 19.175274"></polygon>
                <polygon id="Fill-7" points="9.05769231 5.38696154 4.05769231 8.27383654 4.05769231 26.9519615 9.05769231 29.8375865 9.05769231 34.2688365 0.307692308 29.2144615 0.307692308 6.01071154 9.05769231 0.959461538"></polygon>
                <polygon id="Fill-8" points="31.5576923 5.38696154 36.5576923 8.27383654 36.5576923 26.9519615 31.5576923 29.8375865 31.5576923 34.2688365 40.3076923 29.2144615 40.3076923 6.01071154 31.5576923 0.959461538"></polygon>
            </g>
        </g>
    </g>
</svg>