<?xml version="1.0" encoding="UTF-8" standalone="no"?>
<svg width="80px" height="73px" viewBox="0 0 80 73" version="1.1" xmlns="http://www.w3.org/2000/svg" xmlns:xlink="http://www.w3.org/1999/xlink">
    <!-- Generator: Sketch 39.1 (31720) - http://www.bohemiancoding.com/sketch -->
    <title>datastor-logo</title>
    <desc>Created with Sketch.</desc>
    <defs>
        <path d="M17.8546357,68.0562961 L1.5751938,39.4623832 C0.301333333,37.2249198 0.301333333,34.468245 1.5751938,32.2307815 L17.8546357,3.63693154 C19.1284961,1.39946806 21.4827287,0.0211306911 24.0304496,0.0211306911 L56.5893333,0.0211306911 C59.1370543,0.0211306911 61.4912868,1.39946806 62.7651473,3.63693154 L79.0445891,32.2307815 C80.3184496,34.468245 80.3184496,37.2249198 79.0445891,39.4623832 L62.7651473,68.0562332 C61.4912868,70.2936967 59.1370543,71.6720341 56.5893333,71.6720341 L24.0304496,71.6720341 C21.4827287,71.672097 19.1285581,70.2937596 17.8546357,68.0562961 L17.8546357,68.0562961 Z" id="path-1"></path>
    </defs>
    <g id="Page-1" stroke="none" stroke-width="1" fill="none" fill-rule="evenodd">
        <g id="CloudDatastore-logo">
            <g id="BASE" transform="translate(0.000000, 0.341085)">
                <g id="Shape">
                    <mask id="mask-2" fill="white">
                        <use xlink:href="#path-1"></use>
                    </mask>
                    <use id="Mask" fill="#0E62C2" xlink:href="#path-1"></use>
                    <polygon fill="#0751B0" mask="url(#mask-2)" points="75.1356279 49.2696024 53.6511008 27.4824763 47.7517519 27.9593004 47.7776124 31.837474 43.4463256 27.4451831 37.7259535 28.1034419 37.7129922 31.942247 33.3073488 27.4745522 26.9636589 33.9206708 30.904186 37.9167612 27.079938 38.0608398 26.9908837 44.2594274 54.411969 72.0667252 61.123845 71.8701972"></polygon>
                </g>
            </g>
            <g id="shadow" transform="translate(26.666667, 27.007752)"></g>
            <g id="art" transform="translate(26.666667, 27.007752)" fill="#FFFFFF">
                <g id="Group">
                    <path d="M6.10449612,0.195968992 L0.826604651,0.197147287 C0.413953488,0.197147287 0.0763410853,0.535503876 0.0763410853,0.94703876 L0.0763410853,6.24514729 C0.0763410853,6.65786047 0.414697674,6.99615504 0.827286822,6.99615504 L6.10375194,6.99615504 C6.5164031,6.99615504 6.8540155,6.65779845 6.8540155,6.24514729 L6.8540155,0.94703876 C6.8540155,0.53544186 6.51714729,0.195968992 6.10449612,0.195968992" id="Shape"></path>
                    <path d="M16.2814884,10.3684341 L11.0035349,10.3688062 C10.5908837,10.3688062 10.2533333,10.7067287 10.2533333,11.1183256 L10.2540775,16.4179845 C10.2540775,16.8298295 10.5916279,17.1675039 11.0042791,17.1675039 L16.2807442,17.1675039 C16.6933953,17.1675039 17.0316899,16.8298915 17.0316899,16.4179845 L17.0324341,11.1183256 C17.0324341,10.7067287 16.6941395,10.3684341 16.2814884,10.3684341" id="Shape"></path>
                    <path d="M26.459969,10.3684341 L21.1820775,10.3688062 C20.7694264,10.3688062 20.4325581,10.7067287 20.4325581,11.1183256 L20.4325581,16.4179845 C20.4325581,16.8298295 20.7701085,17.1675039 21.1827597,17.1675039 L26.4592248,17.1675039 C26.871876,17.1675039 27.2101705,16.8298915 27.2101705,16.4179845 L27.2109147,11.1183256 C27.2109147,10.7067287 26.8725581,10.3684341 26.459969,10.3684341" id="Shape"></path>
                    <path d="M6.10449612,10.3684341 L0.826604651,10.3696124 C0.413953488,10.3696124 0.0755968992,10.707969 0.0755968992,11.1195039 L0.0763410853,16.4187907 C0.0763410853,16.8306977 0.414697674,17.1683101 0.827286822,17.1683101 L6.10375194,17.1683101 C6.51491473,17.1683101 6.85327132,16.8307597 6.85327132,16.4187907 L6.8540155,11.1191318 C6.8540155,10.707907 6.5155969,10.3684341 6.10449612,10.3684341 L6.10449612,10.3684341 Z M5.34982946,15.6530853 L1.57984496,15.6530853 L1.57984496,11.8831628 L5.34982946,11.8831628 L5.34982946,15.6530853 L5.34982946,15.6530853 Z" id="Shape"></path>
                    <path d="M16.2821705,0.195968992 L11.0042791,0.197147287 C10.5916279,0.197147287 10.2540775,0.535503876 10.2540775,0.94703876 L10.2540775,6.24632558 C10.2540775,6.65786047 10.5924341,6.99621705 11.0050233,6.99621705 L16.2814884,6.99621705 C16.6933333,6.99621705 17.0316899,6.65786047 17.0316899,6.24632558 L17.0316899,0.94703876 C17.0316899,0.53544186 16.6941395,0.195968992 16.2821705,0.195968992 L16.2821705,0.195968992 Z M15.5275039,5.48062016 L11.7575814,5.48062016 L11.7575814,1.71144186 L15.5275039,1.71144186 L15.5275039,5.48062016 L15.5275039,5.48062016 Z" id="Shape"></path>
                    <path d="M26.4607132,0.195968992 L21.1827597,0.197147287 C20.7694264,0.197147287 20.431814,0.535503876 20.431814,0.94703876 L20.4325581,6.24632558 C20.4325581,6.65786047 20.7709147,6.99621705 21.1835039,6.99621705 L26.4591628,6.99621705 C26.871814,6.99621705 27.2094264,6.65786047 27.2094264,6.24632558 L27.2101085,0.94703876 C27.2101085,0.53544186 26.871814,0.195968992 26.4607132,0.195968992 L26.4607132,0.195968992 Z M25.7059225,5.48062016 L21.936,5.48062016 L21.936,1.71144186 L25.7059225,1.71144186 L25.7059225,5.48062016 L25.7059225,5.48062016 Z" id="Shape"></path>
                </g>
            </g>
        </g>
    </g>
</svg>
