<?xml version="1.0" encoding="UTF-8" standalone="no"?>
<svg width="80px" height="72px" viewBox="0 0 80 72" version="1.1" xmlns="http://www.w3.org/2000/svg" xmlns:xlink="http://www.w3.org/1999/xlink">
    <!-- Generator: Sketch 39.1 (31720) - http://www.bohemiancoding.com/sketch -->
    <title>datalab-logo</title>
    <desc>Created with Sketch.</desc>
    <defs>
        <path d="M57.0691012,71.6556829 C59.4296715,71.4945598 61.5713069,70.1522884 62.7652713,68.0565477 L79.0443411,39.4621946 C80.3181395,37.2246053 80.3181395,34.4681821 79.0443411,32.2305929 L62.7652713,3.63686865 C61.4908527,1.3992794 59.1367442,0.021382247 56.5891473,0.021382247 L24.0303876,0.021382247 C21.4827907,0.021382247 19.1286822,1.3992794 17.8548837,3.63686865 L1.5751938,32.2305929 C0.301395349,34.4681821 0.301395349,37.2246053 1.5751938,39.4621946 L17.8548837,68.0565477 C19.0482671,70.1522884 21.1898659,71.4945598 23.5504338,71.6556829 L57.0691012,71.6556829" id="path-1"></path>
    </defs>
    <g id="Page-1" stroke="none" stroke-width="1" fill="none" fill-rule="evenodd">
        <g id="datalab-logo">
            <g id="Group-3">
                <mask id="mask-2" fill="white">
                    <use xlink:href="#path-1"></use>
                </mask>
                <use id="Clip-2" fill="#0E62C2" xlink:href="#path-1"></use>
                <path d="M40.6778295,11.7847625 L38.540155,13.9858762 L43.9044961,19.4264003 L41.4294574,20.0219587 L46.7634109,25.9806878 L44.8682171,26.424055 L38.4607752,19.9263675 L36.2703876,22.0614478 L40.8403101,26.6957353 L36.7144186,26.6447953 L33.9826357,28.264186 L36.6889922,31.0086603 L27.8034109,46.655434 L30.3708527,53.6285621 L48.1637209,71.6720341 L56.5891473,71.6720341 C59.1367442,71.6720341 61.4908527,70.293508 62.7652713,68.0565477 L74.9916279,46.581225 L40.6778295,11.7847625" id="Fill-1" fill="#0751B0" mask="url(#mask-2)"></path>
            </g>
            <path d="M38.8155039,20.914982 C38.8155039,21.7671274 38.1345736,22.4576482 37.2942636,22.4576482 C36.4539535,22.4576482 35.7730233,21.7671274 35.7730233,20.914982 C35.7730233,20.0634654 36.4539535,19.3723158 37.2942636,19.3723158 C38.1345736,19.3723158 38.8155039,20.0634654 38.8155039,20.914982" id="Fill-4" fill="#FFFFFF"></path>
            <path d="M45.315969,18.3761546 C45.315969,19.6540583 44.2939535,20.6904684 43.0337984,20.6904684 C41.7736434,20.6904684 40.7522481,19.6540583 40.7522481,18.3761546 C40.7522481,17.0982509 41.7736434,16.0618408 43.0337984,16.0618408 C44.2939535,16.0618408 45.315969,17.0982509 45.315969,18.3761546" id="Fill-5" fill="#FFFFFF"></path>
            <path d="M41.0970543,12.8482149 C41.0970543,13.7003603 40.416124,14.3908811 39.575814,14.3908811 C38.7355039,14.3908811 38.0545736,13.7003603 38.0545736,12.8482149 C38.0545736,11.9960694 38.7355039,11.3055486 39.575814,11.3055486 C40.416124,11.3055486 41.0970543,11.9960694 41.0970543,12.8482149" id="Fill-6" fill="#FFFFFF"></path>
            <path d="M45.9813953,47.1667213 L44.9072868,45.2800524 L52.2617054,45.2800524 L44.9444961,32.4280642 L44.6896124,32.4299509 L50.9854264,43.3933836 L34.6133333,43.3933836 L32.6511628,46.8390698 C32.5153488,47.0780478 32.5153488,47.3717393 32.6511628,47.6107173 L35.0381395,51.8035244 L50.7615504,51.8035244 L53.3686822,47.225208 L53.335814,47.1667213 L45.9813953,47.1667213" id="Fill-7" fill="#FFFFFF"></path>
            <path d="M53.6595349,46.3686603 L45.3562791,31.7840812 C45.2893023,31.6671078 45.2539535,31.5337832 45.2539535,31.3985719 L45.2539535,28.3000328 L46.4651163,28.3000328 C46.6368992,28.3000328 46.7751938,28.161677 46.7751938,27.9881035 L46.7751938,26.2114903 C46.7751938,26.0372879 46.6368992,25.8970455 46.4651163,25.8970455 L34.1550388,25.8970455 C33.983876,25.8970455 33.8449612,26.0372879 33.8449612,26.2114903 L33.8449612,27.9881035 C33.8449612,28.161677 33.983876,28.3000328 34.1550388,28.3000328 L35.3662016,28.3000328 L35.3662016,31.3985719 C35.3662016,31.5337832 35.3308527,31.6671078 35.263876,31.7840812 L26.9606202,46.3686603 C26.6889922,46.8459876 26.6889922,47.4339993 26.9606202,47.9113266 L29.9944186,53.2399083 C30.2660465,53.7172355 30.7683721,54.0115558 31.3122481,54.0115558 L49.307907,54.0115558 C49.8517829,54.0115558 50.3541085,53.7172355 50.6257364,53.2399083 L53.6595349,47.9113266 C53.9311628,47.4339993 53.9311628,46.8459876 53.6595349,46.3686603 L53.6595349,46.3686603 Z M51.0685271,47.4604127 L49.0009302,51.0922502 C48.8651163,51.3305994 48.6139535,51.4777596 48.3423256,51.4777596 L32.2778295,51.4777596 C32.0062016,51.4777596 31.7550388,51.3305994 31.6192248,51.0922502 L29.5516279,47.4604127 C29.415814,47.2220635 29.415814,46.9277432 29.5516279,46.689394 L37.5962791,32.5595021 C37.7296124,32.3249263 37.8003101,32.058906 37.8003101,31.7884835 L37.8003101,28.3000328 L42.819845,28.3000328 L42.819845,31.7884835 C42.819845,32.058906 42.8899225,32.3249263 43.023876,32.5595021 L51.0685271,46.689394 C51.2043411,46.9277432 51.2043411,47.2220635 51.0685271,47.4604127 L51.0685271,47.4604127 Z" id="Fill-8" fill="#FFFFFF"></path>
            <polyline id="Fill-9" fill="#FFFFFF" points="40.0291473 37.0730429 47.4517829 37.0730429 46.3367442 35.2863675 39.012093 35.2863675 40.0291473 37.0730429"></polyline>
            <polyline id="Fill-10" fill="#FFFFFF" points="41.5503876 39.6200459 42.6139535 41.487848 50.1872868 41.487848 49.0945736 39.6200459 41.5503876 39.6200459"></polyline>
        </g>
    </g>
</svg>