<?xml version="1.0" encoding="UTF-8" standalone="no"?>
<svg width="80px" height="73px" viewBox="0 0 80 73" version="1.1" xmlns="http://www.w3.org/2000/svg" xmlns:xlink="http://www.w3.org/1999/xlink">
    <!-- Generator: Sketch 39.1 (31720) - http://www.bohemiancoding.com/sketch -->
    <title>dataproc-logo</title>
    <desc>Created with Sketch.</desc>
    <defs>
        <path d="M1.5751938,39.4623832 C0.301333333,37.2249198 0.301333333,34.468245 1.5751938,32.2307815 L17.8546357,3.63693154 C19.1285581,1.39946806 21.4827287,0.0211306911 24.0304496,0.0211306911 L56.5893333,0.0211306911 C59.1370543,0.0211306911 61.4912868,1.39946806 62.7651473,3.63693154 L79.0445891,32.2307815 C80.3184496,34.468245 80.3184496,37.2249198 79.0445891,39.4623832 L62.7651473,68.0562961 C61.4912868,70.2937596 59.1370543,71.672097 56.5893333,71.672097 L24.0304496,71.672097 C21.4827287,71.672097 19.1285581,70.2937596 17.8546357,68.0562961 L1.5751938,39.4623832 Z" id="path-1"></path>
    </defs>
    <g id="Page-1" stroke="none" stroke-width="1" fill="none" fill-rule="evenodd">
        <g id="DataProc_128px">
            <g id="BASE" transform="translate(0.000000, 0.341085)">
                <g id="Shape" transform="translate(0.000000, 0.000000)">
                    <mask id="mask-2" fill="white">
                        <use xlink:href="#path-1"></use>
                    </mask>
                    <use id="Mask" fill="#0E62C2" xlink:href="#path-1"></use>
                    <polygon fill="#0851B0" mask="url(#mask-2)" points="74.2377054 48.9223295 45.4586667 19.7378893 35.9689922 20.1244048 32.3549147 36.5576679 35.503876 42.1355414 25.2713178 40.5633174 23.1234109 50.091624 45.6750388 72.9609433 61.1888992 72.2894779"></polygon>
                </g>
            </g>
            <g id="shadow" transform="translate(22.945736, 19.565891)"></g>
            <g id="art" transform="translate(21.085271, 16.465116)" fill="#FFFFFF">
                <g id="Group">
                    <path d="M25.0527752,4.34474419 C25.0527752,4.34474419 25.0528992,4.34499225 25.0530233,4.34511628 C25.7032558,5.47162791 26.0468837,6.75727132 26.0465736,8.06344186 C26.0462636,10.0512868 25.271814,11.919876 23.8659845,13.3252093 C22.460155,14.7305426 20.5911938,15.5043101 18.6032868,15.504 C15.9529922,15.5033798 13.4826667,14.076031 12.1564651,11.7789767 C11.5061085,10.6525271 11.1626047,9.36682171 11.1628527,8.06052713 C11.1635349,3.95714729 14.5025736,0.619348837 18.6061395,0.619968992 C21.2563721,0.620589147 23.7266357,2.04787597 25.0527752,4.34474419 L25.0527752,4.34474419 Z M15.4722481,9.86462016 C16.1168992,10.9812093 17.3169612,11.6749767 18.603969,11.6753488 C20.5962171,11.6755969 22.2173643,10.0550698 22.2177364,8.06275969 C22.2179225,7.42803101 22.0516589,6.80434109 21.7369922,6.25928682 C21.0925271,5.14275969 19.8924651,4.44899225 18.6053333,4.44868217 C16.6130853,4.44843411 14.991938,6.06896124 14.9915659,8.06127132 C14.9913178,8.69618605 15.1576434,9.31968992 15.4722481,9.86462016 L15.4722481,9.86462016 Z" id="Shape"></path>
                    <path d="M11.1627907,26.2968062 C12.5873488,26.8964341 13.8789457,27.8586667 14.8837209,29.1472868 L14.8837209,10.5426357 L11.1649612,8.06703876 L11.1627907,26.2968062 L11.1627907,26.2968062 Z" id="Shape"></path>
                    <path d="M37.288,24.1020775 C37.288,24.1020775 37.288186,24.1023256 37.2882481,24.1024496 C38.6149457,26.4006822 38.6152558,29.2545736 37.2892403,31.5503876 C35.2368992,35.1036279 30.6764031,36.3247132 27.1229767,34.2723721 C25.9928062,33.6195349 25.051907,32.6796279 24.4021705,31.5541705 C23.0753488,29.256 23.0748527,26.4021085 24.4010543,24.1060465 C26.4534574,20.5528682 31.0140775,19.3317829 34.5673798,21.384124 C35.6974884,22.0369612 36.6383256,22.9768062 37.288,24.1020775 L37.288,24.1020775 Z M27.7178915,29.639814 C28.0322481,30.1842481 28.4886822,30.6396899 29.0379535,30.9570233 C30.7631008,31.9534264 32.9774264,31.3605581 33.9737674,29.6354109 C34.6177364,28.5204961 34.6171783,27.1338295 33.9722791,26.0166202 L33.972155,26.0164341 C33.6579225,25.472124 33.2015504,25.0168062 32.6522791,24.6995349 C30.9271318,23.7031318 28.7128062,24.296 27.7164031,26.0210853 C27.0723721,27.136124 27.0729302,28.5226667 27.7178915,29.639814 L27.7178915,29.639814 Z" id="Shape"></path>
                    <path d="M14.1249612,13.8782636 L30.5573333,23.3654574 L34.5660775,21.3833178 L18.4539535,12.0809922 C17.2223876,13.0150078 15.7432558,13.6524031 14.1249612,13.8782636 L14.1249612,13.8782636 Z" id="Shape"></path>
                    <path d="M14.0296434,24.8225116 C14.0296434,24.8225116 14.0295814,24.8223256 14.0296434,24.8225116 L14.0303876,24.823814 C15.023938,26.5454264 15.2876279,28.5509457 14.7727752,30.4708837 C14.2579225,32.3908217 13.0262326,33.9953488 11.3046202,34.9888992 C7.7511938,37.0395039 3.19150388,35.8173023 1.14021705,32.2643721 C0.145984496,30.5413953 -0.117705426,28.535876 0.397147287,26.616 C0.911937984,24.695938 2.14368992,23.0915349 3.86530233,22.0979225 C7.41854264,20.0475659 11.9785426,21.2699535 14.0296434,24.8225116 L14.0296434,24.8225116 Z M4.45562791,30.3493953 C5.45190698,32.0750388 7.66573643,32.6684031 9.39094574,31.6728062 C10.2268527,31.1904496 10.8248062,30.4114109 11.0747907,29.4793178 C11.3247132,28.5471628 11.1967132,27.5734574 10.7142946,26.7376124 L10.7138605,26.7368682 C9.71795349,25.011907 7.50412403,24.4183566 5.77897674,25.4140775 C4.94313178,25.8964961 4.34511628,26.6754729 4.09513178,27.6076279 C3.8452093,28.539845 3.9732093,29.5135504 4.45562791,30.3493953 L4.45562791,30.3493953 Z" id="Shape"></path>
                    <path d="M28.779907,20.6030388 L11.5936744,30.5255194 L11.351938,34.9591318 L26.8809302,25.996031 C26.6877519,24.4626977 28.1667597,22.1173953 28.779907,20.6030388 L28.779907,20.6030388 Z" id="Shape"></path>
                </g>
            </g>
        </g>
    </g>
</svg>