<?xml version="1.0" encoding="UTF-8" standalone="no"?>
<svg width="80px" height="70px" viewBox="0 0 80 70" version="1.1" xmlns="http://www.w3.org/2000/svg" xmlns:xlink="http://www.w3.org/1999/xlink">
    <!-- Generator: Sketch 39.1 (31720) - http://www.bohemiancoding.com/sketch -->
    <title>dataflow-logo</title>
    <desc>Created with Sketch.</desc>
    <defs>
        <path d="M17.0783761,66.4488816 L0.94668196,38.5303947 C-0.315560653,36.3458114 -0.315560653,33.6541886 0.94668196,31.4696053 L17.0783761,3.55111842 C18.3407723,1.36653509 20.6735245,0.0207236842 23.1981634,0.0207236842 L55.4615516,0.0207236842 C57.9861905,0.0207236842 60.3189426,1.36653509 61.5813389,3.55111842 L77.713033,31.4696053 C78.9752756,33.6541886 78.9752756,36.3458114 77.713033,38.5303947 L61.5813389,66.4488816 C60.3189426,68.6334649 57.9861905,69.9792763 55.4615516,69.9792763 L23.1981634,69.9792763 C20.6735245,69.9792763 18.3407723,68.6334649 17.0783761,66.4488816" id="path-1"></path>
    </defs>
    <g id="Page-1" stroke="none" stroke-width="1" fill="none" fill-rule="evenodd">
        <g id="dataflow-logo">
            <g id="Group-3" transform="translate(0.909091, 0.000000)">
                <mask id="mask-2" fill="white">
                    <use xlink:href="#path-1"></use>
                </mask>
                <use id="Clip-2" fill="#0E62C2" xlink:href="#path-1"></use>
                <path d="M49.3671137,17.5511184 L39.4066736,19.9305044 L29.2669447,17.6023904 L34.3111526,22.6425439 L25.8409454,31.4372149 L27.377268,32.9721491 L25.9086973,36.5822149 L28.9811887,39.6523904 L25.848627,42.8416886 L33.645464,50.6322588 L29.2780063,52.5558772 L46.7154209,69.9792763 L55.4615516,69.9792763 C57.9861905,69.9792763 60.3189426,68.6334649 61.5813389,66.4488816 L75.0227786,43.1861623 L49.3671137,17.5511184" id="Fill-1" fill="#0751B0" mask="url(#mask-2)"></path>
            </g>
            <g id="Group" transform="translate(26.000000, 15.000000)" fill="#FFFFFF">
                <path d="M28.2082685,20.0908772 C28.2082685,21.303136 27.2247148,22.2857456 26.0116345,22.2857456 C24.7984006,22.2857456 23.8150005,21.303136 23.8150005,20.0908772 C23.8150005,18.8787719 24.7984006,17.8960088 26.0116345,17.8960088 C27.2247148,17.8960088 28.2082685,18.8787719 28.2082685,20.0908772" id="Fill-7"></path>
                <path d="M4.66289626,20.0908772 C4.66289626,21.303136 3.67949619,22.2857456 2.46626227,22.2857456 C1.25318198,22.2857456 0.269628274,21.303136 0.269628274,20.0908772 C0.269628274,18.8787719 1.25318198,17.8960088 2.46626227,17.8960088 C3.67949619,17.8960088 4.66289626,18.8787719 4.66289626,20.0908772" id="Fill-8"></path>
                <path d="M16.4355824,16.7985746 C16.4355824,18.0108333 15.4521823,18.993443 14.2389484,18.993443 C13.0257145,18.993443 12.0423144,18.0108333 12.0423144,16.7985746 C12.0423144,15.5864693 13.0257145,14.6037061 14.2389484,14.6037061 C15.4521823,14.6037061 16.4355824,15.5864693 16.4355824,16.7985746" id="Fill-9"></path>
                <path d="M16.4355824,23.3831798 C16.4355824,24.5954386 15.4521823,25.5782018 14.2389484,25.5782018 C13.0257145,25.5782018 12.0423144,24.5954386 12.0423144,23.3831798 C12.0423144,22.1710746 13.0257145,21.1883114 14.2389484,21.1883114 C15.4521823,21.1883114 16.4355824,22.1710746 16.4355824,23.3831798" id="Fill-10"></path>
                <polyline id="Fill-11" points="17.5504917 6.48324561 24.2986349 2.59026316 21.0325668 0.706096491 20.9420774 0.706096491 14.2392557 4.57298246 14.2389484 4.57298246 7.53612671 0.706096491 7.44563731 0.706096491 4.17956919 2.59026316 10.9277124 6.48324561 0.750036338 12.3222588 0.750036338 16.4372149 4.22212532 16.4372149 4.22212532 14.2325219 12.5686585 9.35692982 12.5686585 12.9382895 15.9093919 12.9382895 15.9093919 9.35692982 24.2404083 14.2325219 24.2404083 16.4372149 27.7278605 16.4372149 27.7278605 12.3222588 17.5504917 6.48324561"></polyline>
                <polyline id="Fill-12" points="24.2404083 25.9107018 15.9093919 30.7861404 15.9093919 27.2468421 12.5686585 27.2468421 12.5686585 30.7861404 4.22212532 25.9107018 4.22212532 23.7060088 0.750036338 23.7060088 0.750036338 27.8209649 10.9369303 33.6651974 4.17956919 37.5633991 7.44563731 39.4475658 7.53612671 39.4475658 14.239102 35.5806798 20.9420774 39.4475658 21.0325668 39.4475658 24.2986349 37.5633991 17.5412737 33.6651974 27.7278605 27.8209649 27.7278605 23.7060088 24.2404083 23.7060088 24.2404083 25.9107018"></polyline>
            </g>
        </g>
    </g>
</svg>