<?xml version="1.0" encoding="UTF-8" standalone="no"?>
<svg width="80px" height="72px" viewBox="0 0 80 72" version="1.1" xmlns="http://www.w3.org/2000/svg" xmlns:xlink="http://www.w3.org/1999/xlink">
    <!-- Generator: Sketch 39.1 (31720) - http://www.bohemiancoding.com/sketch -->
    <title>debugger-logo</title>
    <desc>Created with Sketch.</desc>
    <defs>
        <path d="M-1.57567995e-05,54.0928106 L31.1987779,54.0928106 C33.7880927,54.0928106 36.1807627,52.7094971 37.4753413,50.4640387 L52.1549902,25.0028682 L52.1549902,11.2748921 L45.7416689,0.151222496 L-1.57567995e-05,0.151222496 L-1.57567995e-05,54.0928106 L-1.57567995e-05,54.0928106 Z" id="path-1"></path>
    </defs>
    <g id="Page-1" stroke="none" stroke-width="1" fill="none" fill-rule="evenodd">
        <g id="Group-3" fill="#0E62C2">
            <path d="M17.3694308,68.381307 L0.962860241,39.648136 C-0.320890386,37.3998047 -0.320890386,34.6296382 0.962860241,32.381307 L17.3694308,3.64813599 C18.6531814,1.39980475 21.0258388,0.0147214721 23.5934963,0.0147214721 L56.4066373,0.0147214721 C58.9742948,0.0147214721 61.346796,1.39980475 62.6305466,3.64813599 L79.0371171,32.381307 C80.321024,34.6296382 80.321024,37.3998047 79.0371171,39.648136 L62.6305466,68.381307 C61.346796,70.6296382 58.9742948,72.0147215 56.4066373,72.0147215 L23.5934963,72.0147215 C21.0258388,72.0147215 18.6531814,70.6296382 17.3694308,68.381307" id="Fill-1"></path>
        </g>
        <g id="Group-6" transform="translate(25.313588, 17.972977)">
            <mask id="mask-2" fill="white">
                <use xlink:href="#path-1"></use>
            </mask>
            <g id="Clip-5"></g>
            <polygon id="Fill-4" fill="#000000" opacity="0.1" mask="url(#mask-2)" points="52.1549902 26.3437666 29.3010132 3.45811008 22.0595034 5.20038763 17.0173276 0.151222496 12.9205597 8.51390224 7.87838393 3.46473711 -1.57567995e-05 11.3540576 6.61783998 17.9810869 4.72702405 20.6634558 13.0781277 29.0261356 12.9205597 33.7597279 4.09675208 24.9236889 0.0349643378 32.8874846 25.8083611 58.6966078 36.0830548 54.7453205"></polygon>
        </g>
        <polygon id="Fill-7" fill="#FFFFFF" points="25.3135879 29.3270185 29.4103557 29.3270185 29.4103557 25.5401446 33.1919875 25.5401446 33.1919875 21.437698 25.3135879 21.437698"></polygon>
        <polygon id="Fill-8" fill="#FFFFFF" points="37.6038914 33.4294652 49.7366269 33.4294652 37.6038914 53.9416985"></polygon>
        <polygon id="Fill-9" fill="#FFFFFF" points="42.3309312 38.6364167 30.0406277 38.6364167 42.3309312 18.1241834"></polygon>
        <polygon id="Fill-10" fill="#FFFFFF" points="54.6212347 21.437698 46.742835 21.437698 46.742835 25.5401446 50.5244668 25.5401446 50.5244668 29.3270185 54.6212347 29.3270185"></polygon>
        <polygon id="Fill-11" fill="#FFFFFF" points="25.3135879 50.7859703 33.1919875 50.7859703 33.1919875 46.6835236 29.4103557 46.6835236 29.4103557 42.8966498 25.3135879 42.8966498"></polygon>
        <polygon id="Fill-12" fill="#FFFFFF" points="54.6212347 42.8966498 50.5244668 42.8966498 50.5244668 46.6835236 46.742835 46.6835236 46.742835 50.7859703 54.6212347 50.7859703"></polygon>
    </g>
</svg>