<?xml version="1.0" encoding="UTF-8" standalone="no"?>
<svg width="80px" height="72px" viewBox="0 0 80 72" version="1.1" xmlns="http://www.w3.org/2000/svg" xmlns:xlink="http://www.w3.org/1999/xlink">
    <!-- Generator: Sketch 39.1 (31720) - http://www.bohemiancoding.com/sketch -->
    <title>monitoring-logo</title>
    <desc>Created with Sketch.</desc>
    <defs>
        <path d="M57.0691082,71.6556829 C59.4297449,71.4945598 61.5718879,70.1522884 62.7652713,68.0565477 L79.0443411,39.4621946 C80.3181395,37.2246053 80.3181395,34.4681821 79.0443411,32.2305929 L62.7652713,3.63686865 C61.4914729,1.3992794 59.1367442,0.021382247 56.5891473,0.021382247 L24.0303876,0.021382247 C21.4827907,0.021382247 19.1286822,1.3992794 17.8548837,3.63686865 L1.5751938,32.2305929 C0.301395349,34.4681821 0.301395349,37.2246053 1.5751938,39.4621946 L17.8548837,68.0565477 C19.0482671,70.1522884 21.1898659,71.4945598 23.5504338,71.6556829 L57.0691082,71.6556829" id="path-1"></path>
    </defs>
    <g id="Page-1" stroke="none" stroke-width="1" fill="none" fill-rule="evenodd">
        <g id="monitoring-logo">
            <g id="Group-3">
                <mask id="mask-2" fill="white">
                    <use xlink:href="#path-1"></use>
                </mask>
                <use id="Clip-2" fill="#0E62C2" xlink:href="#path-1"></use>
                <path d="M60.5227907,23.8783099 L31.2012403,29.4792008 L19.7866667,39.1546675 L23.4815504,42.9022208 L20.0967442,46.0303177 L45.3823256,71.6720341 L56.5891473,71.6720341 C59.1367442,71.6720341 61.4914729,70.293508 62.7652713,68.0565477 L77.8902326,41.4897347 L60.5227907,23.8783099" id="Fill-1" fill="#0751B0" mask="url(#mask-2)"></path>
            </g>
            <path d="M46.6362791,51.7569866 L34.1382946,51.7569866 C33.795969,51.7569866 33.5187597,51.475244 33.5187597,51.128097 L33.5187597,51.1136325 C33.5187597,50.7658565 33.795969,50.4847429 34.1382946,50.4847429 L46.6362791,50.4847429 C46.9786047,50.4847429 47.2564341,50.7658565 47.2564341,51.1136325 L47.2564341,51.128097 C47.2564341,51.475244 46.9786047,51.7569866 46.6362791,51.7569866" id="Fill-4" fill="#FFFFFF"></path>
            <polygon id="Fill-5" fill="#FFFFFF" points="37.9863566 45.5982706 42.7888372 45.5982706 42.7888372 51.1205503 37.9863566 51.1205503"></polygon>
            <path d="M53.7444961,41.4872191 C53.4337984,41.4872191 53.1367442,41.3595545 52.9203101,41.1325254 L44.4967442,32.280904 L38.8328682,38.3207599 C38.4223256,38.759096 37.7482171,38.8037471 37.2843411,38.4238978 L33.0058915,34.9209826 L28.4706977,41.0249853 C28.2542636,41.3161612 27.9156589,41.4872191 27.5565891,41.4872191 L19.7804651,41.4872191 L19.7804651,45.0668588 C19.7804651,45.9177465 20.4675969,46.6145562 21.3066667,46.6145562 L59.467907,46.6145562 C60.3075969,46.6145562 60.9941085,45.9177465 60.9941085,45.0668588 L60.9941085,41.4872191 L53.7444961,41.4872191" id="Fill-6" fill="#FFFFFF"></path>
            <path d="M26.9854264,39.1653587 L31.8889922,32.5645332 C32.0762791,32.3136063 32.3553488,32.150095 32.6635659,32.1111038 C32.9711628,32.0739993 33.2818605,32.1626728 33.5224806,32.3601441 L37.9007752,35.9448149 L43.6607752,29.8030789 C43.875969,29.5735342 44.1742636,29.4433541 44.4862016,29.4420963 L44.4905426,29.4420963 C44.8012403,29.4420963 45.0982946,29.5697609 45.3141085,29.79679 L54.2306977,39.1653587 L60.9941085,39.1653587 L60.9941085,24.9436489 C60.9941085,24.0921323 60.3075969,23.3953226 59.467907,23.3953226 L21.3066667,23.3953226 C20.4675969,23.3953226 19.7804651,24.0921323 19.7804651,24.9436489 L19.7804651,39.1653587 L26.9854264,39.1653587" id="Fill-7" fill="#FFFFFF"></path>
        </g>
    </g>
</svg>