<?xml version="1.0" encoding="UTF-8" standalone="no"?>
<svg width="80px" height="72px" viewBox="0 0 80 72" version="1.1" xmlns="http://www.w3.org/2000/svg" xmlns:xlink="http://www.w3.org/1999/xlink">
    <!-- Generator: Sketch 39.1 (31720) - http://www.bohemiancoding.com/sketch -->
    <title>DNS-logo</title>
    <desc>Created with Sketch.</desc>
    <defs>
        <linearGradient x1="49.9607797%" y1="-0.0583195698%" x2="49.9607797%" y2="99.815101%" id="linearGradient-1">
            <stop stop-color="#4387FD" offset="0%"></stop>
            <stop stop-color="#4683EA" offset="100%"></stop>
        </linearGradient>
        <path d="M1.53846154,39.6 C0.246153846,37.3263158 0.246153846,34.6105263 1.53846154,32.3368421 L17.7230769,3.66315789 C19.0153846,1.38947368 21.3538462,0.0631578947 23.8769231,0.0631578947 L56.1846154,0.0631578947 C58.7076923,0.0631578947 61.0461538,1.45263158 62.3384615,3.66315789 L78.5230769,32.4 C79.8153846,34.6736842 79.8153846,37.3894737 78.5230769,39.6631579 L62.3384615,68.4 C61.0461538,70.6736842 58.7076923,72 56.1846154,72 L23.8153846,72 C21.2923077,72 18.9538462,70.6105263 17.7230769,68.3368421 L1.53846154,39.6 Z" id="path-2"></path>
    </defs>
    <g id="Page-1" stroke="none" stroke-width="1" fill="none" fill-rule="evenodd">
        <g id="Layer_1">
            <path d="M17.7230769,68.3368421 L1.53846154,39.6 C0.246153846,37.3263158 0.246153846,34.6105263 1.53846154,32.3368421 L17.7230769,3.66315789 C19.0153846,1.38947368 21.3538462,0.0631578947 23.8769231,0.0631578947 L56.1846154,0.0631578947 C58.7076923,0.0631578947 61.0461538,1.45263158 62.3384615,3.66315789 L78.5230769,32.4 C79.8153846,34.6736842 79.8153846,37.3894737 78.5230769,39.6631579 L62.3384615,68.4 C61.0461538,70.6736842 58.7076923,72 56.1846154,72 L23.8153846,72 C21.2923077,72 18.9538462,70.6105263 17.7230769,68.3368421 L17.7230769,68.3368421 Z" id="Shape" fill="url(#linearGradient-1)"></path>
            <g id="Clipped">
                <mask id="mask-3" fill="white">
                    <use xlink:href="#path-2"></use>
                </mask>
                <use id="SVGID_2_" fill="#0E62C2" xlink:href="#path-2"></use>
                <polygon id="Shape" fill="#0851B0" mask="url(#mask-3)" points="77.0461538 45.2842105 53.3538462 21.0315789 27.5692308 22.0421053 26.6461538 28.8631579 31.0153846 33.2842105 27.2 34.0421053 26.6461538 40.8631579 33.4769231 47.9368421 26.4615385 49.2 48.7384615 72.0631579 60.9230769 72.6315789"></polygon>
            </g>
            <rect id="Rectangle-path" fill="#FFFFFF" x="38.7692308" y="27.7894737" width="2.46153846" height="20.2105263"></rect>
            <rect id="Rectangle-path" fill="#FFFFFF" x="26.4615385" y="46.7368421" width="27.0769231" height="2.52631579"></rect>
            <path d="M41.9076923,50.5263158 L38.0923077,50.5263158 C37.7846154,50.5263158 37.5384615,50.2736842 37.5384615,49.9578947 L37.5384615,46.0421053 C37.5384615,45.7263158 37.7846154,45.4736842 38.0923077,45.4736842 L41.9076923,45.4736842 C42.2153846,45.4736842 42.4615385,45.7263158 42.4615385,46.0421053 L42.4615385,49.9578947 C42.4615385,50.2736842 42.2153846,50.5263158 41.9076923,50.5263158 L41.9076923,50.5263158 Z" id="Shape" fill="#FFFFFF"></path>
            <path d="M26.4615385,33.4736842 L26.4615385,40.4210526 C26.4615385,40.7368421 26.7076923,41.0526316 27.0769231,41.0526316 L52.9230769,41.0526316 C53.2307692,41.0526316 53.5384615,40.8 53.5384615,40.4210526 L53.5384615,33.4736842 C53.5384615,33.1578947 53.2923077,32.8421053 52.9230769,32.8421053 L27.0769231,32.8421053 C26.7076923,32.8421053 26.4615385,33.0947368 26.4615385,33.4736842 L26.4615385,33.4736842 Z M31.3846154,37.8947368 L28.9230769,37.8947368 L28.9230769,35.3684211 L31.3846154,35.3684211 L31.3846154,37.8947368 L31.3846154,37.8947368 Z" id="Shape" fill="#FFFFFF"></path>
            <path d="M26.4615385,21.4736842 L26.4615385,28.4210526 C26.4615385,28.7368421 26.7076923,29.0526316 27.0769231,29.0526316 L52.9230769,29.0526316 C53.2307692,29.0526316 53.5384615,28.8 53.5384615,28.4210526 L53.5384615,21.4736842 C53.5384615,21.1578947 53.2923077,20.8421053 52.9230769,20.8421053 L27.0769231,20.8421053 C26.7076923,20.8421053 26.4615385,21.0947368 26.4615385,21.4736842 L26.4615385,21.4736842 Z M31.3846154,25.8947368 L28.9230769,25.8947368 L28.9230769,23.3684211 L31.3846154,23.3684211 L31.3846154,25.8947368 L31.3846154,25.8947368 Z" id="Shape" fill="#FFFFFF"></path>
        </g>
    </g>
</svg>