<?xml version="1.0" encoding="UTF-8" standalone="no"?>
<svg width="80px" height="72px" viewBox="0 0 80 72" version="1.1" xmlns="http://www.w3.org/2000/svg" xmlns:xlink="http://www.w3.org/1999/xlink">
    <!-- Generator: Sketch 39.1 (31720) - http://www.bohemiancoding.com/sketch -->
    <title>endpoints-logo</title>
    <desc>Created with Sketch.</desc>
    <defs>
        <path d="M17.8546357,68.0562961 L1.5751938,39.4623832 C0.301333333,37.2249198 0.301333333,34.468245 1.5751938,32.2307815 L17.8546357,3.63693154 C19.1284961,1.39946806 21.4827287,0.0211306911 24.0304496,0.0211306911 L56.5893333,0.0211306911 C59.1370543,0.0211306911 61.4912868,1.39946806 62.7651473,3.63693154 L79.0445891,32.2307815 C80.3184496,34.468245 80.3184496,37.2249198 79.0445891,39.4623832 L62.7651473,68.0562332 C61.4912868,70.2936967 59.1370543,71.6720341 56.5893333,71.6720341 L24.0304496,71.6720341 C21.4827287,71.672097 19.1285581,70.2937596 17.8546357,68.0562961 L17.8546357,68.0562961 Z" id="path-1"></path>
    </defs>
    <g id="Page-1" stroke="none" stroke-width="1" fill="none" fill-rule="evenodd">
        <g id="BASE" transform="translate(0.000000, 0.341085)">
            <g id="Shape">
                <mask id="mask-2" fill="white">
                    <use xlink:href="#path-1"></use>
                </mask>
                <use id="Mask" fill="#0E62C2" xlink:href="#path-1"></use>
                <polygon fill="#0751B0" mask="url(#mask-2)" points="74.5153488 49.4267619 60.6006202 35.3159882 53.0230698 39.2662326 49.6313798 35.8267095 36.3231628 35.4495644 30.1216124 29.1606682 22.4029147 35.8466453 27.644093 44.1488687 55.4391318 72.3353239 61.123845 71.8701972"></polygon>
            </g>
        </g>
        <g id="shadow" transform="translate(22.325581, 28.868217)"></g>
        <g id="art" transform="translate(19.224806, 27.007752)" fill="#FFFFFF">
            <g id="Group">
                <polygon id="Shape" points="30.4133333 8.67386047 28.6406202 6.90046512 13.5338915 6.90046512 11.7597519 8.67386047 13.5338915 10.448 13.5338915 10.4450233 28.6406202 10.4450233 28.6406202 10.448"></polygon>
                <path d="M10.9016434,14.3244031 L5.25786047,8.68055814 L10.8968682,3.04117829 C11.1586977,2.78083721 11.1586977,2.35088372 10.8968682,2.08899225 L9.33767442,0.52979845 C9.07547287,0.268341085 8.64626357,0.268341085 8.38474419,0.52979845 L0.709767442,8.20669767 C0.447503876,8.46772093 0.447503876,8.89699225 0.709767442,9.15888372 L2.26784496,10.7173333 C2.27007752,10.7195659 2.27305426,10.7203101 2.27522481,10.7225426 L8.3892093,16.8357829 C8.65178295,17.0983566 9.08062016,17.0976124 9.34356589,16.8357829 L10.9016434,15.2773333 C11.1631628,15.0154419 11.1631628,14.5862946 10.9016434,14.3244031" id="Shape"></path>
                <path d="M31.2691473,3.04117829 L36.9122481,8.68539535 L31.2728682,14.3244031 C31.012155,14.5851163 31.0113488,15.0147597 31.2728682,15.2773333 L32.8331163,16.8357829 C33.0953798,17.0983566 33.5242171,17.0983566 33.7867907,16.8357829 L41.4606512,9.16037209 C41.7225426,8.89854264 41.7225426,8.46970543 41.4606512,8.20744186 L39.9030078,6.64936434 C39.900031,6.64713178 39.8970543,6.6463876 39.8947597,6.64415504 L33.7815814,0.530542636 C33.5182636,0.268341085 33.0900465,0.268341085 32.827907,0.530542636 L31.2690853,2.08899225 C31.0077519,2.35088372 31.0077519,2.78003101 31.2691473,3.04117829" id="Shape"></path>
            </g>
        </g>
    </g>
</svg>