<?xml version="1.0" encoding="UTF-8" standalone="no"?>
<svg width="80px" height="72px" viewBox="0 0 80 72" version="1.1" xmlns="http://www.w3.org/2000/svg" xmlns:xlink="http://www.w3.org/1999/xlink">
    <!-- Generator: Sketch 39.1 (31720) - http://www.bohemiancoding.com/sketch -->
    <title>Errors_hex</title>
    <desc>Created with Sketch.</desc>
    <defs></defs>
    <g id="Custom-Icons" stroke="none" stroke-width="1" fill="none" fill-rule="evenodd">
        <g id="Sprites-Copy" transform="translate(-543.000000, -1076.000000)">
            <g id="Errors_128px" transform="translate(543.000000, 1076.000000)">
                <g id="Page-1">
                    <g>
                        <g id="Errors_128px">
                            <path d="M1.5751938,39.6311368 C0.301333333,37.3841053 0.301333333,34.6156421 1.5751938,32.3686105 L17.8546357,3.65248421 C19.1284961,1.40545263 21.4827287,0.0212210526 24.0304496,0.0212210526 L56.5893333,0.0212210526 C59.1370543,0.0212210526 61.4912868,1.40545263 62.7651473,3.65248421 L79.0445891,32.3686105 C80.3184496,34.6156421 80.3184496,37.3841053 79.0445891,39.6311368 L62.7651473,68.3472632 C61.4912868,70.5942947 59.1370543,71.9785263 56.5893333,71.9785263 L24.0304496,71.9785263 C21.4827287,71.9785895 19.1285581,70.5943579 17.8546357,68.3473263 L1.5751938,39.6311368 Z" id="Shape" fill="#0E62C2"></path>
                            <path d="M76.3578915,44.2911158 L58.9145426,26.5265053 L53.1340155,24.1580842 L52.3482791,24.8085474 L48.0051473,20.3854105 L43.5820775,20.3854105 L40.3097674,17.0527579 L32.2034109,20.0545895 L23.4970543,28.9213263 L25.336124,30.7942737 L23.4970543,33.0133895 L23.4970543,43.2037895 L31.0073178,54.9478105 L47.7307287,71.9792842 L56.6212093,71.9792842 C59.2362171,71.9792211 61.5185736,70.3168421 62.739845,68.1870947 L76.3578915,44.2911158 Z" id="Shape" fill="#000000" opacity="0.0799999982"></path>
                            <g id="Group" transform="translate(21.705426, 17.052632)" fill="#FFFFFF">
                                <polygon id="Shape" points="11.627907 32.8421053 4.96124031 26.0526316 4.96124031 11.8421053 11.627907 5.05263158 13.9534884 5.05263158 18.6046512 0 9.30232558 0 0 9.47368421 0 28.4210526 9.30232558 37.8947368 18.6046512 37.8947368 13.9534884 32.8421053 11.627907 32.8421053"></polygon>
                                <polygon id="Shape" points="27.9069767 0 23.255814 0 18.6046512 5.05263158 25.5813953 5.05263158 32.248062 11.8421053 32.248062 26.0526316 25.5813953 32.8421053 18.6046512 32.8421053 23.255814 37.8947368 27.9069767 37.8947368 37.2093023 28.4210526 37.2093023 9.47368421"></polygon>
                            </g>
                            <g id="Group" transform="translate(31.007752, 26.526316)" fill="#FFFFFF">
                                <polygon id="Shape" points="9.30232558 18.9473684 4.65116279 14.2105263 9.3075969 9.46831579 4.65643411 4.73147368 9.30232558 0 4.65116279 0 0 4.73684211 0 14.2105263 4.65116279 18.9473684 9.30232558 18.9473684"></polygon>
                                <polygon id="Shape" points="13.9534884 0 9.30232558 4.73684211 13.9587597 9.47905263 9.3075969 14.2158947 13.9534884 18.9473684 18.6046512 14.2105263 18.6046512 4.73684211"></polygon>
                            </g>
                        </g>
                    </g>
                </g>
            </g>
        </g>
    </g>
</svg>
