<?xml version="1.0" encoding="UTF-8" standalone="no"?>
<svg width="80px" height="72px" viewBox="0 0 80 72" version="1.1" xmlns="http://www.w3.org/2000/svg" xmlns:xlink="http://www.w3.org/1999/xlink">
    <!-- Generator: Sketch 39.1 (31720) - http://www.bohemiancoding.com/sketch -->
    <title>Cloud Function-logo</title>
    <desc>Created with Sketch.</desc>
    <defs></defs>
    <g id="Page-1" stroke="none" stroke-width="1" fill="none" fill-rule="evenodd">
        <g id="Cloud-Function_">
            <path d="M17.8546357,68.3473263 L1.5751938,39.6311368 C0.301334258,37.3841034 0.301334258,34.615644 1.5751938,32.3686105 L17.8546357,3.65248421 C19.1284339,1.4053243 21.4826536,0.0209667555 24.0304496,0.0209052632 L56.5891473,0.0209052632 C59.1369433,0.0209667555 61.491163,1.4053243 62.7649612,3.65248421 L79.0445891,32.3684211 C80.3184487,34.6154545 80.3184487,37.3839139 79.0445891,39.6309474 L62.7651473,68.3470737 C61.491349,70.5942336 59.1371293,71.9785911 56.5893333,71.9786526 L24.0304496,71.9786526 C21.4827048,71.9786432 19.128497,70.594389 17.8546357,68.3473263 L17.8546357,68.3473263 Z" id="Shape" fill="#0E62C2"></path>
            <path d="M58.9495194,26.7003789 L56.627907,29.0647579 L57.1364341,43.9648421 L54.9951008,47.1280421 L53.7524341,45.8627368 L54.8922171,45.8627368 L54.8922171,40.6786105 L49.4175504,35.1031579 L45.4809922,37.1065895 L45.5937984,37.5536842 L31.6534574,23.3566105 L24.9411473,26.8047158 L24.1252713,33.7881474 L26.4468837,46.5695368 L29.8108527,49.9263158 L28.3701705,52.3029474 L47.6902946,71.9789684 L56.5902016,71.9789684 C59.1379975,71.9789069 61.4922172,70.5945494 62.7660155,68.3473895 L76.3373023,44.4082105 L58.9495194,26.7003789 Z" id="Shape" fill="#0851B0"></path>
            <polygon id="Shape" fill="#FFFFFF" points="28.2722481 52.1450526 31.5553488 48.8014737 26.6356589 43.7911579 26.6356589 28.2088421 31.5553488 23.1985263 28.2722481 19.8549474 21.7054264 26.5427368 21.7054264 45.4572632"></polygon>
            <ellipse id="Oval" fill="#FFFFFF" cx="33.3511318" cy="36" rx="2.32688372" ry="2.36974737"></ellipse>
            <ellipse id="Oval" fill="#FFFFFF" cx="40.3106977" cy="36" rx="2.32688372" ry="2.36974737"></ellipse>
            <ellipse id="Oval" fill="#FFFFFF" cx="47.2703256" cy="36" rx="2.32688372" ry="2.36974737"></ellipse>
            <polygon id="Shape" fill="#FFFFFF" points="52.3168992 19.8549474 49.0337984 23.1985263 53.9534884 28.2088421 53.9534884 43.7911579 49.0337984 48.8014737 52.3168992 52.1450526 58.8837209 45.4572632 58.8837209 26.5427368"></polygon>
        </g>
    </g>
</svg>