<?xml version="1.0" encoding="UTF-8" standalone="no"?>
<svg width="80px" height="73px" viewBox="0 0 80 73" version="1.1" xmlns="http://www.w3.org/2000/svg" xmlns:xlink="http://www.w3.org/1999/xlink">
    <!-- Generator: Sketch 39.1 (31720) - http://www.bohemiancoding.com/sketch -->
    <title>gcp-blue-hex</title>
    <desc>Created with Sketch.</desc>
    <defs>
        <path d="M0.951063088,39.5991437 C-0.314962451,37.3525628 -0.314962451,34.588511 0.951063088,32.3419301 L17.1623657,3.64753866 C18.4283913,1.40095775 20.7751703,0.0189318615 23.3133971,0.0189318615 L55.7360024,0.0189318615 C58.2742292,0.0189318615 60.6148325,1.40095775 61.8870338,3.64753866 L78.0983364,32.3419301 C79.364362,34.588511 79.364362,37.3525628 78.0983364,39.5991437 L61.8870338,68.2935352 C60.6210082,70.5401161 58.2742292,71.922142 55.7360024,71.922142 L23.3133971,71.922142 C20.7751703,71.922142 18.4283913,70.5338055 17.1623657,68.2935352 L0.951063088,39.5991437 Z" id="path-1"></path>
    </defs>
    <g id="Page-1" stroke="none" stroke-width="1" fill="none" fill-rule="evenodd">
        <g id="BASE" transform="translate(0.000000, 0.509065)">
            <g id="Shape">
                <mask id="mask-2" fill="white">
                    <use xlink:href="#path-1"></use>
                </mask>
                <use id="Mask" fill="#0E62C2" xlink:href="#path-1"></use>
                <polygon fill="#0851B0" mask="url(#mask-2)" points="49 19.4909347 40 20.4909347 35 21.4909347 31 20.4909347 23 33.4498294 30 50.4909347 52 72.4909347 65.4582812 70.870882 78 49.4909347"></polygon>
            </g>
        </g>
        <g id="Group-4" transform="translate(21.000000, 19.500000)" fill="#FFFFFF">
            <path d="M22.327876,16.261037 C22.327876,14.2141563 20.658359,12.5549593 18.5987258,12.5549593 C16.5390023,12.5549593 14.8693951,14.2141563 14.8693951,16.261037 C14.8693951,18.3078281 16.5390023,19.967025 18.5987258,19.967025 C20.658359,19.967025 22.327876,18.3078281 22.327876,16.261037" id="Fill-1"></path>
            <path d="M32.2852264,7.31277221 C32.269686,7.28601136 28.9825976,1.63805583 28.9825976,1.63805583 C28.3774715,0.596622292 27.2799169,0.0138957859 26.1509256,0.012952672 L11.0473301,0.012952672 C9.83707802,0.012952672 8.78056895,0.666176943 8.2153022,1.63734849 L3.96803138,8.94990007 L7.74232874,15.4472476 L12.9348347,6.50959283 L30.8692718,6.51053594 C31.4332336,6.51088961 31.9817737,6.80184025 32.284396,7.32184968 L24.7404278,7.32184968 L29.9267651,16.2487765 L24.2549983,26.0103591 L20.9572333,31.6846039 C20.6747779,32.1698361 20.1471165,32.4963892 19.5425836,32.4968608 L23.3110681,26.0103591 L12.9345975,26.0103591 L7.71148523,17.0189469 L7.27030432,16.2596223 L3.96791275,10.5734707 C3.68759264,10.0900069 3.66623944,9.47580396 3.963998,8.95685553 L0.663267239,14.635698 C0.0583784327,15.6772495 0.0993054062,16.9132002 0.662911352,17.8854328 L8.21470906,30.8839002 C8.81983512,31.9253338 9.91750842,32.5079424 11.0463811,32.5091213 L19.5425836,32.5079424 C19.6045079,32.5079424 19.6651272,32.5024016 19.7253907,32.4956819 L26.1497393,32.4968608 C27.3599914,32.4968608 28.4167377,31.8434008 28.9820045,30.8723471 L36.5338022,17.8738796 C37.1388096,16.8324461 37.0978826,15.5963775 36.5341581,14.6241449 L32.2852264,7.31277221 Z" id="Fill-2"></path>
        </g>
    </g>
</svg>