<?xml version="1.0" encoding="UTF-8" standalone="no"?>
<svg width="80px" height="72px" viewBox="0 0 80 72" version="1.1" xmlns="http://www.w3.org/2000/svg" xmlns:xlink="http://www.w3.org/1999/xlink">
    <!-- Generator: Sketch 39.1 (31720) - http://www.bohemiancoding.com/sketch -->
    <title>genomics-logo</title>
    <desc>Created with Sketch.</desc>
    <defs>
        <path d="M56.8900645,71.2125 C59.2695883,71.0523734 61.4279183,69.7184038 62.630625,67.635625 L79.036875,39.218125 C80.320625,36.995 80.320625,34.255 79.036875,32.03125 L62.630625,3.614375 C61.346875,1.390625 58.974375,0.020625 56.40625,0.020625 L23.59375,0.020625 C21.025625,0.020625 18.653125,1.390625 17.369375,3.614375 L0.963125,32.03125 C-0.320625,34.255 -0.320625,36.995 0.963125,39.218125 L17.369375,67.635625 C18.5720817,69.7184038 20.7304117,71.0523734 23.1099355,71.2125 L56.8900645,71.2125" id="path-1"></path>
    </defs>
    <g id="Page-1" stroke="none" stroke-width="1" fill="none" fill-rule="evenodd">
        <g id="genomics-logo">
            <g id="Group-3">
                <mask id="mask-2" fill="white">
                    <use xlink:href="#path-1"></use>
                </mask>
                <use id="Clip-2" fill="#0E62C2" xlink:href="#path-1"></use>
                <path d="M55.013125,18.586875 L51.71875,22.304375 L49.12125,20.26 L40.078125,20.228125 L25.41,21.549375 L31.354375,27.49375 L30.470625,30.12375 L42.395,42.048125 L35.88875,42.54875 L33.674375,40.809375 L30.1075,44.329375 L37.16125,51.383125 L30.83,50.9725 L28.505625,49.120625 L25.104375,52.78625 L43.546875,71.22875 L56.40625,71.22875 C58.974375,71.22875 61.346875,69.85875 62.630625,67.635625 L77.795,41.369375 L55.013125,18.586875" id="Fill-1" fill="#0751B0" mask="url(#mask-2)"></path>
            </g>
            <polyline id="Fill-4" fill="#FFFFFF" points="33.09 29.869375 43.043125 29.869375 44.1975 28.715625 43.043125 27.563125 33.09 27.563125 33.09 29.869375"></polyline>
            <path d="M33.69,28.714375 C33.69,29.775625 32.829375,30.63625 31.768125,30.63625 C30.70625,30.63625 29.84625,29.775625 29.84625,28.714375 C29.84625,27.653125 30.70625,26.7925 31.768125,26.7925 C32.829375,26.7925 33.69,27.653125 33.69,28.714375" id="Fill-5" fill="#FFFFFF"></path>
            <path d="M50.730625,28.714375 C50.730625,30.094375 49.611875,31.213125 48.231875,31.213125 C46.851875,31.213125 45.73375,30.094375 45.73375,28.714375 C45.73375,27.335 46.851875,26.21625 48.231875,26.21625 C49.611875,26.21625 50.730625,27.335 50.730625,28.714375" id="Fill-6" fill="#FFFFFF"></path>
            <polyline id="Fill-7" fill="#FFFFFF" points="35.87625 42.53625 37.03 43.69 46.83875 43.69 46.83875 41.38375 37.03 41.38375 35.87625 42.53625"></polyline>
            <path d="M34.3625,42.535 C34.3625,43.915 33.24375,45.03375 31.86375,45.03375 C30.484375,45.03375 29.365625,43.915 29.365625,42.535 C29.365625,41.155625 30.484375,40.036875 31.86375,40.036875 C33.24375,40.036875 34.3625,41.155625 34.3625,42.535" id="Fill-8" fill="#FFFFFF"></path>
            <path d="M50.105625,42.535 C50.105625,43.596875 49.245625,44.456875 48.18375,44.456875 C47.1225,44.456875 46.261875,43.596875 46.261875,42.535 C46.261875,41.47375 47.1225,40.613125 48.18375,40.613125 C49.245625,40.613125 50.105625,41.47375 50.105625,42.535" id="Fill-9" fill="#FFFFFF"></path>
            <polyline id="Fill-10" fill="#FFFFFF" points="28.151875 21.42 47.966875 21.42 49.120625 20.266875 47.966875 19.115625 28.151875 19.11375 28.151875 21.42"></polyline>
            <path d="M28.771875,20.266875 C28.771875,21.328125 27.91125,22.18875 26.85,22.18875 C25.78875,22.18875 24.928125,21.328125 24.928125,20.266875 C24.928125,19.205 25.78875,18.345 26.85,18.345 C27.91125,18.345 28.771875,19.205 28.771875,20.266875" id="Fill-11" fill="#FFFFFF"></path>
            <path d="M55.654375,20.266875 C55.654375,21.64625 54.535625,22.765 53.155625,22.765 C51.775625,22.765 50.6575,21.64625 50.6575,20.266875 C50.6575,18.886875 51.775625,17.768125 53.155625,17.768125 C54.535625,17.768125 55.654375,18.886875 55.654375,20.266875" id="Fill-12" fill="#FFFFFF"></path>
            <polyline id="Fill-13" fill="#FFFFFF" points="30.826875 50.983125 31.979375 52.13625 51.81875 52.13625 51.81875 49.831875 31.979375 49.83 30.826875 50.983125"></polyline>
            <path d="M29.3325,50.983125 C29.3325,52.363125 28.21375,53.481875 26.834375,53.481875 C25.454375,53.481875 24.335625,52.363125 24.335625,50.983125 C24.335625,49.603125 25.454375,48.485 26.834375,48.485 C28.21375,48.485 29.3325,49.603125 29.3325,50.983125" id="Fill-14" fill="#FFFFFF"></path>
            <path d="M55.085625,50.983125 C55.085625,52.044375 54.225,52.905 53.16375,52.905 C52.1025,52.905 51.241875,52.044375 51.241875,50.983125 C51.241875,49.921875 52.1025,49.06125 53.16375,49.06125 C54.225,49.06125 55.085625,49.921875 55.085625,50.983125" id="Fill-15" fill="#FFFFFF"></path>
            <path d="M42.498125,35.625 C42.498125,37.005 41.38,38.123125 40,38.123125 C38.62,38.123125 37.50125,37.005 37.50125,35.625 C37.50125,34.245 38.62,33.12625 40,33.12625 C41.38,33.12625 42.498125,34.245 42.498125,35.625" id="Fill-16" fill="#FFFFFF"></path>
        </g>
    </g>
</svg>