<?xml version="1.0" encoding="UTF-8" standalone="no"?>
<svg width="80px" height="72px" viewBox="0 0 80 72" version="1.1" xmlns="http://www.w3.org/2000/svg" xmlns:xlink="http://www.w3.org/1999/xlink">
    <!-- Generator: Sketch 39.1 (31720) - http://www.bohemiancoding.com/sketch -->
    <title>IAM-logo</title>
    <desc>Created with Sketch.</desc>
    <defs></defs>
    <g id="Page-1" stroke="none" stroke-width="1" fill="none" fill-rule="evenodd">
        <g id="Layer_1">
            <path d="M17.7230769,68.0556522 L1.53846154,39.5686957 C0.246153846,37.3147826 0.246153846,34.6226087 1.53846154,32.3686957 L17.7230769,3.88173913 C19.0153846,1.62782609 21.3538462,0.250434783 23.8769231,0.250434783 L56.1846154,0.250434783 C58.7076923,0.250434783 61.0461538,1.62782609 62.3384615,3.88173913 L78.5230769,32.3686957 C79.8153846,34.6226087 79.8153846,37.3147826 78.5230769,39.5686957 L62.3384615,68.0556522 C61.0461538,70.3095652 58.7076923,71.6869565 56.1846154,71.6869565 L23.8153846,71.6869565 C21.2923077,71.6869565 18.9538462,70.3095652 17.7230769,68.0556522 L17.7230769,68.0556522 Z" id="Shape" fill="#0E62C2"></path>
            <path d="M55.3846154,23.9165217 L31.3846154,23.4156522 L29.5384615,45.0782609 L31.2,50.2747826 L52.1846154,71.6243478 L56.1230769,71.6243478 C58.6461538,71.6243478 60.9846154,70.2469565 62.2769231,68.0556522 L75.6307692,44.5147826 L55.3846154,23.9165217 L55.3846154,23.9165217 Z" id="Shape" fill="#0851B0"></path>
            <path d="M40,17.0295652 L24.6153846,23.9791304 L24.6153846,34.4347826 C24.6153846,44.0765217 31.2,53.0921739 40,55.2834783 C48.8,53.0921739 55.3846154,44.0765217 55.3846154,34.4347826 L55.3846154,23.9791304 L40,17.0295652 L40,17.0295652 Z M40,24.4173913 C42.7076923,24.4173913 44.9230769,26.6713043 44.9230769,29.426087 C44.9230769,32.1808696 42.7076923,34.4347826 40,34.4347826 C37.2923077,34.4347826 35.0769231,32.1808696 35.0769231,29.426087 C35.0769231,26.6713043 37.2923077,24.4173913 40,24.4173913 L40,24.4173913 Z M49.2307692,45.1408696 C49.2307692,45.266087 49.1692308,45.3913043 49.1076923,45.5165217 C48.9846154,45.7043478 48.8615385,45.8295652 48.7384615,46.0173913 C46.4615385,49.1478261 43.3230769,51.4017391 39.9384615,52.4034783 C36.5538462,51.4017391 33.4769231,49.1478261 31.1384615,46.0173913 C31.0153846,45.8295652 30.8923077,45.7043478 30.7692308,45.5165217 C30.7076923,45.3913043 30.6461538,45.266087 30.6461538,45.1408696 L30.6461538,42.386087 C30.6461538,38.5669565 36.8,36.626087 39.8769231,36.626087 C42.9538462,36.626087 49.1076923,38.5669565 49.1076923,42.386087 L49.1076923,45.1408696 L49.2307692,45.1408696 Z" id="Shape" fill="#FFFFFF"></path>
        </g>
    </g>
</svg>