<?xml version="1.0" encoding="UTF-8" standalone="no"?>
<svg width="80px" height="72px" viewBox="0 0 80 72" version="1.1" xmlns="http://www.w3.org/2000/svg" xmlns:xlink="http://www.w3.org/1999/xlink">
    <!-- Generator: Sketch 39.1 (31720) - http://www.bohemiancoding.com/sketch -->
    <title>interconnect-logo</title>
    <desc>Created with Sketch.</desc>
    <defs>
        <linearGradient x1="49.9607797%" y1="-0.000143258999%" x2="49.9607797%" y2="99.8733099%" id="linearGradient-1">
            <stop stop-color="#4387FD" offset="0%"></stop>
            <stop stop-color="#4683EA" offset="100%"></stop>
        </linearGradient>
        <path d="M1.53846154,39.6 C0.246153846,37.3263158 0.246153846,34.6105263 1.53846154,32.3368421 L17.7230769,3.6 C19.0153846,1.32631579 21.3538462,0 23.8769231,0 L56.1846154,0 C58.7076923,0 61.0461538,1.38947368 62.3384615,3.6 L78.5230769,32.3368421 C79.8153846,34.6105263 79.8153846,37.3263158 78.5230769,39.6 L62.3384615,68.3368421 C61.0461538,70.6105263 58.7076923,71.9368421 56.1846154,71.9368421 L23.8153846,71.9368421 C21.2923077,71.9368421 18.9538462,70.5473684 17.7230769,68.3368421 L1.53846154,39.6 Z" id="path-2"></path>
    </defs>
    <g id="Page-1" stroke="none" stroke-width="1" fill="none" fill-rule="evenodd">
        <g id="Layer_1">
            <path d="M17.7230769,68.3368421 L1.53846154,39.6 C0.246153846,37.3263158 0.246153846,34.6105263 1.53846154,32.3368421 L17.7230769,3.6 C19.0153846,1.32631579 21.3538462,0 23.8769231,0 L56.1846154,0 C58.7076923,0 61.0461538,1.38947368 62.3384615,3.6 L78.5230769,32.3368421 C79.8153846,34.6105263 79.8153846,37.3263158 78.5230769,39.6 L62.3384615,68.3368421 C61.0461538,70.6105263 58.7076923,71.9368421 56.1846154,71.9368421 L23.8153846,71.9368421 C21.2923077,71.9368421 18.9538462,70.5473684 17.7230769,68.3368421 L17.7230769,68.3368421 Z" id="Shape" fill="url(#linearGradient-1)"></path>
            <g id="Clipped">
                <mask id="mask-3" fill="white">
                    <use xlink:href="#path-2"></use>
                </mask>
                <use id="SVGID_2_" fill="#0E62C2" xlink:href="#path-2"></use>
                <polygon id="Shape" fill="#0851B0" mask="url(#mask-3)" points="75.9384615 46.8 50.2769231 20.4 31.4461538 23.9368421 36.4923077 29.1157895 26.9538462 35.0526316 20.9846154 37.8315789 32.5538462 49.7684211 31.5076923 49.7052632 31.8769231 50.0210526 31.5076923 51.6 53.1692308 73.8315789 62.1538462 72.6315789"></polygon>
            </g>
            <rect id="Rectangle-path" fill="#FFFFFF" x="49.5384615" y="34.1052632" width="8.30769231" height="3.78947368"></rect>
            <rect id="Rectangle-path" fill="#FFFFFF" x="46.7692308" y="24" width="3.69230769" height="24"></rect>
            <rect id="Rectangle-path" fill="#FFFFFF" x="20.9230769" y="34.1052632" width="7.38461538" height="3.78947368"></rect>
            <path d="M50.4615385,24 L31.3846154,24 L31.3846154,20.8421053 C31.3846154,20.4631579 31.6923077,20.2105263 32,20.2105263 L49.8461538,20.2105263 C50.2153846,20.2105263 50.4615385,20.5263158 50.4615385,20.8421053 L50.4615385,24 L50.4615385,24 Z" id="Shape" fill="#FFFFFF"></path>
            <path d="M49.8461538,51.7894737 L32,51.7894737 C31.6307692,51.7894737 31.3846154,51.4736842 31.3846154,51.1578947 L31.3846154,48 L50.4615385,48 L50.4615385,51.1578947 C50.4615385,51.4736842 50.1538462,51.7894737 49.8461538,51.7894737 L49.8461538,51.7894737 Z" id="Shape" fill="#FFFFFF"></path>
            <path d="M28.2461538,43.5789474 C27.9384615,43.5789474 27.6923077,43.3263158 27.6923077,43.0105263 L27.6923077,28.9894737 C27.6923077,28.6736842 27.9384615,28.4210526 28.2461538,28.4210526 L41.9076923,28.4210526 C42.2153846,28.4210526 42.4615385,28.6736842 42.4615385,28.9894737 L42.4615385,43.0105263 C42.4615385,43.3263158 42.2153846,43.5789474 41.9076923,43.5789474 L28.2461538,43.5789474 Z" id="Shape" fill="#FFFFFF"></path>
        </g>
    </g>
</svg>