<?xml version="1.0" encoding="UTF-8" standalone="no"?>
<svg width="80px" height="72px" viewBox="0 0 80 72" version="1.1" xmlns="http://www.w3.org/2000/svg" xmlns:xlink="http://www.w3.org/1999/xlink">
    <!-- Generator: Sketch 39 (31667) - http://www.bohemiancoding.com/sketch -->
    <title>jobs-api_512px</title>
    <desc>Created with Sketch.</desc>
    <defs>
        <path d="M17.4348494,68.0562961 L1.15540756,39.4623832 C-0.118452909,37.2249198 -0.118452909,34.468245 1.15540756,32.2307815 L17.4348494,3.63693154 C18.7087099,1.39946806 21.0629424,0.0211306911 23.6106634,0.0211306911 L56.1695471,0.0211306911 C58.717268,0.0211306911 61.0715006,1.39946806 62.345361,3.63693154 L78.6248029,32.2307815 C79.8986634,34.468245 79.8986634,37.2249198 78.6248029,39.4623832 L62.345361,68.0562332 C61.0715006,70.2936967 58.717268,71.6720341 56.1695471,71.6720341 L23.6106634,71.6720341 C21.0629424,71.672097 18.7087719,70.2937596 17.4348494,68.0562961 L17.4348494,68.0562961 Z" id="path-1"></path>
    </defs>
    <g id="Custom-Icons" stroke="none" stroke-width="1" fill="none" fill-rule="evenodd">
        <g id="Sprites-Copy" transform="translate(-628.000000, -127.000000)">
            <g id="jobs-api_512px" transform="translate(628.000000, 127.000000)">
                <g id="Clipped">
                    <mask id="mask-2" fill="white">
                        <use xlink:href="#path-1"></use>
                    </mask>
                    <use id="Mask" fill="#0E62C2" xlink:href="#path-1"></use>
                    <polygon id="Shape" fill="#0751B0" mask="url(#mask-2)" points="75.4497598 50.1974211 51.0205078 25.8157895 40.5 23.0057368 31.0502109 26.5103684 27.4012559 36 30.3354492 46.5658421 56.2412109 72.4211053 61.7387695 72.1776316"></polygon>
                </g>
                <g id="Group" transform="translate(25.787109, 21.315789)" fill="#FFFFFF">
                    <path d="M14.7128906,0.0342 C6.60630276,0.034008156 0.0344590253,6.59273024 0.0342668051,14.6835158 C0.0340745849,22.7743013 6.60560667,29.3333345 14.7121945,29.3335263 C22.8187824,29.3337182 29.3906261,22.7749961 29.3908184,14.6842105 C29.3909931,6.5934322 22.8194713,0.0344092843 14.7128906,0.0342 M14.7128906,25.7993526 C10.2081983,25.7993079 6.14710199,23.0909733 4.42331215,18.9372593 C2.69952232,14.7835453 3.652516,10.0024696 6.83790725,6.82347284 C10.0232985,3.64447608 14.8137677,2.69361855 18.975494,4.41429008 C23.1372203,6.13496161 25.8506082,10.1882993 25.8503906,14.6842105 C25.850462,17.6322635 24.6770524,20.4595829 22.5883318,22.5441104 C20.4996113,24.6286379 17.6667015,25.7995955 14.7128906,25.7993526" id="Shape"></path>
                    <path d="M25.275607,23.7074526 L23.754927,25.2264 C23.4866598,25.4946115 23.4866598,25.9289728 23.754927,26.1971842 L29.5225857,31.9521158 C29.7913535,32.2197817 30.2264983,32.2197817 30.495266,31.9521158 L32.0159461,30.4355053 C32.2826356,30.1667982 32.2826356,29.7338229 32.0159461,29.4651158 L26.2474805,23.7074526 C25.9785629,23.44088 25.544493,23.44088 25.2755754,23.7074526" id="Shape"></path>
                    <rect id="Rectangle-path" x="7.75195312" y="10.8947368" width="13.921875" height="9.47368421" rx="0.75"></rect>
                    <path d="M16.7695312,9.31578947 L16.7695312,10.8947368 L12.65625,10.8947368 L12.65625,9.31578947 L16.7695312,9.31578947 L16.7695312,9.31578947 Z M17.2564646,7.73684211 L12.1693166,7.73684211 C11.8788773,7.73683792 11.6003324,7.85198772 11.3949609,8.05695898 C11.1895893,8.26193024 11.0742146,8.53993213 11.0742188,8.82980526 L11.0742188,11.3807368 C11.0742187,11.6706072 11.1895953,11.9486051 11.3949664,12.1535729 C11.6003376,12.3585408 11.87888,12.4736884 12.1693166,12.4736842 L17.2564805,12.4736842 C17.8612801,12.4736755 18.3515625,11.9843418 18.3515625,11.3807211 L18.3515625,8.82980526 C18.3515625,8.53993341 18.2361865,8.26193396 18.0308158,8.0569636 C17.8254451,7.85199325 17.5469027,7.73684211 17.2564646,7.73684211 L17.2564646,7.73684211 L17.2564646,7.73684211 Z" id="Shape"></path>
                </g>
            </g>
        </g>
    </g>
</svg>