<?xml version="1.0" encoding="UTF-8" standalone="no"?>
<svg width="80px" height="72px" viewBox="0 0 80 72" version="1.1" xmlns="http://www.w3.org/2000/svg" xmlns:xlink="http://www.w3.org/1999/xlink">
    <!-- Generator: Sketch 39.1 (31720) - http://www.bohemiancoding.com/sketch -->
    <title>Cloud-Launcher-logo</title>
    <desc>Created with Sketch.</desc>
    <defs>
        <linearGradient x1="50%" y1="0.000438854029%" x2="50%" y2="99.8448212%" id="linearGradient-1">
            <stop stop-color="#4387FD" offset="0%"></stop>
            <stop stop-color="#4683EA" offset="100%"></stop>
        </linearGradient>
        <path d="M0.955410853,39.6311368 C-0.318448688,37.3841034 -0.318448688,34.615644 0.955410853,32.3686105 L17.2344806,3.65248421 C18.5082695,1.40531476 20.8624952,0.0209537274 23.4102946,0.0209052632 L55.9689922,0.0209052632 C58.5167917,0.0209537274 60.8710173,1.40531476 62.1448062,3.65248421 L78.423876,32.3686105 C79.6977355,34.615644 79.6977355,37.3841034 78.423876,39.6311368 L62.1448062,68.3472632 C60.8710173,70.5944326 58.5167917,71.9787936 55.9689922,71.9788421 L23.4108527,71.9788421 C20.8629775,71.9788969 18.5086397,70.5945496 17.2347907,68.3473263 L0.955410853,39.6311368 Z" id="path-2"></path>
    </defs>
    <g id="Page-1" stroke="none" stroke-width="1" fill="none" fill-rule="evenodd">
        <g id="Cloud-Launcher">
            <path d="M17.8546357,68.3473263 L1.5751938,39.6311368 C0.301334258,37.3841034 0.301334258,34.615644 1.5751938,32.3686105 L17.8546357,3.65248421 C19.1284339,1.4053243 21.4826536,0.0209667555 24.0304496,0.0209052632 L56.5891473,0.0209052632 C59.1369433,0.0209667555 61.491163,1.4053243 62.7649612,3.65248421 L79.0445891,32.3684211 C80.3184487,34.6154545 80.3184487,37.3839139 79.0445891,39.6309474 L62.7651473,68.3470737 C61.491349,70.5942336 59.1371293,71.9785911 56.5893333,71.9786526 L24.0304496,71.9786526 C21.4827048,71.9786432 19.128497,70.594389 17.8546357,68.3473263 L17.8546357,68.3473263 Z" id="Shape" fill="url(#linearGradient-1)"></path>
            <g id="Clipped" transform="translate(0.620155, 0.000000)">
                <mask id="mask-3" fill="white">
                    <use xlink:href="#path-2"></use>
                </mask>
                <use id="Shape" fill="#0E62C2" xlink:href="#path-2"></use>
                <polygon id="Shape" fill="#0751B0" mask="url(#mask-3)" points="73.0493023 52.9736842 47.1379845 26.5856842 33.7469767 27.3682105 34.0527132 41.736 29.7116279 37.3149474 28.1655814 53.0526316 47.2607752 72.5002105 60.7751938 72.6315789"></polygon>
            </g>
            <rect id="Rectangle-path" fill="#FFFFFF" x="37.2093023" y="49.2631579" width="6.20155039" height="1.89473684"></rect>
            <polygon id="Shape" fill="#FFFFFF" points="51.7854264 53.0526316 56.0390698 40.6964211 50.2883721 37.3149474 46.7423256 48.6442105 48.7429457 53.0526316"></polygon>
            <polygon id="Shape" fill="#FFFFFF" points="28.8347287 53.0526316 24.5810853 40.6964211 30.3317829 37.3149474 33.8778295 48.6442105 31.8772093 53.0526316"></polygon>
            <path d="M40.3100775,18.9473684 L32.8682171,26.5263158 L32.8682171,36.5182105 L35.9689922,47.3684211 L44.6635659,47.3684211 L47.751938,36.5182105 L47.751938,26.5263158 L40.3100775,18.9473684 Z M40.3100775,35.3684211 C38.2550645,35.3684211 36.5891473,33.6718159 36.5891473,31.5789474 C36.5891473,29.4860788 38.2550645,27.7894737 40.3100775,27.7894737 C42.3650905,27.7894737 44.0310078,29.4860788 44.0310078,31.5789474 C44.0310078,33.6718159 42.3650905,35.3684211 40.3100775,35.3684211 L40.3100775,35.3684211 Z" id="Shape" fill="#FFFFFF"></path>
        </g>
    </g>
</svg>