<?xml version="1.0" encoding="UTF-8" standalone="no"?>
<svg width="80px" height="72px" viewBox="0 0 80 72" version="1.1" xmlns="http://www.w3.org/2000/svg" xmlns:xlink="http://www.w3.org/1999/xlink">
    <!-- Generator: Sketch 39.1 (31720) - http://www.bohemiancoding.com/sketch -->
    <title>Load-Balancing</title>
    <desc>Created with Sketch.</desc>
    <defs>
        <linearGradient x1="50%" y1="1.55913058e-15%" x2="50%" y2="99.8449301%" id="linearGradient-1">
            <stop stop-color="#4387FD" offset="0%"></stop>
            <stop stop-color="#4683EA" offset="100%"></stop>
        </linearGradient>
        <path d="M0.962859375,39.6312632 C-0.320954984,37.3842248 -0.320954984,34.6157594 0.962859375,32.3687211 L17.3694219,3.65257895 C18.6532385,1.4055432 21.0258255,0.0213136576 23.5934531,0.0213157895 L56.4065469,0.0213157895 C58.9741745,0.0213136576 61.3467615,1.4055432 62.6305781,3.65257895 L79.0371406,32.3687368 C80.320955,34.6157752 80.320955,37.3842406 79.0371406,39.6312789 L62.6305781,68.3474211 C61.3467655,70.5944629 58.9741777,71.9786989 56.4065469,71.9787 L23.5934531,71.9787 C21.0258223,71.9786989 18.6532345,70.5944629 17.3694219,68.3474211 L0.962859375,39.6312632 Z" id="path-2"></path>
    </defs>
    <g id="Page-1" stroke="none" stroke-width="1" fill="none" fill-rule="evenodd">
        <g id="Load-Balancing">
            <path d="M17.3694219,68.3474211 L0.962859375,39.6312632 C-0.320954984,37.3842248 -0.320954984,34.6157594 0.962859375,32.3687211 L17.3694219,3.65257895 C18.6532385,1.4055432 21.0258255,0.0213136576 23.5934531,0.0213157895 L56.4065469,0.0213157895 C58.9741745,0.0213136576 61.3467615,1.4055432 62.6305781,3.65257895 L79.0371406,32.3687368 C80.320955,34.6157752 80.320955,37.3842406 79.0371406,39.6312789 L62.6305781,68.3474211 C61.3467655,70.5944629 58.9741777,71.9786989 56.4065469,71.9787 L23.5934531,71.9787 C21.0258223,71.9786989 18.6532345,70.5944629 17.3694219,68.3474211 L17.3694219,68.3474211 Z" id="Shape" fill="url(#linearGradient-1)"></path>
            <g id="Clipped">
                <mask id="mask-3" fill="white">
                    <use xlink:href="#path-2"></use>
                </mask>
                <use id="Shape" fill="#0E62C2" xlink:href="#path-2"></use>
                <polygon id="Shape" fill="#0851B0" mask="url(#mask-3)" points="49.2692187 22.2516316 34.0104687 27.3685263 30.6232812 29.4754737 35.649375 34.5543158 28.4375 35.2105263 28.59375 42.0505263 24.7917187 47.2105263 49.49875 72.1776316 61.25 72.6315789 75.3825 48.6399474"></polygon>
            </g>
            <rect id="Rectangle-path" fill="#FFFFFF" x="38.90625" y="28.8947368" width="2.1875" height="13.7368421"></rect>
            <path d="M28.0846406,33.9473684 L29.6875,33.9473684 L29.6875,43.4210526 L27.5,43.4210526 L27.5,34.5381632 C27.5,34.2118762 27.7617525,33.9473684 28.0846406,33.9473684 L28.0846406,33.9473684 Z" id="Shape" fill="#FFFFFF"></path>
            <path d="M50.3125,33.9473684 L51.9153594,33.9473684 C52.2382475,33.9473684 52.5,34.2118762 52.5,34.5381632 L52.5,43.4210526 L50.3125,43.4210526 L50.3125,33.9473684 L50.3125,33.9473684 Z" id="Shape" fill="#FFFFFF"></path>
            <path d="M28.0810156,33.9473684 L51.9189844,33.9473684 C52.0730793,33.9473684 52.2208629,34.0092267 52.3298245,34.1193353 C52.438786,34.2294438 52.5,34.378783 52.5,34.5345 L52.5,36.1578947 L27.5,36.1578947 L27.5,34.5345 C27.5,34.2102362 27.7601296,33.9473684 28.0810156,33.9473684 L28.0810156,33.9473684 Z" id="Shape" fill="#FFFFFF"></path>
            <rect id="Rectangle-path" fill="#FFFFFF" x="30.46875" y="22.1052632" width="19.0625" height="7.57894737" rx="0.5"></rect>
            <rect id="Rectangle-path" fill="#FFFFFF" x="35.9375" y="40.7368421" width="8.125" height="6.63157895" rx="0.5"></rect>
            <path d="M24.53125,41.2352884 C24.53125,40.9600041 24.7485741,40.7368421 25.0395051,40.7368421 L32.1479949,40.7368421 C32.4286964,40.7368421 32.65625,40.9574866 32.65625,41.2352884 L32.65625,46.8699748 C32.65625,47.1452591 32.4389259,47.3684211 32.1479949,47.3684211 L25.0395051,47.3684211 C24.7588036,47.3684211 24.53125,47.1477766 24.53125,46.8699748 L24.53125,41.2352884 Z" id="Rectangle-path" fill="#FFFFFF"></path>
            <rect id="Rectangle-path" fill="#FFFFFF" x="47.34375" y="40.7368421" width="8.125" height="6.63157895" rx="0.5"></rect>
        </g>
    </g>
</svg>