<?xml version="1.0" encoding="UTF-8" standalone="no"?>
<svg width="80px" height="72px" viewBox="0 0 80 72" version="1.1" xmlns="http://www.w3.org/2000/svg" xmlns:xlink="http://www.w3.org/1999/xlink">
    <!-- Generator: Sketch 39.1 (31720) - http://www.bohemiancoding.com/sketch -->
    <title>Logs_hex</title>
    <desc>Created with Sketch.</desc>
    <defs></defs>
    <g id="Custom-Icons" stroke="none" stroke-width="1" fill="none" fill-rule="evenodd">
        <g id="Sprites-Copy" transform="translate(-724.000000, -975.000000)">
            <g id="Logs_128px" transform="translate(724.000000, 975.000000)">
                <g id="Page-1">
                    <g>
                        <g id="Logs_128px">
                            <path d="M1.5751938,39.6311368 C0.301333333,37.3841053 0.301333333,34.6156421 1.5751938,32.3686105 L17.8546357,3.65248421 C19.1284961,1.40545263 21.4827287,0.0212210526 24.0304496,0.0212210526 L56.5893333,0.0212210526 C59.1370543,0.0212210526 61.4912868,1.40545263 62.7651473,3.65248421 L79.0445891,32.3686105 C80.3184496,34.6156421 80.3184496,37.3841053 79.0445891,39.6311368 L62.7651473,68.3472632 C61.4912868,70.5942947 59.1370543,71.9785263 56.5893333,71.9785263 L24.0304496,71.9785263 C21.4827287,71.9785895 19.1285581,70.5943579 17.8546357,68.3473263 L1.5751938,39.6311368 Z" id="Shape" fill="#0E62C2"></path>
                            <path d="M58.9147287,19.5789474 L48,24.6315789 L37.8294574,24.6315789 L31.0077519,17.6842105 L26.8097984,24.6315789 L26.6666667,24.6315789 L21.7054264,27.1578947 L26.4496124,31.9894737 L25.4263566,51.7894737 L45.2502946,71.9785895 L56.5893333,71.9785895 C59.1370543,71.9785895 61.4912868,70.5943579 62.7651473,68.3473263 L78.8834109,39.9155368 L58.9147287,19.5789474 L58.9147287,19.5789474 L58.9147287,19.5789474 Z" id="Shape" fill="#000000" opacity="0.0800000057"></path>
                            <rect id="Rectangle-path" fill="#FFFFFF" x="35.9689922" y="19.5789474" width="22.9457364" height="6.94736842"></rect>
                            <rect id="Rectangle-path" fill="#FFFFFF" x="26.6666667" y="36" width="9.92248062" height="1.89473684"></rect>
                            <rect id="Rectangle-path" fill="#FFFFFF" x="35.9689922" y="33.4736842" width="22.9457364" height="6.94736842"></rect>
                            <rect id="Rectangle-path" fill="#FFFFFF" x="26.6666667" y="49.8947368" width="9.92248062" height="1.89473684"></rect>
                            <rect id="Rectangle-path" fill="#FFFFFF" x="25.4263566" y="27.1578947" width="1.86046512" height="24.6315789"></rect>
                            <g id="Group" transform="translate(21.705426, 17.684211)" fill="#FFFFFF">
                                <rect id="Rectangle-path" x="0" y="0" width="9.30232558" height="9.47368421"></rect>
                                <rect id="Rectangle-path" x="14.2635659" y="29.6842105" width="22.9457364" height="6.94736842"></rect>
                            </g>
                        </g>
                    </g>
                </g>
            </g>
        </g>
    </g>
</svg>