<?xml version="1.0" encoding="UTF-8" standalone="no"?>
<svg width="80px" height="72px" viewBox="0 0 80 72" version="1.1" xmlns="http://www.w3.org/2000/svg" xmlns:xlink="http://www.w3.org/1999/xlink">
    <!-- Generator: Sketch 39.1 (31720) - http://www.bohemiancoding.com/sketch -->
    <title>Machine-Learning</title>
    <desc>Created with Sketch.</desc>
    <defs>
        <linearGradient x1="50%" y1="1.55913058e-15%" x2="50%" y2="99.8449301%" id="linearGradient-1">
            <stop stop-color="#4387FD" offset="0%"></stop>
            <stop stop-color="#4683EA" offset="100%"></stop>
        </linearGradient>
        <path d="M0.962859375,39.6312474 C-0.320954984,37.384209 -0.320954984,34.6157436 0.962859375,32.3687053 L17.3694219,3.65256316 C18.6532345,1.40552134 21.0258223,0.0212853355 23.5934531,0.0212842105 L56.4065469,0.0212842105 C58.9741777,0.0212853355 61.3467655,1.40552134 62.6305781,3.65256316 L79.0371406,32.3687053 C80.320955,34.6157436 80.320955,37.384209 79.0371406,39.6312474 L62.6305781,68.3473895 C61.3467655,70.5944313 58.9741777,71.9786673 56.4065469,71.9786684 L23.5934531,71.9786684 C21.0258223,71.9786673 18.6532345,70.5944313 17.3694219,68.3473895 L0.962859375,39.6312474 Z" id="path-2"></path>
    </defs>
    <g id="Page-1" stroke="none" stroke-width="1" fill="none" fill-rule="evenodd">
        <g id="Machine-Learning">
            <path d="M17.3694219,68.3474211 L0.962859375,39.6312632 C-0.320954984,37.3842248 -0.320954984,34.6157594 0.962859375,32.3687211 L17.3694219,3.65257895 C18.6532385,1.4055432 21.0258255,0.0213136576 23.5934531,0.0213157895 L56.4065469,0.0213157895 C58.9741745,0.0213136576 61.3467615,1.4055432 62.6305781,3.65257895 L79.0371406,32.3687368 C80.320955,34.6157752 80.320955,37.3842406 79.0371406,39.6312789 L62.6305781,68.3474211 C61.3467655,70.5944629 58.9741777,71.9786989 56.4065469,71.9787 L23.5934531,71.9787 C21.0258223,71.9786989 18.6532345,70.5944629 17.3694219,68.3474211 L17.3694219,68.3474211 Z" id="Shape" fill="url(#linearGradient-1)"></path>
            <g id="Clipped">
                <mask id="mask-3" fill="white">
                    <use xlink:href="#path-2"></use>
                </mask>
                <use id="Shape" fill="#0E62C2" xlink:href="#path-2"></use>
                <polygon id="Shape" fill="#0851B0" mask="url(#mask-3)" points="50.15625 17.5263158 42.5195312 21.4539474 38.6651562 17.559 25.3125 25.4210526 27.96875 28.1052632 20.78125 38.6842105 24.0625 42 29.733125 54.375 47.701875 72.5328947 61.25 72.6315789 79.609375 47.2894737"></polygon>
            </g>
            <polygon id="Shape" fill="#FFFFFF" points="49.9503125 42.1578947 51.9348437 38.6842105 59.1701563 38.6842105 60.703125 36 56.1040625 27.9473684 48.5876563 27.9473684 46.5048437 24.3157895 44.375 24.3157895 44.375 21.7894737 47.945625 21.7894737 50.0284375 25.4210526 54.66125 25.4210526 50.1523438 17.5263158 41.25 17.5263158 41.25 28.1052632 44.8307812 28.1052632 46.2890625 30.6315789 41.25 30.6315789 41.25 35.8421053 45.9973437 35.8421053 48.1635938 32.0526316 53.9001562 32.0526316 55.3440625 34.5789474 49.6064062 34.5789474 47.4401563 38.3684211 41.25 38.3684211 41.25 48.1578947 48.9682812 48.1578947 47.5242187 50.6842105 41.25 50.6842105 41.25 54.4736842 50.1523438 54.4736842 57.7273437 41.2105263 53.3776563 41.2105263 51.393125 44.6842105 44.375 44.6842105 44.375 42.1578947"></polygon>
            <polygon id="Shape" fill="#FFFFFF" points="29.8934375 42.1578947 27.9089062 38.6842105 20.6735938 38.6842105 19.140625 36 23.7396875 27.9473684 31.2560937 27.9473684 33.3389062 24.3157895 35.46875 24.3157895 35.46875 21.7894737 31.898125 21.7894737 29.8153125 25.4210526 25.1825 25.4210526 29.6914062 17.5263158 38.59375 17.5263158 38.59375 28.1052632 35.0129687 28.1052632 33.5546875 30.6315789 38.59375 30.6315789 38.59375 35.8421053 33.8464062 35.8421053 31.6801562 32.0526316 25.9435937 32.0526316 24.4996875 34.5789474 30.2373438 34.5789474 32.4035937 38.3684211 38.59375 38.3684211 38.59375 48.1578947 30.8754687 48.1578947 32.3195312 50.6842105 38.59375 50.6842105 38.59375 54.4736842 29.6914062 54.4736842 22.1164062 41.2105263 26.4660937 41.2105263 28.450625 44.6842105 35.46875 44.6842105 35.46875 42.1578947"></polygon>
        </g>
    </g>
</svg>