<?xml version="1.0" encoding="UTF-8" standalone="no"?>
<svg width="80px" height="72px" viewBox="0 0 80 72" version="1.1" xmlns="http://www.w3.org/2000/svg" xmlns:xlink="http://www.w3.org/1999/xlink">
    <!-- Generator: Sketch 39.1 (31720) - http://www.bohemiancoding.com/sketch -->
    <title>natural-language-logo</title>
    <desc>Created with Sketch.</desc>
    <defs></defs>
    <g id="Page-1" stroke="none" stroke-width="1" fill="none" fill-rule="evenodd">
        <g id="shadow">
            <g id="Layer_9">
                <path d="M17.8043417,68.1548016 L1.5707567,39.5195015 C0.30048452,37.2787995 0.30048452,34.5181347 1.5707567,32.2774327 L17.8043417,3.64219568 C19.0746139,1.40149367 21.4222149,0.0211612759 23.9627592,0.0211612759 L56.4299292,0.0211612759 C58.9704736,0.0211612759 61.3180746,1.40149367 62.5883468,3.64219568 L78.8219317,32.2774327 C80.0922039,34.5181347 80.0922039,37.2787995 78.8219317,39.5195015 L62.5883468,68.1547386 C61.3180746,70.3954406 58.9704736,71.775773 56.4299292,71.775773 L23.9627592,71.775773 C21.4222149,71.775836 19.0746757,70.3955036 17.8043417,68.1548016 L17.8043417,68.1548016 Z" id="Shape" fill="#0E62C2"></path>
                <path d="M79.4331045,38.0699541 L58.7487742,17.0045967 L57.6003285,32.2097922 L49.472652,23.9323954 L39.3720062,26.8714825 L29.6835912,17.0045967 L25.3547341,21.4131959 L25.3547341,40.5171045 L21.6442852,54.7925895 L38.3203413,71.775836 L56.4299292,71.775836 C58.9704736,71.775836 61.3180746,70.3955036 62.5883468,68.1548016 L78.8219317,39.5195645 C79.0843841,39.0565986 79.2791209,38.5680629 79.4331045,38.0699541 L79.4331045,38.0699541 Z" id="Shape" fill="#0751B0"></path>
            </g>
        </g>
        <g id="art" transform="translate(21.644285, 17.768422)" fill="#FFFFFF">
            <polygon id="Shape" points="32.1572238 0 29.065183 0 29.065183 4.96842127 32.1572238 4.96842127 32.1572238 32.2947382 29.065183 32.2947382 29.065183 37.2631595 32.1572238 37.2631595 37.104489 37.2631595 37.104489 32.2947382 37.104489 4.96842127 37.104489 0"></polygon>
            <polygon id="Shape" points="0 0 0 4.96842127 0 32.2947382 0 37.2631595 4.9472652 37.2631595 8.03930595 37.2631595 8.03930595 32.2947382 4.9472652 32.2947382 4.9472652 4.96842127 8.03930595 4.96842127 8.03930595 0 4.9472652 0"></polygon>
            <rect id="Rectangle-path" x="9.27612225" y="25.463159" width="18.5522445" height="4.96842127"></rect>
            <rect id="Rectangle-path" x="9.27612225" y="16.1473691" width="18.5522445" height="4.96842127"></rect>
            <rect id="Rectangle-path" x="9.27612225" y="6.83157924" width="18.5522445" height="4.96842127"></rect>
        </g>
    </g>
</svg>