<?xml version="1.0" encoding="UTF-8" standalone="no"?>
<svg width="80px" height="72px" viewBox="0 0 80 72" version="1.1" xmlns="http://www.w3.org/2000/svg" xmlns:xlink="http://www.w3.org/1999/xlink">
    <!-- Generator: Sketch 39.1 (31720) - http://www.bohemiancoding.com/sketch -->
    <title>blockstorage</title>
    <desc>Created with Sketch.</desc>
    <defs>
        <path d="M17.3694219,67.6354375 L0.962859375,39.2184219 C-0.320951761,36.9947893 -0.320951761,34.2551638 0.962859375,32.0315313 L17.3694219,3.61451562 C18.6532298,1.39087577 21.0258206,0.0210571673 23.5934531,0.0210625 L56.4065469,0.0210625 C58.9741794,0.0210571673 61.3467702,1.39087577 62.6305781,3.61451562 L79.0371406,32.0315312 C80.3209518,34.2551638 80.3209518,36.9947893 79.0371406,39.2184219 L62.6305781,67.6354375 C61.3467702,69.8590774 58.9741794,71.228896 56.4065469,71.2288906 L23.5934531,71.2288906 C21.0258206,71.228896 18.6532298,69.8590774 17.3694219,67.6354375 L17.3694219,67.6354375 L17.3694219,67.6354375 Z" id="path-1"></path>
    </defs>
    <g id="Page-1" stroke="none" stroke-width="1" fill="none" fill-rule="evenodd">
        <g id="blockstorage">
            <g id="Page-1">
                <g id="Block-Storage_512px">
                    <path d="M17.3694219,67.6354375 L0.962859375,39.2184219 C-0.320951761,36.9947893 -0.320951761,34.2551638 0.962859375,32.0315313 L17.3694219,3.61451562 C18.6532298,1.39087577 21.0258206,0.0210571673 23.5934531,0.0210625 L56.4065469,0.0210625 C58.9741794,0.0210571673 61.3467702,1.39087577 62.6305781,3.61451562 L79.0371406,32.0315312 C80.3209518,34.2551638 80.3209518,36.9947893 79.0371406,39.2184219 L62.6305781,67.6354375 C61.3467702,69.8590774 58.9741794,71.228896 56.4065469,71.2288906 L23.5934531,71.2288906 C21.0258206,71.228896 18.6532298,69.8590774 17.3694219,67.6354375 L17.3694219,67.6354375 L17.3694219,67.6354375 Z" id="Shape" fill="#0E62C2"></path>
                    <g id="Clipped">
                        <g id="Shape-Clipped">
                            <mask id="mask-2" fill="white">
                                <use xlink:href="#path-1"></use>
                            </mask>
                            <g id="path-2"></g>
                            <polygon id="Shape" fill="#000000" opacity="0.07" mask="url(#mask-2)" points="77.5 46.25 51.875 20.625 31.875 23.125 28.125 33.125 31.25 36.25 28.125 41.875 31.25 45 28.125 50.625 50 72.5 61.25 72.5"></polygon>
                        </g>
                    </g>
                    <polygon id="Shape" fill="#FFFFFF" points="46.25 38.125 46.25 45 28.125 45 28.125 50.625 51.875 50.625 51.875 38.125"></polygon>
                    <polygon id="Shape" fill="#FFFFFF" points="33.75 33.125 33.75 26.25 51.875 26.25 51.875 20.625 28.125 20.625 28.125 33.125"></polygon>
                    <polygon id="Shape" fill="#FFFFFF" points="36.875 29.375 36.875 36.25 28.125 36.25 28.125 41.875 43.125 41.875 43.125 35 51.875 35 51.875 29.375"></polygon>
                </g>
            </g>
        </g>
    </g>
</svg>