<?xml version="1.0" encoding="UTF-8" standalone="no"?>
<svg width="80px" height="72px" viewBox="0 0 80 72" version="1.1" xmlns="http://www.w3.org/2000/svg" xmlns:xlink="http://www.w3.org/1999/xlink">
    <!-- Generator: Sketch 39.1 (31720) - http://www.bohemiancoding.com/sketch -->
    <title>pubsub-logo</title>
    <desc>Created with Sketch.</desc>
    <defs>
        <path d="M0.037209302,36.5817833 C0.137779271,37.5809245 0.443929142,38.5635287 0.955658915,39.4621946 L17.2347287,68.0565477 C18.4281121,70.1522884 20.5697108,71.4945598 22.9307887,71.6556829 L56.4490562,71.6556829 C58.8101341,71.4945598 60.9517329,70.1522884 62.1451163,68.0565477 L78.424186,39.4621946 C79.6986047,37.2252342 79.6986047,34.4681821 78.424186,32.2305929 L62.1451163,3.63686865 C60.8713178,1.3992794 58.5172093,0.0207533574 55.9689922,0.0207533574 L23.4108527,0.0207533574 C20.8626357,0.0207533574 18.5085271,1.3992794 17.2347287,3.63686865 L0.955658915,32.2305929 C0.443929142,33.1295114 0.137779271,34.1122667 0.037209302,35.1114576 L0.0372093023,36.581784" id="path-1"></path>
    </defs>
    <g id="Page-1" stroke="none" stroke-width="1" fill="none" fill-rule="evenodd">
        <g id="pubsub-logo">
            <g id="Group-3">
                <mask id="mask-2" fill="white">
                    <use xlink:href="#path-1"></use>
                </mask>
                <use id="Clip-2" fill="#0E62C2" xlink:href="#path-1"></use>
                <path d="M28.7162791,25.7102653 L23.9596899,30.3470685 L32.0396899,38.5408713 L38.1655814,34.9543138 L38.1655814,32.3079463 L35.7215504,32.8142024 L28.7162791,25.7102653 M42.64,17.2051621 L41.0505426,20.2194301 L41.2142636,20.2194301 L41.2142636,34.9543138 L53.7972093,42.3217557 L52.2734884,44.9989387 L39.6899225,37.6314969 L27.1063566,44.9989387 L26.620155,44.1449066 L23.4350388,46.712663 L48.0471318,71.6720341 L55.9689922,71.6720341 C58.5172093,71.6720341 60.8713178,70.293508 62.1451163,68.0565477 L74.9655814,45.5372683 L55.3289922,25.6241074 L51.696124,26.3882083 L42.64,17.2051621" id="Fill-1" fill="#0751B0" mask="url(#mask-2)"></path>
            </g>
            <path d="M51.3848062,25.1335735 C52.9637209,24.2091058 54.9829457,24.7574975 55.8945736,26.3592794 C56.8062016,27.9604324 56.2654264,30.008097 54.6865116,30.9325647 C53.1069767,31.8570324 51.0877519,31.3086407 50.176124,29.7074877 C49.2644961,28.1057059 49.8052713,26.0580413 51.3848062,25.1335735" id="Fill-4" fill="#FFFFFF"></path>
            <path d="M24.6933333,30.9325647 C23.1144186,30.008097 22.5736434,27.9604324 23.4852713,26.3592794 C24.3968992,24.7574975 26.416124,24.2091058 27.9950388,25.1335735 C29.5745736,26.0580413 30.1153488,28.1057059 29.2037209,29.7074877 C28.292093,31.3086407 26.2728682,31.8570324 24.6933333,30.9325647" id="Fill-5" fill="#FFFFFF"></path>
            <path d="M42.9922481,51.4739862 C42.9922481,53.3229217 41.5137984,54.8221946 39.6899225,54.8221946 C37.8660465,54.8221946 36.3875969,53.3229217 36.3875969,51.4739862 C36.3875969,49.6244219 37.8660465,48.125149 39.6899225,48.125149 C41.5137984,48.125149 42.9922481,49.6244219 42.9922481,51.4739862" id="Fill-6" fill="#FFFFFF"></path>
            <path d="M46.2455814,37.9000328 C45.9379845,38.9094006 45.4108527,39.8206616 44.7193798,40.576587 L52.2734884,44.9989387 L53.7972093,42.3217557 L46.2455814,37.9000328" id="Fill-7" fill="#FFFFFF"></path>
            <polyline id="Fill-8" fill="#FFFFFF" points="32.0396899 38.5408713 25.5826357 42.3217557 26.620155 44.1449066 32.7187597 39.2295054 32.0396899 38.5408713"></polyline>
            <path d="M33.1342636,37.9000328 L32.0396899,38.5408713 L32.7187597,39.2295054 L26.620155,44.1449066 L27.1063566,44.9989387 L34.6604651,40.576587 C33.9689922,39.8206616 33.4418605,38.9094006 33.1342636,37.9000328" id="Fill-9" fill="#FFFFFF"></path>
            <path d="M41.0505426,20.2194301 L38.1655814,20.2194301 L38.1655814,29.0635047 C38.168062,29.0628759 38.1711628,29.062247 38.1736434,29.0616181 L38.1705426,29.0584736 L39.7426357,22.7010285 L41.0505426,20.2194301" id="Fill-10" fill="#FFFFFF"></path>
            <path d="M41.2142636,20.2194301 L41.0505426,20.2194301 L39.7426357,22.7010285 L38.1705426,29.0584736 L38.1736434,29.0616181 C38.6617054,28.9496757 39.1689922,28.891189 39.6899225,28.891189 C40.2139535,28.891189 40.7237209,28.9509335 41.2142636,29.0635047 L41.2142636,20.2194301" id="Fill-11" fill="#FFFFFF"></path>
            <path d="M41.2142636,34.9543138 L41.2142636,35.8467082 L39.6899225,35.8467082 L40.452093,37.1856142 L39.6899225,37.6314969 L44.7193798,40.576587 C45.4108527,39.8206616 45.9379845,38.9094006 46.2455814,37.9000328 L41.2142636,34.9543138" id="Fill-12" fill="#EDEDED"></path>
            <path d="M38.1655814,34.9543138 L33.1342636,37.9000328 C33.4418605,38.9094006 33.9689922,39.8206616 34.6604651,40.576587 L40.452093,37.1856142 L39.6899225,35.8467082 L38.1655814,35.8467082 L38.1655814,34.9543138" id="Fill-13" fill="#EDEDED"></path>
            <path d="M38.1736434,29.0616181 C38.1711628,29.062247 38.168062,29.0628759 38.1655814,29.0635047 L38.1655814,32.3079463 L40.8303876,31.7557812 L38.1736434,29.0616181" id="Fill-14" fill="#FFFFFF"></path>
            <path d="M39.6899225,28.891189 C39.1689922,28.891189 38.6617054,28.9496757 38.1736434,29.0616181 L40.8303876,31.7557812 L38.1655814,32.3079463 L38.1655814,35.8467082 L41.2142636,35.8467082 L41.2142636,29.0635047 C40.7237209,28.9509335 40.2139535,28.891189 39.6899225,28.891189" id="Fill-15" fill="#EDEDED"></path>
            <path d="M45.0244961,35.8467082 C45.0244961,38.8345627 42.6362791,41.2564166 39.6899225,41.2564166 C36.7435659,41.2564166 34.3553488,38.8345627 34.3553488,35.8467082 C34.3553488,32.8588536 36.7435659,30.4369997 39.6899225,30.4369997 C42.6362791,30.4369997 45.0244961,32.8588536 45.0244961,35.8467082" id="Fill-16" fill="#FFFFFF"></path>
            <path d="M24.2493023,39.9797707 C26.2536434,38.8062627 28.8167442,39.5024435 29.9739535,41.5350147 C31.1311628,43.5682149 30.4446512,46.1674157 28.4396899,47.3409237 C26.4353488,48.5144317 23.8722481,47.8182509 22.7150388,45.7850508 C21.5578295,43.7524795 22.2443411,41.1532787 24.2493023,39.9797707" id="Fill-17" fill="#FFFFFF"></path>
            <path d="M50.940155,47.3409237 C48.9351938,46.1674157 48.2486822,43.5682149 49.4058915,41.5350147 C50.5631008,39.5024435 53.1262016,38.8062627 55.1305426,39.9797707 C57.1355039,41.1532787 57.8220155,43.7524795 56.6648062,45.7850508 C55.5075969,47.8182509 52.9444961,48.5144317 50.940155,47.3409237" id="Fill-18" fill="#FFFFFF"></path>
            <path d="M43.8815504,20.2194301 C43.8815504,22.567075 42.0049612,24.470095 39.6899225,24.470095 C37.3748837,24.470095 35.4982946,22.567075 35.4982946,20.2194301 C35.4982946,17.872414 37.3748837,15.9687651 39.6899225,15.9687651 C42.0049612,15.9687651 43.8815504,17.872414 43.8815504,20.2194301" id="Fill-19" fill="#FFFFFF"></path>
        </g>
    </g>
</svg>