<?xml version="1.0" encoding="UTF-8" standalone="no"?>
<svg width="80px" height="72px" viewBox="0 0 80 72" version="1.1" xmlns="http://www.w3.org/2000/svg" xmlns:xlink="http://www.w3.org/1999/xlink">
    <!-- Generator: Sketch 39.1 (31720) - http://www.bohemiancoding.com/sketch -->
    <title>speechAPI-logo</title>
    <desc>Created with Sketch.</desc>
    <defs></defs>
    <g id="Page-1" stroke="none" stroke-width="1" fill="none" fill-rule="evenodd">
        <g id="shadow" fill="#0E62C2">
            <path d="M17.3694097,68.3666455 L0.962855238,39.6334177 C-0.320951746,37.3850529 -0.320951746,34.6149471 0.962855238,32.3665823 L17.3694097,3.63341771 C18.6532167,1.38505289 21.0258315,1.65242497e-15 23.5934455,1.65242497e-15 L56.4065545,1.65242497e-15 C58.9741685,1.65242497e-15 61.3467833,1.38505289 62.6305903,3.63341771 L79.0371448,32.3665823 C80.3209517,34.6149471 80.3209517,37.3850529 79.0371448,39.6334177 L62.6305903,68.3665823 C61.3467833,70.6149471 58.9741685,72 56.4065545,72 L23.5934455,72 C21.0258315,72.0000632 18.6532792,70.6150103 17.3694097,68.3666455 L17.3694097,68.3666455 Z" id="Shape"></path>
        </g>
        <path d="M58.9166641,25.8947368 L53.0249977,31.8947368 L42.7921034,21.4736842 L41.0910243,34.8992211 L34.7298231,28.4210526 L33.1269177,32.4728211 L26.6675427,25.8947368 L24.1868411,34.4473263 L26.2557462,43.3596 L21.7061394,46.1052632 L47.1123074,71.9785895 L56.5911924,71.9785895 C59.138997,71.9785895 61.4933069,70.5943579 62.7672092,68.3473263 L76.6159742,43.9195579 L58.9166641,25.8947368 L58.9166641,25.8947368 Z" id="Shape" fill="#0751B0"></path>
        <rect id="Rectangle-path" fill="#FFFFFF" x="21.7061394" y="25.8947368" width="4.96140329" height="20.2105263"></rect>
        <rect id="Rectangle-path" fill="#FFFFFF" x="53.9552608" y="25.8947368" width="4.96140329" height="20.2105263"></rect>
        <rect id="Rectangle-path" fill="#FFFFFF" x="37.8307001" y="21.4736842" width="4.96140329" height="29.0526316"></rect>
        <rect id="Rectangle-path" fill="#FFFFFF" x="29.7684198" y="28.4210526" width="4.96140329" height="15.1578947"></rect>
        <rect id="Rectangle-path" fill="#FFFFFF" x="45.8929805" y="30.9473684" width="4.96140329" height="10.1052632"></rect>
    </g>
</svg>