<?xml version="1.0" encoding="UTF-8" standalone="no"?>
<svg width="80px" height="72px" viewBox="0 0 80 72" version="1.1" xmlns="http://www.w3.org/2000/svg" xmlns:xlink="http://www.w3.org/1999/xlink">
    <!-- Generator: Sketch 39.1 (31720) - http://www.bohemiancoding.com/sketch -->
    <title>sql-2nd-gen</title>
    <desc>Created with Sketch.</desc>
    <defs>
        <path d="M23.59375,0.837196967 C21.025625,0.837196967 18.653125,2.20186431 17.369375,4.41859232 L17.369375,4.41859232 L0.963125,32.7377753 C0.326875,33.8352394 0.00625,35.0585195 0,36.2836681 L0,36.2836681 L0,36.3534275 C0.00625,37.5785761 0.326875,38.8018562 0.963125,39.8993203 L0.963125,39.8993203 L17.369375,68.2191262 C18.653125,70.4352313 21.025625,71.7998987 23.59375,71.7998987 L23.59375,71.7998987 L56.40625,71.7998987 C58.974375,71.7998987 61.346875,70.4352313 62.630625,68.2191262 L62.630625,68.2191262 L79.036875,39.8993203 C79.673125,38.8018562 79.99375,37.5779533 80,36.3528047 L80,36.3528047 L80,36.284291 C79.99375,35.0591424 79.673125,33.8352394 79.036875,32.7377753 L79.036875,32.7377753 L62.630625,4.41859232 C61.346875,2.20186431 58.974375,0.837196967 56.40625,0.837196967 L56.40625,0.837196967 L23.59375,0.837196967 Z" id="path-1"></path>
    </defs>
    <g id="Page-1" stroke="none" stroke-width="1" fill="none" fill-rule="evenodd">
        <g id="Group" transform="translate(22.000000, 27.000000)" fill="#FFFFFF">
            <polygon id="Shape" points="31.7396589 13.8432248 31.7396589 0.0796899225 28.2988527 0.0796899225 28.2988527 17.2851473 38.6219535 17.2851473 38.6219535 13.8432248"></polygon>
            <path d="M0.447503876,17.2851473 L1.30821705,13.844031 L7.32905426,13.844031 L7.32905426,10.4024806 L3.88756589,10.4024806 C1.98617054,10.4024806 0.447503876,8.86412403 0.447503876,6.96130233 L0.447503876,3.52018605 C0.447503876,1.61848062 1.98617054,0.0790697674 3.88756589,0.0790697674 L10.7706047,0.0790697674 L9.90982946,3.52018605 L3.88756589,3.52018605 L3.88756589,6.96130233 L7.32905426,6.96130233 C9.23181395,6.96130233 10.7705426,8.50003101 10.7705426,10.4024806 L10.7705426,13.843969 C10.7705426,15.7452403 9.23181395,17.2850853 7.32905426,17.2850853 L0.447503876,17.2850853 L0.447503876,17.2851473 Z" id="Shape"></path>
            <path d="M23.8347907,13.843969 C23.8347907,13.8432248 23.8355349,13.8432248 23.8355349,13.8432248 L23.8355349,3.52012403 C23.8355349,1.6184186 22.2945736,0.0796899225 20.3947287,0.0796899225 L16.9539845,0.0796899225 C15.0533953,0.0796899225 13.5131783,1.6184186 13.5131783,3.52012403 L13.5131783,13.8425426 C13.5131783,15.7442481 15.0533953,17.2844651 16.9539845,17.2844651 L19.3691783,17.2844651 L19.3691783,17.2851473 L25.5562791,17.2851473 L25.5562791,13.844031 L23.8347907,13.844031 L23.8347907,13.843969 Z M16.9539845,3.52012403 L20.3939845,3.52012403 L20.3939845,13.8425426 L16.9539845,13.8425426 L16.9539845,3.52012403 L16.9539845,3.52012403 Z" id="Shape"></path>
        </g>
        <g id="sql-2nd-gen">
            <g id="Group-3">
                <mask id="mask-2" fill="white">
                    <use xlink:href="#path-1"></use>
                </mask>
                <use id="Clip-2" fill="#0E62C2" xlink:href="#path-1"></use>
                <polygon id="Fill-1" fill="#0851B0" mask="url(#mask-2)" points="77.7370016 48.4266304 53.4097516 24.183013 40.4479391 19.7471435 26.7027203 30.0972826 35.2966734 38.6623609 26.6745016 39.4993174 34.7228922 47.5200391 26.5757359 48.5371087 53.8014547 75.6692304 62.5499391 74.6722478"></polygon>
            </g>
            <path d="M48.56355,26.909318 L48.55815,26.9058831 L40.5,31.6405821 L32.44185,26.9058831 L32.43645,26.909318 L32.43645,26.9024482 L32.44185,26.9058831 L40.5,22.1711841 L48.55815,26.9058831 L48.56355,26.9024482 L48.56355,26.909318 Z M40.5,16 L27,23.932613 L27,30.067387 L40.5,38 L54,30.067387 L54,23.932613 L40.5,16 Z" id="Fill-4" fill="#FFFFFF"></path>
            <polygon id="Fill-5" fill="#FFFFFF" points="27 33 27 39.1053865 40.5 47 54 39.1053865 54 33 40.5 40.8946135"></polygon>
            <polygon id="Fill-6" fill="#FFFFFF" points="27 42 27 48.1053865 40.5 56 54 48.1053865 54 42 40.5 49.8946135"></polygon>
        </g>
    </g>
</svg>
