<?xml version="1.0" encoding="UTF-8" standalone="no"?>
<svg width="80px" height="72px" viewBox="0 0 80 72" version="1.1" xmlns="http://www.w3.org/2000/svg" xmlns:xlink="http://www.w3.org/1999/xlink">
    <!-- Generator: Sketch 39.1 (31720) - http://www.bohemiancoding.com/sketch -->
    <title>stackdriver</title>
    <desc>Created with Sketch.</desc>
    <defs>
        <linearGradient x1="50.0003516%" y1="7.79559304e-16%" x2="50.0003516%" y2="99.8441195%" id="linearGradient-1">
            <stop stop-color="#4387FD" offset="0%"></stop>
            <stop stop-color="#4683EA" offset="100%"></stop>
        </linearGradient>
        <path d="M0.962875,39.6315789 C-0.320936568,37.3845455 -0.320936568,34.6160861 0.962875,32.3690526 L17.369125,3.65292632 C18.6528654,1.40575687 21.0254834,0.0213958327 23.5931875,0.0213473684 L56.40625,0.0213473684 C58.9739541,0.0213958327 61.3465721,1.40575687 62.6303125,3.65292632 L79.0365625,32.3690526 C80.3203741,34.6160861 80.3203741,37.3845455 79.0365625,39.6315789 L62.6303125,68.3477053 C61.3465721,70.5948747 58.9739541,71.9792357 56.40625,71.9792842 L23.59375,71.9792842 C21.0258921,71.9792609 18.6531431,70.5947586 17.3694375,68.3473895 L0.962875,39.6315789 Z" id="path-2"></path>
    </defs>
    <g id="Page-1" stroke="none" stroke-width="1" fill="none" fill-rule="evenodd">
        <g id="stackdriver">
            <path d="M17.3694375,68.3261053 L0.962875,39.6099789 C-0.320936568,37.3629455 -0.320936568,34.5944861 0.962875,32.3474526 L17.3694375,3.63157895 C18.6532226,1.38433133 21.0259566,-4.17966682e-05 23.59375,5.60954791e-16 L56.40625,5.60954791e-16 C58.9739541,4.84642685e-05 61.3465721,1.3844095 62.6303125,3.63157895 L79.0365625,32.3477053 C80.3203741,34.5947387 80.3203741,37.3631981 79.0365625,39.6102316 L62.6303125,68.3263579 C61.3465721,70.5735273 58.9739541,71.9578884 56.40625,71.9579368 L23.59375,71.9579368 C21.025905,71.9579265 18.653159,70.5734501 17.3694375,68.3261053 L17.3694375,68.3261053 Z" id="Shape" fill="url(#linearGradient-1)"></path>
            <g id="Clipped">
                <mask id="mask-3" fill="white">
                    <use xlink:href="#path-2"></use>
                </mask>
                <use id="Shape" fill="#0E62C2" xlink:href="#path-2"></use>
                <polygon id="Shape" fill="#0751B0" mask="url(#mask-3)" points="80.120625 51.2589474 59.405625 79.9136842 29.9075 52.9932632 21.75875 37.7052632 25.028125 38.184 21.251875 34.3086316 31.5625 21.9473684 47.20625 19.0983158 49.805 21.7237895 50.091875 20.7871579"></polygon>
            </g>
            <polygon id="Shape" fill="#DAE7FC" points="58.75 36 50.091875 20.7871579 41.43375 36 50.091875 51.2128421"></polygon>
            <polygon id="Shape" fill="#B6CFF8" points="21.25 37.2637895 29.876875 52.4210526 47.175625 52.4210526 38.54875 37.2637895"></polygon>
            <polygon id="Shape" fill="#FFFFFF" points="38.4375 34.7368421 47.203125 19.5789474 29.90375 19.5789474 21.25 34.7368421"></polygon>
        </g>
    </g>
</svg>
