<?xml version="1.0" encoding="UTF-8" standalone="no"?>
<svg width="80px" height="72px" viewBox="0 0 80 72" version="1.1" xmlns="http://www.w3.org/2000/svg" xmlns:xlink="http://www.w3.org/1999/xlink">
    <!-- Generator: Sketch 39.1 (31720) - http://www.bohemiancoding.com/sketch -->
    <title>storage-logo copy</title>
    <desc>Created with Sketch.</desc>
    <defs></defs>
    <g id="Page-1" stroke="none" stroke-width="1" fill="none" fill-rule="evenodd">
        <g id="storage-logo-copy">
            <g id="Group-3">
                <path d="M17.3355166,68.3474211 L0.960935673,39.6312632 C-0.320311891,37.3842632 -0.320311891,34.6157368 0.960935673,32.3687368 L17.3355166,3.65257895 C18.6169201,1.40557895 20.9847953,0.0213157895 23.5474464,0.0213157895 L56.2966082,0.0213157895 C58.8592593,0.0213157895 61.2271345,1.40557895 62.508538,3.65257895 L78.8831189,32.3687368 C80.1643665,34.6157368 80.1643665,37.3842632 78.8831189,39.6312632 L62.508538,68.3474211 C61.2271345,70.5944211 58.8592593,71.9786842 56.2966082,71.9786842 L23.5474464,71.9786842 C20.9847953,71.9786842 18.6169201,70.5944211 17.3355166,68.3474211" id="Clip-2" fill="#0E62C2"></path>
                <path d="M53.325848,27.5055789 L30.7602339,29.6052632 L26.3872125,34.0196842 L30.1040156,37.7829474 L26.4246394,44.3996842 L53.6631579,71.9786842 L56.2966082,71.9786842 C58.8592593,71.9786842 61.2271345,70.5944211 62.508538,68.3474211 L73.9120468,48.3491053 L53.325848,27.5055789" id="Fill-1" fill="#0751B0"></path>
            </g>
            <g id="storage" transform="translate(26.000000, 26.366197)" fill="#FFFFFF">
                <path d="M26.834152,0.961750185 L0.987134503,0.962539659 C0.571072125,0.962539659 0.230643275,1.30722387 0.230643275,1.72848703 L0.231423002,7.13890808 C0.231423002,7.55938176 0.571851852,7.90406597 0.987134503,7.90406597 L26.8335283,7.90406597 C27.2495906,7.90406597 27.5900195,7.55938176 27.5900195,7.13890808 L27.5900195,1.72769755 C27.5900195,1.30722387 27.2503704,0.961750185 26.834152,0.961750185 M22.8319688,5.99859229 C21.9794152,5.99859229 21.2879532,5.29501334 21.2863938,4.43259229 C21.2879532,3.56622387 21.977076,2.86801334 22.8319688,2.86801334 C23.6862378,2.86801334 24.3784795,3.56464492 24.3784795,4.43259229 C24.3784795,5.29659229 23.6862378,5.99859229 22.8319688,5.99859229" id="Fill-4"></path>
                <path d="M26.834152,11.3619607 L0.987134503,11.3627502 C0.571072125,11.3627502 0.230643275,11.7077502 0.230643275,12.1298028 L0.231423002,17.5391186 C0.231423002,17.9595923 0.571851852,18.305066 0.987134503,18.305066 L26.8335283,18.305066 C27.2495906,18.305066 27.5900195,17.9595923 27.5900195,17.5391186 L27.5900195,12.1286976 C27.5900195,11.7077502 27.2503704,11.3619607 26.834152,11.3619607 M22.8319688,16.3988028 C21.9794152,16.3988028 21.2879532,15.6956976 21.2863938,14.8328028 C21.2879532,13.9664344 21.977076,13.2685397 22.8319688,13.2685397 C23.6862378,13.2685397 24.3784795,13.9659607 24.3784795,14.8328028 C24.3784795,15.6979081 23.6862378,16.3988028 22.8319688,16.3988028" id="Fill-5"></path>
            </g>
        </g>
    </g>
</svg>
