<?xml version="1.0" encoding="UTF-8" standalone="no"?>
<svg width="80px" height="72px" viewBox="0 0 80 72" version="1.1" xmlns="http://www.w3.org/2000/svg" xmlns:xlink="http://www.w3.org/1999/xlink">
    <!-- Generator: Sketch 39.1 (31720) - http://www.bohemiancoding.com/sketch -->
    <title>Traces_hex</title>
    <desc>Created with Sketch.</desc>
    <defs></defs>
    <g id="Custom-Icons" stroke="none" stroke-width="1" fill="none" fill-rule="evenodd">
        <g id="Sprites-Copy" transform="translate(-454.000000, -1077.000000)">
            <g id="Traces_128px" transform="translate(454.000000, 1077.000000)">
                <g id="Layer_1">
                    <path d="M62.605875,3.69934737 C61.288125,1.41454737 58.8994375,0.0212842105 56.441,0.0212842105 L23.5605625,0.0212842105 C20.92625,0.0212842105 18.6256875,1.56732632 17.3949375,3.69783158 L0.9546875,32.262 C-0.36225,34.5467368 -0.273,37.2856421 0.95325,39.4180421 L17.3935,68.1701684 C18.7111875,70.4545895 21.1001875,71.9787158 23.5586875,71.9787158 L56.4388125,71.9787158 C59.0741875,71.9787158 61.374375,70.3163368 62.605125,68.1865895 L79.0445625,39.5633684 C80.362625,37.2785053 80.273,34.4528842 79.046125,32.3209263 L62.605875,3.69934737 Z" id="Shape" fill="#0E62C2"></path>
                    <path d="M51.974625,36.1006737 L33.125,17.0526316 L29.669125,19.4166316 L29.1666875,18.8420842 L21.25,24.6315789 L32.9298125,36.4343368 L21.25,39.7894737 L35.2419375,53.9286947 L33.1249375,54.9473684 L49.9788125,71.9786526 L56.43875,71.9786526 C59.074125,71.9786526 61.3743125,70.3162737 62.6050625,68.1865263 L74.263625,47.8874526 L58.75,32.2105263 L51.974625,36.1006737 Z" id="Shape" fill="#000000" opacity="0.0799999982"></path>
                    <rect id="Rectangle-path" fill="#FFFFFF" x="21.25" y="32.2105263" width="37.5" height="7.57894737"></rect>
                    <rect id="Rectangle-path" fill="#FFFFFF" x="33.1249375" y="47.3684211" width="25.625" height="7.57894737"></rect>
                    <rect id="Rectangle-path" fill="#FFFFFF" x="21.25" y="17.0526316" width="11.875" height="7.57894737"></rect>
                </g>
            </g>
        </g>
    </g>
</svg>