<?xml version="1.0" encoding="UTF-8" standalone="no"?>
<svg width="80px" height="72px" viewBox="0 0 80 72" version="1.1" xmlns="http://www.w3.org/2000/svg" xmlns:xlink="http://www.w3.org/1999/xlink">
    <!-- Generator: Sketch 39.1 (31720) - http://www.bohemiancoding.com/sketch -->
    <title>TranslateAPI_logo</title>
    <desc>Created with Sketch.</desc>
    <defs>
        <path d="M17.8546357,67.1110698 L1.5751938,38.9142946 C0.301333333,36.707907 0.301333333,33.9895194 1.5751938,31.7831318 L17.8546357,3.5864186 C19.1284961,1.38003101 21.4827287,0.0208372093 24.0304496,0.0208372093 L56.5893333,0.0208372093 C59.1370543,0.0208372093 61.4912868,1.38003101 62.7651473,3.5864186 L79.0445891,31.7831318 C80.3184496,33.9895194 80.3184496,36.707907 79.0445891,38.9142946 L62.7651473,67.1110078 C61.4912868,69.3173953 59.1370543,70.6765891 56.5893333,70.6765891 L24.0304496,70.6765891 C21.4827287,70.6766512 19.1285581,69.3174574 17.8546357,67.1110698 L17.8546357,67.1110698 Z" id="path-1"></path>
    </defs>
    <g id="Page-1" stroke="none" stroke-width="1" fill="none" fill-rule="evenodd">
        <g id="TranslateAPI_128px">
            <g id="BASE" transform="translate(0.000000, 0.341085)">
                <g id="Shape">
                    <mask id="mask-2" fill="white">
                        <use xlink:href="#path-1"></use>
                    </mask>
                    <use id="Mask" fill="#0E62C2" xlink:href="#path-1"></use>
                    <polygon fill="#0751B0" mask="url(#mask-2)" points="76.8087442 45.1808372 57.9669457 26.3389767 55.1421395 27.6484961 50.6289612 38.7942946 48.1196279 36.2849612 43.9688682 35.8550698 36.1774884 28.0637519 31.5762481 28.5787287 27.1616124 24.164093 25.0646202 28.4236899 16.0187907 30.2566822 24.1604341 38.3982636 17.2417984 45.2132713 43.1395349 71.1110078 61.124031 70.872"></polygon>
                </g>
            </g>
            <g id="shadow" transform="translate(15.503876, 23.906977)"></g>
            <g id="art" transform="translate(15.503876, 24.527132)" fill="#FFFFFF">
                <g id="Group">
                    <path d="M39.532031,2.12533333 L42.4906047,2.12533333 L49.5116279,21.4703876 L46.6412403,21.4703876 L44.6212713,15.6756589 L37.031876,15.6756589 L34.9337674,21.4703876 L32.2475659,21.4703876 L39.532031,2.12533333 L39.532031,2.12533333 Z M43.8777054,13.5428837 L40.8992868,4.99621705 L37.8046512,13.5428837 L43.8777054,13.5428837 L43.8777054,13.5428837 Z" id="Shape"></path>
                    <path d="M16.4690853,7.44186047 L13.6692713,7.44186047 C13.3893953,8.0620155 13.0912248,8.65469767 12.7743876,9.22263566 C12.1353798,10.3690543 11.4396279,11.3293643 10.6870698,12.1962171 C9.90164341,11.263938 9.16483721,10.2900465 8.4772093,9.13544186 C8.15255814,8.58989147 7.8551938,8.0620155 7.5812093,7.44186047 L4.84124031,7.44186047 C5.2215814,8.0620155 5.64421705,9.20217054 6.12024806,10.0327442 C6.95497674,11.4904186 7.86375194,12.7779845 8.84570543,13.9893953 C7.79795349,14.9221085 6.57872868,15.7868527 5.18722481,16.6294574 C3.79615504,17.4732403 2.14300775,18.1931783 0.22772093,18.8153178 L1.62747287,21.1425736 C3.39485271,20.4714419 5.03596899,19.6787597 6.5500155,18.7704186 C8.06406202,17.8617054 9.42648062,16.8826667 10.6378295,15.8341705 C11.2106047,16.3587597 11.8492403,16.8613333 12.5531783,17.344062 C13.2564341,17.8268527 13.9973333,18.2892403 14.7749457,18.7308527 C15.552186,19.1729612 16.3465426,19.5815814 17.1566512,19.9582016 C17.9675039,20.3344496 18.7730853,20.6618295 19.575814,20.940155 L20.9505116,18.4355349 C20.2790078,18.2232558 19.575814,17.9737054 18.8389457,17.6870078 C18.1020775,17.4004341 17.3660155,17.0731163 16.6291473,16.7050543 C15.8922791,16.3362481 15.168124,15.9275039 14.455876,15.4772713 C13.7444961,15.0274109 13.0849612,14.531907 12.4792558,13.9915039 C13.5109457,12.8133953 14.4274729,11.575876 15.2293953,10.0946977 C15.6903566,9.24285271 16.099907,8.0620155 16.4690853,7.44186047 L16.4690853,7.44186047 Z" id="Shape"></path>
                    <polygon id="Shape" points="32.7337054 12.0911628 28.3144186 9.53953488 28.3144186 11.5311008 19.6788217 11.5311008 19.6788217 12.8109147 28.3144186 12.8109147 28.3144186 14.6429147"></polygon>
                    <polygon id="Shape" points="11.7094574 3.85537984 11.7094574 0.0171782946 9.1244031 0.0171782946 9.1244031 3.85537984 0.488496124 3.85537984 0.488496124 6.09432558 20.6383256 6.09432558 20.6383256 3.85537984"></polygon>
                </g>
            </g>
        </g>
    </g>
</svg>