<?xml version="1.0" encoding="UTF-8" standalone="no"?>
<svg width="80px" height="72px" viewBox="0 0 80 72" version="1.1" xmlns="http://www.w3.org/2000/svg" xmlns:xlink="http://www.w3.org/1999/xlink">
    <!-- Generator: Sketch 39.1 (31720) - http://www.bohemiancoding.com/sketch -->
    <title>virtual-network-logo</title>
    <desc>Created with Sketch.</desc>
    <defs>
        <linearGradient x1="49.9607797%" y1="-0.000143258999%" x2="49.9607797%" y2="99.8733099%" id="linearGradient-1">
            <stop stop-color="#4387FD" offset="0%"></stop>
            <stop stop-color="#4683EA" offset="100%"></stop>
        </linearGradient>
        <path d="M17.7230769,68.3368421 L1.53846154,39.6 C0.246153846,37.3263158 0.246153846,34.6105263 1.53846154,32.3368421 L17.7230769,3.6 C19.0153846,1.32631579 21.3538462,0 23.8769231,0 L56.1846154,0 C58.7076923,0 61.0461538,1.38947368 62.3384615,3.6 L78.5230769,32.3368421 C79.8153846,34.6105263 79.8153846,37.3263158 78.5230769,39.6 L62.3384615,68.3368421 C61.0461538,70.6105263 58.7076923,71.9368421 56.1846154,71.9368421 L23.8153846,71.9368421 C21.2923077,71.9368421 18.9538462,70.5473684 17.7230769,68.3368421 L17.7230769,68.3368421 Z" id="path-2"></path>
    </defs>
    <g id="Page-1" stroke="none" stroke-width="1" fill="none" fill-rule="evenodd">
        <g id="Layer_1">
            <path d="M17.7230769,68.3368421 L1.53846154,39.6 C0.246153846,37.3263158 0.246153846,34.6105263 1.53846154,32.3368421 L17.7230769,3.6 C19.0153846,1.32631579 21.3538462,0 23.8769231,0 L56.1846154,0 C58.7076923,0 61.0461538,1.38947368 62.3384615,3.6 L78.5230769,32.3368421 C79.8153846,34.6105263 79.8153846,37.3263158 78.5230769,39.6 L62.3384615,68.3368421 C61.0461538,70.6105263 58.7076923,71.9368421 56.1846154,71.9368421 L23.8153846,71.9368421 C21.2923077,71.9368421 18.9538462,70.5473684 17.7230769,68.3368421 L17.7230769,68.3368421 Z" id="Shape" fill="url(#linearGradient-1)"></path>
            <g id="Clipped">
                <mask id="mask-3" fill="white">
                    <use xlink:href="#path-2"></use>
                </mask>
                <use id="SVGID_2_" fill="#0E62C2" xlink:href="#path-2"></use>
                <polygon id="Shape" fill="#0851B0" mask="url(#mask-3)" points="77.4769231 44.5263158 54.5230769 21.0315789 41.6615385 27.3473684 35.5076923 21.0315789 25.4769231 31.3894737 32.1846154 38.2736842 25.4769231 50.9052632 45.8461538 71.8105263 60.9230769 72.6315789"></polygon>
            </g>
            <rect id="Rectangle-path" fill="#FFFFFF" x="29.5384615" y="30" width="3.07692308" height="12.3157895"></rect>
            <rect id="Rectangle-path" fill="#FFFFFF" x="47.3846154" y="28.4842105" width="3.07692308" height="13.7684211"></rect>
            <rect id="Rectangle-path" fill="#FFFFFF" x="34.0923077" y="25.2631579" width="11.8153846" height="3.15789474"></rect>
            <rect id="Rectangle-path" fill="#FFFFFF" x="34.0923077" y="43.5789474" width="11.8153846" height="3.15789474"></rect>
            <path d="M35.0769231,31.5789474 L25.8461538,31.5789474 C25.4769231,31.5789474 25.2307692,31.3263158 25.2307692,30.9473684 L25.2307692,21.4736842 C25.2307692,21.0947368 25.4769231,20.8421053 25.8461538,20.8421053 L35.0769231,20.8421053 C35.4461538,20.8421053 35.6923077,21.0947368 35.6923077,21.4736842 L35.6923077,30.9473684 C35.6923077,31.2631579 35.4461538,31.5789474 35.0769231,31.5789474 L35.0769231,31.5789474 Z" id="Shape" fill="#FFFFFF"></path>
            <path d="M54.1538462,31.5789474 L44.9230769,31.5789474 C44.5538462,31.5789474 44.3076923,31.3263158 44.3076923,30.9473684 L44.3076923,21.4736842 C44.3076923,21.0947368 44.5538462,20.8421053 44.9230769,20.8421053 L54.1538462,20.8421053 C54.5230769,20.8421053 54.7692308,21.0947368 54.7692308,21.4736842 L54.7692308,30.9473684 C54.7692308,31.2631579 54.5230769,31.5789474 54.1538462,31.5789474 L54.1538462,31.5789474 Z" id="Shape" fill="#FFFFFF"></path>
            <path d="M35.0769231,51.1578947 L25.8461538,51.1578947 C25.4769231,51.1578947 25.2307692,50.9052632 25.2307692,50.5263158 L25.2307692,41.0526316 C25.2307692,40.6736842 25.4769231,40.4210526 25.8461538,40.4210526 L35.0769231,40.4210526 C35.4461538,40.4210526 35.6923077,40.6736842 35.6923077,41.0526316 L35.6923077,50.5263158 C35.6923077,50.8421053 35.4461538,51.1578947 35.0769231,51.1578947 L35.0769231,51.1578947 Z" id="Shape" fill="#FFFFFF"></path>
            <path d="M54.1538462,51.1578947 L44.9230769,51.1578947 C44.5538462,51.1578947 44.3076923,50.9052632 44.3076923,50.5263158 L44.3076923,41.0526316 C44.3076923,40.6736842 44.5538462,40.4210526 44.9230769,40.4210526 L54.1538462,40.4210526 C54.5230769,40.4210526 54.7692308,40.6736842 54.7692308,41.0526316 L54.7692308,50.5263158 C54.7692308,50.8421053 54.5230769,51.1578947 54.1538462,51.1578947 L54.1538462,51.1578947 Z" id="Shape" fill="#FFFFFF"></path>
        </g>
    </g>
</svg>