<?xml version="1.0" encoding="UTF-8" standalone="no"?>
<svg width="80px" height="72px" viewBox="0 0 80 72" version="1.1" xmlns="http://www.w3.org/2000/svg" xmlns:xlink="http://www.w3.org/1999/xlink">
    <!-- Generator: Sketch 39.1 (31720) - http://www.bohemiancoding.com/sketch -->
    <title>visionAPI-logo</title>
    <desc>Created with Sketch.</desc>
    <defs></defs>
    <g id="Page-1" stroke="none" stroke-width="1" fill="none" fill-rule="evenodd">
        <g id="shadow" fill="#0E62C2">
            <path d="M17.8546357,68.3473263 L1.5751938,39.6311368 C0.301333333,37.3841053 0.301333333,34.6156421 1.5751938,32.3686105 L17.8546357,3.65248421 C19.1284961,1.40545263 21.4827287,0.0212210526 24.0304496,0.0212210526 L56.5893333,0.0212210526 C59.1370543,0.0212210526 61.4912868,1.40545263 62.7651473,3.65248421 L79.0445891,32.3686105 C80.3184496,34.6156421 80.3184496,37.3841053 79.0445891,39.6311368 L62.7651473,68.3472632 C61.4912868,70.5942947 59.1370543,71.9785263 56.5893333,71.9785263 L24.0304496,71.9785263 C21.4827287,71.9785895 19.1285581,70.5943579 17.8546357,68.3473263 L17.8546357,68.3473263 Z" id="Shape"></path>
        </g>
        <g id="art2" transform="translate(21.705426, 21.473684)">
            <path d="M37.2094264,14.5263158 L32.8655504,16.5141474 L28.9405891,10.9736211 L18.6046512,3.3684 L-0.000124031008,14.5263158 L35.300093,50.4767368 C37.6848372,50.3341895 39.856062,48.9968842 41.0597829,46.8735789 L51.2762791,28.8521684 L37.2094264,14.5263158 L37.2094264,14.5263158 Z" id="Shape" fill="#0851B0"></path>
            <path d="M18.6046512,0.315663158 L-0.000124031008,14.5263158 L18.6046512,28.7369684 L37.2094264,14.5263158 L18.6046512,0.315663158 L18.6046512,0.315663158 Z M6.97668217,14.5263158 L18.6046512,6.23677895 L30.2326202,14.5263158 L18.6046512,22.8158526 L6.97668217,14.5263158 L6.97668217,14.5263158 Z" id="Shape" fill="#FFFFFF"></path>
            <ellipse id="Oval" fill="#FFFFFF" cx="18.6151938" cy="14.5263158" rx="3.48837209" ry="3.55263158"></ellipse>
        </g>
    </g>
</svg>